<mxfile host="Electron" modified="2024-07-16T09:59:38.046Z" agent="Mozilla/5.0 (Windows NT 10.0; Win64; x64) AppleWebKit/537.36 (KHTML, like Gecko) draw.io/22.1.16 Chrome/120.0.6099.109 Electron/28.1.0 Safari/537.36" etag="Q6ozXL93uxeAmuVQ4nyO" version="22.1.16" type="device">
  <diagram name="Pagina-1" id="_I0ySaq79Y2ORnV5yvTE">
    <mxGraphModel dx="1304" dy="2960" grid="1" gridSize="10" guides="1" tooltips="1" connect="1" arrows="1" fold="1" page="1" pageScale="1" pageWidth="850" pageHeight="1100" math="0" shadow="0">
      <root>
        <mxCell id="0" />
        <mxCell id="1" parent="0" />
        <mxCell id="a-lBnfebaD4neExDsO_B-22" value="" style="group" parent="1" vertex="1" connectable="0">
          <mxGeometry x="80" y="-230" width="1470.7" height="1990" as="geometry" />
        </mxCell>
        <mxCell id="a-lBnfebaD4neExDsO_B-24" value="" style="group" parent="a-lBnfebaD4neExDsO_B-22" vertex="1" connectable="0">
          <mxGeometry x="10.7" width="1460" height="1990" as="geometry" />
        </mxCell>
        <mxCell id="a-lBnfebaD4neExDsO_B-1" value="" style="shape=folder;fontStyle=1;spacingTop=10;tabWidth=70;tabHeight=30;tabPosition=left;html=1;whiteSpace=wrap;" parent="a-lBnfebaD4neExDsO_B-24" vertex="1">
          <mxGeometry width="1460" height="1989.9999999999998" as="geometry" />
        </mxCell>
        <mxCell id="a-lBnfebaD4neExDsO_B-2" value="Model" style="text;html=1;align=center;verticalAlign=middle;resizable=0;points=[];autosize=1;strokeColor=none;fillColor=none;" parent="a-lBnfebaD4neExDsO_B-24" vertex="1">
          <mxGeometry width="60" height="30" as="geometry" />
        </mxCell>
        <mxCell id="a-lBnfebaD4neExDsO_B-3" value="Decoder" style="swimlane;fontStyle=1;align=center;verticalAlign=top;childLayout=stackLayout;horizontal=1;startSize=26;horizontalStack=0;resizeParent=1;resizeParentMax=0;resizeLast=0;collapsible=1;marginBottom=0;whiteSpace=wrap;html=1;" parent="a-lBnfebaD4neExDsO_B-24" vertex="1">
          <mxGeometry x="69.3" y="419.2540206185567" width="210.7" height="121.2738144329897" as="geometry" />
        </mxCell>
        <mxCell id="leNs4Q04AgKeH0ur-R9n-123" value="- instance: Decoder" style="text;strokeColor=none;fillColor=none;align=left;verticalAlign=top;spacingLeft=4;spacingRight=4;overflow=hidden;rotatable=0;points=[[0,0.5],[1,0.5]];portConstraint=eastwest;whiteSpace=wrap;html=1;" parent="a-lBnfebaD4neExDsO_B-3" vertex="1">
          <mxGeometry y="26" width="210.7" height="28.803711340206185" as="geometry" />
        </mxCell>
        <mxCell id="a-lBnfebaD4neExDsO_B-5" value="" style="line;strokeWidth=1;fillColor=none;align=left;verticalAlign=middle;spacingTop=-1;spacingLeft=3;spacingRight=3;rotatable=0;labelPosition=right;points=[];portConstraint=eastwest;strokeColor=inherit;" parent="a-lBnfebaD4neExDsO_B-3" vertex="1">
          <mxGeometry y="54.803711340206185" width="210.7" height="8.862680412371134" as="geometry" />
        </mxCell>
        <mxCell id="leNs4Q04AgKeH0ur-R9n-124" value="+ getInstance(String): Decoder" style="text;strokeColor=none;fillColor=none;align=left;verticalAlign=top;spacingLeft=4;spacingRight=4;overflow=hidden;rotatable=0;points=[[0,0.5],[1,0.5]];portConstraint=eastwest;whiteSpace=wrap;html=1;" parent="a-lBnfebaD4neExDsO_B-3" vertex="1">
          <mxGeometry y="63.66639175257732" width="210.7" height="28.803711340206185" as="geometry" />
        </mxCell>
        <mxCell id="leNs4Q04AgKeH0ur-R9n-125" value="+ resetInstance(): void" style="text;strokeColor=none;fillColor=none;align=left;verticalAlign=top;spacingLeft=4;spacingRight=4;overflow=hidden;rotatable=0;points=[[0,0.5],[1,0.5]];portConstraint=eastwest;whiteSpace=wrap;html=1;" parent="a-lBnfebaD4neExDsO_B-3" vertex="1">
          <mxGeometry y="92.4701030927835" width="210.7" height="28.803711340206185" as="geometry" />
        </mxCell>
        <mxCell id="a-lBnfebaD4neExDsO_B-12" value="Encoder" style="swimlane;fontStyle=1;align=center;verticalAlign=top;childLayout=stackLayout;horizontal=1;startSize=26;horizontalStack=0;resizeParent=1;resizeParentMax=0;resizeLast=0;collapsible=1;marginBottom=0;whiteSpace=wrap;html=1;" parent="a-lBnfebaD4neExDsO_B-24" vertex="1">
          <mxGeometry x="449.3" y="510.1375257731958" width="290.7" height="312.2317525773196" as="geometry" />
        </mxCell>
        <mxCell id="leNs4Q04AgKeH0ur-R9n-128" value="- instance: Encoder" style="text;strokeColor=none;fillColor=none;align=left;verticalAlign=top;spacingLeft=4;spacingRight=4;overflow=hidden;rotatable=0;points=[[0,0.5],[1,0.5]];portConstraint=eastwest;whiteSpace=wrap;html=1;" parent="a-lBnfebaD4neExDsO_B-12" vertex="1">
          <mxGeometry y="26" width="290.7" height="28.803711340206185" as="geometry" />
        </mxCell>
        <mxCell id="a-lBnfebaD4neExDsO_B-17" value="- strategy: EncoderStrategy" style="text;strokeColor=none;fillColor=none;align=left;verticalAlign=top;spacingLeft=4;spacingRight=4;overflow=hidden;rotatable=0;points=[[0,0.5],[1,0.5]];portConstraint=eastwest;whiteSpace=wrap;html=1;" parent="a-lBnfebaD4neExDsO_B-12" vertex="1">
          <mxGeometry y="54.803711340206185" width="290.7" height="28.803711340206185" as="geometry" />
        </mxCell>
        <mxCell id="a-lBnfebaD4neExDsO_B-14" value="" style="line;strokeWidth=1;fillColor=none;align=left;verticalAlign=middle;spacingTop=-1;spacingLeft=3;spacingRight=3;rotatable=0;labelPosition=right;points=[];portConstraint=eastwest;strokeColor=inherit;" parent="a-lBnfebaD4neExDsO_B-12" vertex="1">
          <mxGeometry y="83.60742268041237" width="290.7" height="8.862680412371134" as="geometry" />
        </mxCell>
        <mxCell id="leNs4Q04AgKeH0ur-R9n-129" value="+ getInstance(String): Encoder" style="text;strokeColor=none;fillColor=none;align=left;verticalAlign=top;spacingLeft=4;spacingRight=4;overflow=hidden;rotatable=0;points=[[0,0.5],[1,0.5]];portConstraint=eastwest;whiteSpace=wrap;html=1;" parent="a-lBnfebaD4neExDsO_B-12" vertex="1">
          <mxGeometry y="92.4701030927835" width="290.7" height="28.803711340206185" as="geometry" />
        </mxCell>
        <mxCell id="TmO1mP3xWZ-vTGTIXcNk-11" value="+ setStrategy(EncoderStrategy): void" style="text;strokeColor=none;fillColor=none;align=left;verticalAlign=top;spacingLeft=4;spacingRight=4;overflow=hidden;rotatable=0;points=[[0,0.5],[1,0.5]];portConstraint=eastwest;whiteSpace=wrap;html=1;" parent="a-lBnfebaD4neExDsO_B-12" vertex="1">
          <mxGeometry y="121.2738144329897" width="290.7" height="28.803711340206185" as="geometry" />
        </mxCell>
        <mxCell id="leNs4Q04AgKeH0ur-R9n-130" value="+ getStrategy(): EncoderStrategy" style="text;strokeColor=none;fillColor=none;align=left;verticalAlign=top;spacingLeft=4;spacingRight=4;overflow=hidden;rotatable=0;points=[[0,0.5],[1,0.5]];portConstraint=eastwest;whiteSpace=wrap;html=1;" parent="a-lBnfebaD4neExDsO_B-12" vertex="1">
          <mxGeometry y="150.07752577319587" width="290.7" height="28.803711340206185" as="geometry" />
        </mxCell>
        <mxCell id="a-lBnfebaD4neExDsO_B-25" value="+ generateSecretCode(): void" style="text;strokeColor=none;fillColor=none;align=left;verticalAlign=top;spacingLeft=4;spacingRight=4;overflow=hidden;rotatable=0;points=[[0,0.5],[1,0.5]];portConstraint=eastwest;whiteSpace=wrap;html=1;" parent="a-lBnfebaD4neExDsO_B-12" vertex="1">
          <mxGeometry y="178.88123711340205" width="290.7" height="26.670103092783503" as="geometry" />
        </mxCell>
        <mxCell id="leNs4Q04AgKeH0ur-R9n-131" value="+ setSecretCode(ArrayList&amp;lt;Color&amp;gt;): void" style="text;strokeColor=none;fillColor=none;align=left;verticalAlign=top;spacingLeft=4;spacingRight=4;overflow=hidden;rotatable=0;points=[[0,0.5],[1,0.5]];portConstraint=eastwest;whiteSpace=wrap;html=1;" parent="a-lBnfebaD4neExDsO_B-12" vertex="1">
          <mxGeometry y="205.55134020618556" width="290.7" height="26.670103092783503" as="geometry" />
        </mxCell>
        <mxCell id="a-lBnfebaD4neExDsO_B-26" value="+ getSecretCode(): Arraylist&amp;lt;Color&amp;gt;" style="text;strokeColor=none;fillColor=none;align=left;verticalAlign=top;spacingLeft=4;spacingRight=4;overflow=hidden;rotatable=0;points=[[0,0.5],[1,0.5]];portConstraint=eastwest;whiteSpace=wrap;html=1;" parent="a-lBnfebaD4neExDsO_B-12" vertex="1">
          <mxGeometry y="232.22144329896906" width="290.7" height="26.670103092783503" as="geometry" />
        </mxCell>
        <mxCell id="xYpT5LmuNh0zjIPxlV9m-13" value="+ evaluateSequence(ArrayList&amp;lt;Color&amp;gt;): int[]" style="text;strokeColor=none;fillColor=none;align=left;verticalAlign=top;spacingLeft=4;spacingRight=4;overflow=hidden;rotatable=0;points=[[0,0.5],[1,0.5]];portConstraint=eastwest;whiteSpace=wrap;html=1;" parent="a-lBnfebaD4neExDsO_B-12" vertex="1">
          <mxGeometry y="258.89154639175257" width="290.7" height="26.670103092783503" as="geometry" />
        </mxCell>
        <mxCell id="leNs4Q04AgKeH0ur-R9n-132" value="+ resetInstance(): void" style="text;strokeColor=none;fillColor=none;align=left;verticalAlign=top;spacingLeft=4;spacingRight=4;overflow=hidden;rotatable=0;points=[[0,0.5],[1,0.5]];portConstraint=eastwest;whiteSpace=wrap;html=1;" parent="a-lBnfebaD4neExDsO_B-12" vertex="1">
          <mxGeometry y="285.5616494845361" width="290.7" height="26.670103092783503" as="geometry" />
        </mxCell>
        <mxCell id="a-lBnfebaD4neExDsO_B-27" value="Player &amp;lt;Astract&amp;gt;" style="swimlane;fontStyle=1;align=center;verticalAlign=top;childLayout=stackLayout;horizontal=1;startSize=26;horizontalStack=0;resizeParent=1;resizeParentMax=0;resizeLast=0;collapsible=1;marginBottom=0;whiteSpace=wrap;html=1;" parent="a-lBnfebaD4neExDsO_B-24" vertex="1">
          <mxGeometry x="319.29999999999995" y="102.57731958762882" width="160" height="194.22680412371133" as="geometry" />
        </mxCell>
        <mxCell id="a-lBnfebaD4neExDsO_B-28" value="- name: String" style="text;strokeColor=none;fillColor=none;align=left;verticalAlign=top;spacingLeft=4;spacingRight=4;overflow=hidden;rotatable=0;points=[[0,0.5],[1,0.5]];portConstraint=eastwest;whiteSpace=wrap;html=1;" parent="a-lBnfebaD4neExDsO_B-27" vertex="1">
          <mxGeometry y="26" width="160" height="26.670103092783503" as="geometry" />
        </mxCell>
        <mxCell id="a-lBnfebaD4neExDsO_B-31" value="- points: int" style="text;strokeColor=none;fillColor=none;align=left;verticalAlign=top;spacingLeft=4;spacingRight=4;overflow=hidden;rotatable=0;points=[[0,0.5],[1,0.5]];portConstraint=eastwest;whiteSpace=wrap;html=1;" parent="a-lBnfebaD4neExDsO_B-27" vertex="1">
          <mxGeometry y="52.670103092783506" width="160" height="26.670103092783503" as="geometry" />
        </mxCell>
        <mxCell id="a-lBnfebaD4neExDsO_B-29" value="" style="line;strokeWidth=1;fillColor=none;align=left;verticalAlign=middle;spacingTop=-1;spacingLeft=3;spacingRight=3;rotatable=0;labelPosition=right;points=[];portConstraint=eastwest;strokeColor=inherit;" parent="a-lBnfebaD4neExDsO_B-27" vertex="1">
          <mxGeometry y="79.34020618556701" width="160" height="8.206185567010309" as="geometry" />
        </mxCell>
        <mxCell id="a-lBnfebaD4neExDsO_B-30" value="+ setName(String): void" style="text;strokeColor=none;fillColor=none;align=left;verticalAlign=top;spacingLeft=4;spacingRight=4;overflow=hidden;rotatable=0;points=[[0,0.5],[1,0.5]];portConstraint=eastwest;whiteSpace=wrap;html=1;" parent="a-lBnfebaD4neExDsO_B-27" vertex="1">
          <mxGeometry y="87.54639175257732" width="160" height="26.670103092783503" as="geometry" />
        </mxCell>
        <mxCell id="a-lBnfebaD4neExDsO_B-32" value="+ getName(): String" style="text;strokeColor=none;fillColor=none;align=left;verticalAlign=top;spacingLeft=4;spacingRight=4;overflow=hidden;rotatable=0;points=[[0,0.5],[1,0.5]];portConstraint=eastwest;whiteSpace=wrap;html=1;" parent="a-lBnfebaD4neExDsO_B-27" vertex="1">
          <mxGeometry y="114.21649484536083" width="160" height="26.670103092783503" as="geometry" />
        </mxCell>
        <mxCell id="a-lBnfebaD4neExDsO_B-33" value="+ setPoints(int): void" style="text;strokeColor=none;fillColor=none;align=left;verticalAlign=top;spacingLeft=4;spacingRight=4;overflow=hidden;rotatable=0;points=[[0,0.5],[1,0.5]];portConstraint=eastwest;whiteSpace=wrap;html=1;" parent="a-lBnfebaD4neExDsO_B-27" vertex="1">
          <mxGeometry y="140.88659793814432" width="160" height="26.670103092783503" as="geometry" />
        </mxCell>
        <mxCell id="a-lBnfebaD4neExDsO_B-34" value="+ getPoints(): int" style="text;strokeColor=none;fillColor=none;align=left;verticalAlign=top;spacingLeft=4;spacingRight=4;overflow=hidden;rotatable=0;points=[[0,0.5],[1,0.5]];portConstraint=eastwest;whiteSpace=wrap;html=1;" parent="a-lBnfebaD4neExDsO_B-27" vertex="1">
          <mxGeometry y="167.55670103092783" width="160" height="26.670103092783503" as="geometry" />
        </mxCell>
        <mxCell id="a-lBnfebaD4neExDsO_B-35" value="Extends" style="endArrow=block;endSize=16;endFill=0;html=1;rounded=0;exitX=0.5;exitY=0;exitDx=0;exitDy=0;" parent="a-lBnfebaD4neExDsO_B-24" source="a-lBnfebaD4neExDsO_B-3" target="a-lBnfebaD4neExDsO_B-27" edge="1">
          <mxGeometry width="160" relative="1" as="geometry">
            <mxPoint x="459.29999999999995" y="388.48082474226806" as="sourcePoint" />
            <mxPoint x="619.3" y="388.48082474226806" as="targetPoint" />
            <Array as="points">
              <mxPoint x="175.3" y="200.02577319587627" />
            </Array>
          </mxGeometry>
        </mxCell>
        <mxCell id="a-lBnfebaD4neExDsO_B-37" value="Extends" style="endArrow=block;endSize=16;endFill=0;html=1;rounded=0;exitX=0.5;exitY=0;exitDx=0;exitDy=0;" parent="a-lBnfebaD4neExDsO_B-24" source="a-lBnfebaD4neExDsO_B-12" target="a-lBnfebaD4neExDsO_B-27" edge="1">
          <mxGeometry width="160" relative="1" as="geometry">
            <mxPoint x="459.29999999999995" y="388.48082474226806" as="sourcePoint" />
            <mxPoint x="619.3" y="388.48082474226806" as="targetPoint" />
            <Array as="points">
              <mxPoint x="594.3" y="202.07731958762884" />
            </Array>
          </mxGeometry>
        </mxCell>
        <mxCell id="a-lBnfebaD4neExDsO_B-38" value="Game" style="swimlane;fontStyle=1;align=center;verticalAlign=top;childLayout=stackLayout;horizontal=1;startSize=26;horizontalStack=0;resizeParent=1;resizeParentMax=0;resizeLast=0;collapsible=1;marginBottom=0;whiteSpace=wrap;html=1;" parent="a-lBnfebaD4neExDsO_B-24" vertex="1">
          <mxGeometry x="1129.98" y="1330.0005154639175" width="235.35" height="567.6082474226804" as="geometry" />
        </mxCell>
        <mxCell id="a-lBnfebaD4neExDsO_B-39" value="- id: int" style="text;strokeColor=none;fillColor=none;align=left;verticalAlign=top;spacingLeft=4;spacingRight=4;overflow=hidden;rotatable=0;points=[[0,0.5],[1,0.5]];portConstraint=eastwest;whiteSpace=wrap;html=1;" parent="a-lBnfebaD4neExDsO_B-38" vertex="1">
          <mxGeometry y="26" width="235.35" height="26.670103092783503" as="geometry" />
        </mxCell>
        <mxCell id="0AKXrBJ4bUIqsCuSMHQm-9" value="- totAttempts: int" style="text;strokeColor=none;fillColor=none;align=left;verticalAlign=top;spacingLeft=4;spacingRight=4;overflow=hidden;rotatable=0;points=[[0,0.5],[1,0.5]];portConstraint=eastwest;whiteSpace=wrap;html=1;" parent="a-lBnfebaD4neExDsO_B-38" vertex="1">
          <mxGeometry y="52.670103092783506" width="235.35" height="26.670103092783503" as="geometry" />
        </mxCell>
        <mxCell id="xYpT5LmuNh0zjIPxlV9m-9" value="- attemptsPlayed: int" style="text;strokeColor=none;fillColor=none;align=left;verticalAlign=top;spacingLeft=4;spacingRight=4;overflow=hidden;rotatable=0;points=[[0,0.5],[1,0.5]];portConstraint=eastwest;whiteSpace=wrap;html=1;" parent="a-lBnfebaD4neExDsO_B-38" vertex="1">
          <mxGeometry y="79.34020618556701" width="235.35" height="26.670103092783503" as="geometry" />
        </mxCell>
        <mxCell id="a-lBnfebaD4neExDsO_B-42" value="- state: String" style="text;strokeColor=none;fillColor=none;align=left;verticalAlign=top;spacingLeft=4;spacingRight=4;overflow=hidden;rotatable=0;points=[[0,0.5],[1,0.5]];portConstraint=eastwest;whiteSpace=wrap;html=1;" parent="a-lBnfebaD4neExDsO_B-38" vertex="1">
          <mxGeometry y="106.01030927835052" width="235.35" height="26.670103092783503" as="geometry" />
        </mxCell>
        <mxCell id="xYpT5LmuNh0zjIPxlV9m-8" value="- sequenceStorage: SequencesStorage" style="text;strokeColor=none;fillColor=none;align=left;verticalAlign=top;spacingLeft=4;spacingRight=4;overflow=hidden;rotatable=0;points=[[0,0.5],[1,0.5]];portConstraint=eastwest;whiteSpace=wrap;html=1;" parent="a-lBnfebaD4neExDsO_B-38" vertex="1">
          <mxGeometry y="132.68041237113403" width="235.35" height="26.670103092783503" as="geometry" />
        </mxCell>
        <mxCell id="0AKXrBJ4bUIqsCuSMHQm-28" value="- hintsStorage: HintsStorage" style="text;strokeColor=none;fillColor=none;align=left;verticalAlign=top;spacingLeft=4;spacingRight=4;overflow=hidden;rotatable=0;points=[[0,0.5],[1,0.5]];portConstraint=eastwest;whiteSpace=wrap;html=1;" parent="a-lBnfebaD4neExDsO_B-38" vertex="1">
          <mxGeometry y="159.35051546391753" width="235.35" height="26.670103092783503" as="geometry" />
        </mxCell>
        <mxCell id="a-lBnfebaD4neExDsO_B-40" value="" style="line;strokeWidth=1;fillColor=none;align=left;verticalAlign=middle;spacingTop=-1;spacingLeft=3;spacingRight=3;rotatable=0;labelPosition=right;points=[];portConstraint=eastwest;strokeColor=inherit;" parent="a-lBnfebaD4neExDsO_B-38" vertex="1">
          <mxGeometry y="186.02061855670104" width="235.35" height="8.206185567010309" as="geometry" />
        </mxCell>
        <mxCell id="a-lBnfebaD4neExDsO_B-41" value="+ start(): void" style="text;strokeColor=none;fillColor=none;align=left;verticalAlign=top;spacingLeft=4;spacingRight=4;overflow=hidden;rotatable=0;points=[[0,0.5],[1,0.5]];portConstraint=eastwest;whiteSpace=wrap;html=1;" parent="a-lBnfebaD4neExDsO_B-38" vertex="1">
          <mxGeometry y="194.22680412371136" width="235.35" height="26.670103092783503" as="geometry" />
        </mxCell>
        <mxCell id="a-lBnfebaD4neExDsO_B-43" value="+ end(): void" style="text;strokeColor=none;fillColor=none;align=left;verticalAlign=top;spacingLeft=4;spacingRight=4;overflow=hidden;rotatable=0;points=[[0,0.5],[1,0.5]];portConstraint=eastwest;whiteSpace=wrap;html=1;" parent="a-lBnfebaD4neExDsO_B-38" vertex="1">
          <mxGeometry y="220.89690721649487" width="235.35" height="26.670103092783503" as="geometry" />
        </mxCell>
        <mxCell id="TmO1mP3xWZ-vTGTIXcNk-6" value="+ setId(int): void" style="text;strokeColor=none;fillColor=none;align=left;verticalAlign=top;spacingLeft=4;spacingRight=4;overflow=hidden;rotatable=0;points=[[0,0.5],[1,0.5]];portConstraint=eastwest;whiteSpace=wrap;html=1;" parent="a-lBnfebaD4neExDsO_B-38" vertex="1">
          <mxGeometry y="247.56701030927837" width="235.35" height="26.670103092783503" as="geometry" />
        </mxCell>
        <mxCell id="TmO1mP3xWZ-vTGTIXcNk-7" value="+ getId(): int" style="text;strokeColor=none;fillColor=none;align=left;verticalAlign=top;spacingLeft=4;spacingRight=4;overflow=hidden;rotatable=0;points=[[0,0.5],[1,0.5]];portConstraint=eastwest;whiteSpace=wrap;html=1;" parent="a-lBnfebaD4neExDsO_B-38" vertex="1">
          <mxGeometry y="274.2371134020619" width="235.35" height="26.670103092783503" as="geometry" />
        </mxCell>
        <mxCell id="TmO1mP3xWZ-vTGTIXcNk-8" value="+ getState(): String" style="text;strokeColor=none;fillColor=none;align=left;verticalAlign=top;spacingLeft=4;spacingRight=4;overflow=hidden;rotatable=0;points=[[0,0.5],[1,0.5]];portConstraint=eastwest;whiteSpace=wrap;html=1;" parent="a-lBnfebaD4neExDsO_B-38" vertex="1">
          <mxGeometry y="300.9072164948454" width="235.35" height="26.670103092783503" as="geometry" />
        </mxCell>
        <mxCell id="0AKXrBJ4bUIqsCuSMHQm-11" value="+ addSequence(ArrayList&amp;lt;Color&amp;gt;): void" style="text;strokeColor=none;fillColor=none;align=left;verticalAlign=top;spacingLeft=4;spacingRight=4;overflow=hidden;rotatable=0;points=[[0,0.5],[1,0.5]];portConstraint=eastwest;whiteSpace=wrap;html=1;" parent="a-lBnfebaD4neExDsO_B-38" vertex="1">
          <mxGeometry y="327.5773195876289" width="235.35" height="26.670103092783503" as="geometry" />
        </mxCell>
        <mxCell id="0AKXrBJ4bUIqsCuSMHQm-12" value="+ getSequences(): ArrayList&amp;lt;&amp;gt;" style="text;strokeColor=none;fillColor=none;align=left;verticalAlign=top;spacingLeft=4;spacingRight=4;overflow=hidden;rotatable=0;points=[[0,0.5],[1,0.5]];portConstraint=eastwest;whiteSpace=wrap;html=1;" parent="a-lBnfebaD4neExDsO_B-38" vertex="1">
          <mxGeometry y="354.2474226804124" width="235.35" height="26.670103092783503" as="geometry" />
        </mxCell>
        <mxCell id="0AKXrBJ4bUIqsCuSMHQm-13" value="+ defineTotalAttempts(String): void" style="text;strokeColor=none;fillColor=none;align=left;verticalAlign=top;spacingLeft=4;spacingRight=4;overflow=hidden;rotatable=0;points=[[0,0.5],[1,0.5]];portConstraint=eastwest;whiteSpace=wrap;html=1;" parent="a-lBnfebaD4neExDsO_B-38" vertex="1">
          <mxGeometry y="380.9175257731959" width="235.35" height="26.670103092783503" as="geometry" />
        </mxCell>
        <mxCell id="0AKXrBJ4bUIqsCuSMHQm-14" value="+ getTotalAttempts(): int" style="text;strokeColor=none;fillColor=none;align=left;verticalAlign=top;spacingLeft=4;spacingRight=4;overflow=hidden;rotatable=0;points=[[0,0.5],[1,0.5]];portConstraint=eastwest;whiteSpace=wrap;html=1;" parent="a-lBnfebaD4neExDsO_B-38" vertex="1">
          <mxGeometry y="407.5876288659794" width="235.35" height="26.670103092783503" as="geometry" />
        </mxCell>
        <mxCell id="0AKXrBJ4bUIqsCuSMHQm-15" value="+ setAttemptsPlayed(int): void" style="text;strokeColor=none;fillColor=none;align=left;verticalAlign=top;spacingLeft=4;spacingRight=4;overflow=hidden;rotatable=0;points=[[0,0.5],[1,0.5]];portConstraint=eastwest;whiteSpace=wrap;html=1;" parent="a-lBnfebaD4neExDsO_B-38" vertex="1">
          <mxGeometry y="434.2577319587629" width="235.35" height="26.670103092783503" as="geometry" />
        </mxCell>
        <mxCell id="0AKXrBJ4bUIqsCuSMHQm-16" value="+ getAttemptsPlayed(): int" style="text;strokeColor=none;fillColor=none;align=left;verticalAlign=top;spacingLeft=4;spacingRight=4;overflow=hidden;rotatable=0;points=[[0,0.5],[1,0.5]];portConstraint=eastwest;whiteSpace=wrap;html=1;" parent="a-lBnfebaD4neExDsO_B-38" vertex="1">
          <mxGeometry y="460.9278350515464" width="235.35" height="26.670103092783503" as="geometry" />
        </mxCell>
        <mxCell id="0AKXrBJ4bUIqsCuSMHQm-17" value="+ initializeHints(int): void" style="text;strokeColor=none;fillColor=none;align=left;verticalAlign=top;spacingLeft=4;spacingRight=4;overflow=hidden;rotatable=0;points=[[0,0.5],[1,0.5]];portConstraint=eastwest;whiteSpace=wrap;html=1;" parent="a-lBnfebaD4neExDsO_B-38" vertex="1">
          <mxGeometry y="487.59793814432993" width="235.35" height="26.670103092783503" as="geometry" />
        </mxCell>
        <mxCell id="0AKXrBJ4bUIqsCuSMHQm-18" value="+ addHint(int[]): void" style="text;strokeColor=none;fillColor=none;align=left;verticalAlign=top;spacingLeft=4;spacingRight=4;overflow=hidden;rotatable=0;points=[[0,0.5],[1,0.5]];portConstraint=eastwest;whiteSpace=wrap;html=1;" parent="a-lBnfebaD4neExDsO_B-38" vertex="1">
          <mxGeometry y="514.2680412371134" width="235.35" height="26.670103092783503" as="geometry" />
        </mxCell>
        <mxCell id="xYpT5LmuNh0zjIPxlV9m-10" value="+ getLastHint(): int[]" style="text;strokeColor=none;fillColor=none;align=left;verticalAlign=top;spacingLeft=4;spacingRight=4;overflow=hidden;rotatable=0;points=[[0,0.5],[1,0.5]];portConstraint=eastwest;whiteSpace=wrap;html=1;" parent="a-lBnfebaD4neExDsO_B-38" vertex="1">
          <mxGeometry y="540.9381443298969" width="235.35" height="26.670103092783503" as="geometry" />
        </mxCell>
        <mxCell id="a-lBnfebaD4neExDsO_B-44" value="GameFacade&lt;span style=&quot;white-space: pre;&quot;&gt;&#x9;&lt;/span&gt;" style="swimlane;fontStyle=1;align=center;verticalAlign=top;childLayout=stackLayout;horizontal=1;startSize=26;horizontalStack=0;resizeParent=1;resizeParentMax=0;resizeLast=0;collapsible=1;marginBottom=0;whiteSpace=wrap;html=1;" parent="a-lBnfebaD4neExDsO_B-24" vertex="1">
          <mxGeometry x="1072.3" y="279.9965979381443" width="350.7" height="887.6494845360825" as="geometry" />
        </mxCell>
        <mxCell id="a-lBnfebaD4neExDsO_B-45" value="- decoder: Decoder" style="text;strokeColor=none;fillColor=none;align=left;verticalAlign=top;spacingLeft=4;spacingRight=4;overflow=hidden;rotatable=0;points=[[0,0.5],[1,0.5]];portConstraint=eastwest;whiteSpace=wrap;html=1;" parent="a-lBnfebaD4neExDsO_B-44" vertex="1">
          <mxGeometry y="26" width="350.7" height="26.670103092783503" as="geometry" />
        </mxCell>
        <mxCell id="a-lBnfebaD4neExDsO_B-48" value="- encoder: Encoder" style="text;strokeColor=none;fillColor=none;align=left;verticalAlign=top;spacingLeft=4;spacingRight=4;overflow=hidden;rotatable=0;points=[[0,0.5],[1,0.5]];portConstraint=eastwest;whiteSpace=wrap;html=1;" parent="a-lBnfebaD4neExDsO_B-44" vertex="1">
          <mxGeometry y="52.670103092783506" width="350.7" height="26.670103092783503" as="geometry" />
        </mxCell>
        <mxCell id="a-lBnfebaD4neExDsO_B-49" value="- game: Game" style="text;strokeColor=none;fillColor=none;align=left;verticalAlign=top;spacingLeft=4;spacingRight=4;overflow=hidden;rotatable=0;points=[[0,0.5],[1,0.5]];portConstraint=eastwest;whiteSpace=wrap;html=1;" parent="a-lBnfebaD4neExDsO_B-44" vertex="1">
          <mxGeometry y="79.34020618556701" width="350.7" height="26.670103092783503" as="geometry" />
        </mxCell>
        <mxCell id="0AKXrBJ4bUIqsCuSMHQm-19" value="- attemptsLeft: int" style="text;strokeColor=none;fillColor=none;align=left;verticalAlign=top;spacingLeft=4;spacingRight=4;overflow=hidden;rotatable=0;points=[[0,0.5],[1,0.5]];portConstraint=eastwest;whiteSpace=wrap;html=1;" parent="a-lBnfebaD4neExDsO_B-44" vertex="1">
          <mxGeometry y="106.01030927835052" width="350.7" height="26.670103092783503" as="geometry" />
        </mxCell>
        <mxCell id="0AKXrBJ4bUIqsCuSMHQm-20" value="- colorList: String" style="text;strokeColor=none;fillColor=none;align=left;verticalAlign=top;spacingLeft=4;spacingRight=4;overflow=hidden;rotatable=0;points=[[0,0.5],[1,0.5]];portConstraint=eastwest;whiteSpace=wrap;html=1;" parent="a-lBnfebaD4neExDsO_B-44" vertex="1">
          <mxGeometry y="132.68041237113403" width="350.7" height="26.670103092783503" as="geometry" />
        </mxCell>
        <mxCell id="0AKXrBJ4bUIqsCuSMHQm-21" value="- factory: GameEntitiesFactory" style="text;strokeColor=none;fillColor=none;align=left;verticalAlign=top;spacingLeft=4;spacingRight=4;overflow=hidden;rotatable=0;points=[[0,0.5],[1,0.5]];portConstraint=eastwest;whiteSpace=wrap;html=1;" parent="a-lBnfebaD4neExDsO_B-44" vertex="1">
          <mxGeometry y="159.35051546391753" width="350.7" height="26.670103092783503" as="geometry" />
        </mxCell>
        <mxCell id="a-lBnfebaD4neExDsO_B-46" value="" style="line;strokeWidth=1;fillColor=none;align=left;verticalAlign=middle;spacingTop=-1;spacingLeft=3;spacingRight=3;rotatable=0;labelPosition=right;points=[];portConstraint=eastwest;strokeColor=inherit;" parent="a-lBnfebaD4neExDsO_B-44" vertex="1">
          <mxGeometry y="186.02061855670104" width="350.7" height="8.206185567010309" as="geometry" />
        </mxCell>
        <mxCell id="TmO1mP3xWZ-vTGTIXcNk-3" value="+ createNewEncoder(String, EncoderStrategy, Observer): void" style="text;strokeColor=none;fillColor=none;align=left;verticalAlign=top;spacingLeft=4;spacingRight=4;overflow=hidden;rotatable=0;points=[[0,0.5],[1,0.5]];portConstraint=eastwest;whiteSpace=wrap;html=1;" parent="a-lBnfebaD4neExDsO_B-44" vertex="1">
          <mxGeometry y="194.22680412371136" width="350.7" height="26.670103092783503" as="geometry" />
        </mxCell>
        <mxCell id="0AKXrBJ4bUIqsCuSMHQm-22" value="+ createNewDecoder(String, Observer): void" style="text;strokeColor=none;fillColor=none;align=left;verticalAlign=top;spacingLeft=4;spacingRight=4;overflow=hidden;rotatable=0;points=[[0,0.5],[1,0.5]];portConstraint=eastwest;whiteSpace=wrap;html=1;" parent="a-lBnfebaD4neExDsO_B-44" vertex="1">
          <mxGeometry y="220.89690721649487" width="350.7" height="26.670103092783503" as="geometry" />
        </mxCell>
        <mxCell id="0AKXrBJ4bUIqsCuSMHQm-23" value="+ createNewGame(int): void" style="text;strokeColor=none;fillColor=none;align=left;verticalAlign=top;spacingLeft=4;spacingRight=4;overflow=hidden;rotatable=0;points=[[0,0.5],[1,0.5]];portConstraint=eastwest;whiteSpace=wrap;html=1;" parent="a-lBnfebaD4neExDsO_B-44" vertex="1">
          <mxGeometry y="247.56701030927837" width="350.7" height="26.670103092783503" as="geometry" />
        </mxCell>
        <mxCell id="ucXKJVV_5cdbt2Cd6D2D-1" value="+ generateSecretCode(): void" style="text;strokeColor=none;fillColor=none;align=left;verticalAlign=top;spacingLeft=4;spacingRight=4;overflow=hidden;rotatable=0;points=[[0,0.5],[1,0.5]];portConstraint=eastwest;whiteSpace=wrap;html=1;" vertex="1" parent="a-lBnfebaD4neExDsO_B-44">
          <mxGeometry y="274.2371134020619" width="350.7" height="26.670103092783503" as="geometry" />
        </mxCell>
        <mxCell id="ucXKJVV_5cdbt2Cd6D2D-2" value="+ getDecoderName(): String" style="text;strokeColor=none;fillColor=none;align=left;verticalAlign=top;spacingLeft=4;spacingRight=4;overflow=hidden;rotatable=0;points=[[0,0.5],[1,0.5]];portConstraint=eastwest;whiteSpace=wrap;html=1;" vertex="1" parent="a-lBnfebaD4neExDsO_B-44">
          <mxGeometry y="300.9072164948454" width="350.7" height="26.670103092783503" as="geometry" />
        </mxCell>
        <mxCell id="ucXKJVV_5cdbt2Cd6D2D-3" value="+ getDecoderPoints(): int" style="text;strokeColor=none;fillColor=none;align=left;verticalAlign=top;spacingLeft=4;spacingRight=4;overflow=hidden;rotatable=0;points=[[0,0.5],[1,0.5]];portConstraint=eastwest;whiteSpace=wrap;html=1;" vertex="1" parent="a-lBnfebaD4neExDsO_B-44">
          <mxGeometry y="327.5773195876289" width="350.7" height="26.670103092783503" as="geometry" />
        </mxCell>
        <mxCell id="0AKXrBJ4bUIqsCuSMHQm-24" value="+ setDecoder(Decoder): void" style="text;strokeColor=none;fillColor=none;align=left;verticalAlign=top;spacingLeft=4;spacingRight=4;overflow=hidden;rotatable=0;points=[[0,0.5],[1,0.5]];portConstraint=eastwest;whiteSpace=wrap;html=1;" parent="a-lBnfebaD4neExDsO_B-44" vertex="1">
          <mxGeometry y="354.2474226804124" width="350.7" height="26.670103092783503" as="geometry" />
        </mxCell>
        <mxCell id="0AKXrBJ4bUIqsCuSMHQm-25" value="+ setEncoder(Encoder): void" style="text;strokeColor=none;fillColor=none;align=left;verticalAlign=top;spacingLeft=4;spacingRight=4;overflow=hidden;rotatable=0;points=[[0,0.5],[1,0.5]];portConstraint=eastwest;whiteSpace=wrap;html=1;" parent="a-lBnfebaD4neExDsO_B-44" vertex="1">
          <mxGeometry y="380.9175257731959" width="350.7" height="26.670103092783503" as="geometry" />
        </mxCell>
        <mxCell id="a-lBnfebaD4neExDsO_B-54" value="+ getEncoder(): Encoder" style="text;strokeColor=none;fillColor=none;align=left;verticalAlign=top;spacingLeft=4;spacingRight=4;overflow=hidden;rotatable=0;points=[[0,0.5],[1,0.5]];portConstraint=eastwest;whiteSpace=wrap;html=1;" parent="a-lBnfebaD4neExDsO_B-44" vertex="1">
          <mxGeometry y="407.5876288659794" width="350.7" height="26.670103092783503" as="geometry" />
        </mxCell>
        <mxCell id="a-lBnfebaD4neExDsO_B-55" value="+ getDecoder(): Decoder" style="text;strokeColor=none;fillColor=none;align=left;verticalAlign=top;spacingLeft=4;spacingRight=4;overflow=hidden;rotatable=0;points=[[0,0.5],[1,0.5]];portConstraint=eastwest;whiteSpace=wrap;html=1;" parent="a-lBnfebaD4neExDsO_B-44" vertex="1">
          <mxGeometry y="434.2577319587629" width="350.7" height="26.670103092783503" as="geometry" />
        </mxCell>
        <mxCell id="a-lBnfebaD4neExDsO_B-56" value="+ getGame(): Game" style="text;strokeColor=none;fillColor=none;align=left;verticalAlign=top;spacingLeft=4;spacingRight=4;overflow=hidden;rotatable=0;points=[[0,0.5],[1,0.5]];portConstraint=eastwest;whiteSpace=wrap;html=1;" parent="a-lBnfebaD4neExDsO_B-44" vertex="1">
          <mxGeometry y="460.9278350515464" width="350.7" height="26.670103092783503" as="geometry" />
        </mxCell>
        <mxCell id="0AKXrBJ4bUIqsCuSMHQm-26" value="+ getColorList(): String[]" style="text;strokeColor=none;fillColor=none;align=left;verticalAlign=top;spacingLeft=4;spacingRight=4;overflow=hidden;rotatable=0;points=[[0,0.5],[1,0.5]];portConstraint=eastwest;whiteSpace=wrap;html=1;" parent="a-lBnfebaD4neExDsO_B-44" vertex="1">
          <mxGeometry y="487.59793814432993" width="350.7" height="26.670103092783503" as="geometry" />
        </mxCell>
        <mxCell id="0AKXrBJ4bUIqsCuSMHQm-27" value="+ initializeAttemptsLeft(): void" style="text;strokeColor=none;fillColor=none;align=left;verticalAlign=top;spacingLeft=4;spacingRight=4;overflow=hidden;rotatable=0;points=[[0,0.5],[1,0.5]];portConstraint=eastwest;whiteSpace=wrap;html=1;" parent="a-lBnfebaD4neExDsO_B-44" vertex="1">
          <mxGeometry y="514.2680412371134" width="350.7" height="26.670103092783503" as="geometry" />
        </mxCell>
        <mxCell id="ucXKJVV_5cdbt2Cd6D2D-4" value="+ getAttemptsLeft(): int" style="text;strokeColor=none;fillColor=none;align=left;verticalAlign=top;spacingLeft=4;spacingRight=4;overflow=hidden;rotatable=0;points=[[0,0.5],[1,0.5]];portConstraint=eastwest;whiteSpace=wrap;html=1;" vertex="1" parent="a-lBnfebaD4neExDsO_B-44">
          <mxGeometry y="540.9381443298969" width="350.7" height="26.670103092783503" as="geometry" />
        </mxCell>
        <mxCell id="ucXKJVV_5cdbt2Cd6D2D-5" value="+ startGame(): void" style="text;strokeColor=none;fillColor=none;align=left;verticalAlign=top;spacingLeft=4;spacingRight=4;overflow=hidden;rotatable=0;points=[[0,0.5],[1,0.5]];portConstraint=eastwest;whiteSpace=wrap;html=1;" vertex="1" parent="a-lBnfebaD4neExDsO_B-44">
          <mxGeometry y="567.6082474226804" width="350.7" height="26.670103092783503" as="geometry" />
        </mxCell>
        <mxCell id="ucXKJVV_5cdbt2Cd6D2D-6" value="+ endGame(): void" style="text;strokeColor=none;fillColor=none;align=left;verticalAlign=top;spacingLeft=4;spacingRight=4;overflow=hidden;rotatable=0;points=[[0,0.5],[1,0.5]];portConstraint=eastwest;whiteSpace=wrap;html=1;" vertex="1" parent="a-lBnfebaD4neExDsO_B-44">
          <mxGeometry y="594.2783505154639" width="350.7" height="26.670103092783503" as="geometry" />
        </mxCell>
        <mxCell id="ucXKJVV_5cdbt2Cd6D2D-7" value="+ getGameState(): String" style="text;strokeColor=none;fillColor=none;align=left;verticalAlign=top;spacingLeft=4;spacingRight=4;overflow=hidden;rotatable=0;points=[[0,0.5],[1,0.5]];portConstraint=eastwest;whiteSpace=wrap;html=1;" vertex="1" parent="a-lBnfebaD4neExDsO_B-44">
          <mxGeometry y="620.9484536082474" width="350.7" height="26.670103092783503" as="geometry" />
        </mxCell>
        <mxCell id="ucXKJVV_5cdbt2Cd6D2D-8" value="+ getThisGameId(): int" style="text;strokeColor=none;fillColor=none;align=left;verticalAlign=top;spacingLeft=4;spacingRight=4;overflow=hidden;rotatable=0;points=[[0,0.5],[1,0.5]];portConstraint=eastwest;whiteSpace=wrap;html=1;" vertex="1" parent="a-lBnfebaD4neExDsO_B-44">
          <mxGeometry y="647.6185567010309" width="350.7" height="26.670103092783503" as="geometry" />
        </mxCell>
        <mxCell id="ucXKJVV_5cdbt2Cd6D2D-13" value="+ getThisGameTotalAttempts(): int" style="text;strokeColor=none;fillColor=none;align=left;verticalAlign=top;spacingLeft=4;spacingRight=4;overflow=hidden;rotatable=0;points=[[0,0.5],[1,0.5]];portConstraint=eastwest;whiteSpace=wrap;html=1;" vertex="1" parent="a-lBnfebaD4neExDsO_B-44">
          <mxGeometry y="674.2886597938144" width="350.7" height="26.670103092783503" as="geometry" />
        </mxCell>
        <mxCell id="ucXKJVV_5cdbt2Cd6D2D-14" value="+ getThisGameAttemptsPlayed(): int" style="text;strokeColor=none;fillColor=none;align=left;verticalAlign=top;spacingLeft=4;spacingRight=4;overflow=hidden;rotatable=0;points=[[0,0.5],[1,0.5]];portConstraint=eastwest;whiteSpace=wrap;html=1;" vertex="1" parent="a-lBnfebaD4neExDsO_B-44">
          <mxGeometry y="700.9587628865979" width="350.7" height="26.670103092783503" as="geometry" />
        </mxCell>
        <mxCell id="0AKXrBJ4bUIqsCuSMHQm-29" value="+ hasAttemptsLeft(): Boolean" style="text;strokeColor=none;fillColor=none;align=left;verticalAlign=top;spacingLeft=4;spacingRight=4;overflow=hidden;rotatable=0;points=[[0,0.5],[1,0.5]];portConstraint=eastwest;whiteSpace=wrap;html=1;" parent="a-lBnfebaD4neExDsO_B-44" vertex="1">
          <mxGeometry y="727.6288659793814" width="350.7" height="26.670103092783503" as="geometry" />
        </mxCell>
        <mxCell id="xYpT5LmuNh0zjIPxlV9m-15" value="+ playTurn(): void" style="text;strokeColor=none;fillColor=none;align=left;verticalAlign=top;spacingLeft=4;spacingRight=4;overflow=hidden;rotatable=0;points=[[0,0.5],[1,0.5]];portConstraint=eastwest;whiteSpace=wrap;html=1;" parent="a-lBnfebaD4neExDsO_B-44" vertex="1">
          <mxGeometry y="754.2989690721649" width="350.7" height="26.670103092783503" as="geometry" />
        </mxCell>
        <mxCell id="xYpT5LmuNh0zjIPxlV9m-16" value="+ endTurn(): void" style="text;strokeColor=none;fillColor=none;align=left;verticalAlign=top;spacingLeft=4;spacingRight=4;overflow=hidden;rotatable=0;points=[[0,0.5],[1,0.5]];portConstraint=eastwest;whiteSpace=wrap;html=1;" parent="a-lBnfebaD4neExDsO_B-44" vertex="1">
          <mxGeometry y="780.9690721649484" width="350.7" height="26.670103092783503" as="geometry" />
        </mxCell>
        <mxCell id="ExXAvWjmY8paEHTybcyo-3" value="+ winGame(): void" style="text;strokeColor=none;fillColor=none;align=left;verticalAlign=top;spacingLeft=4;spacingRight=4;overflow=hidden;rotatable=0;points=[[0,0.5],[1,0.5]];portConstraint=eastwest;whiteSpace=wrap;html=1;" parent="a-lBnfebaD4neExDsO_B-44" vertex="1">
          <mxGeometry y="807.639175257732" width="350.7" height="26.670103092783503" as="geometry" />
        </mxCell>
        <mxCell id="ExXAvWjmY8paEHTybcyo-2" value="+ looseGame(): void" style="text;strokeColor=none;fillColor=none;align=left;verticalAlign=top;spacingLeft=4;spacingRight=4;overflow=hidden;rotatable=0;points=[[0,0.5],[1,0.5]];portConstraint=eastwest;whiteSpace=wrap;html=1;" parent="a-lBnfebaD4neExDsO_B-44" vertex="1">
          <mxGeometry y="834.3092783505155" width="350.7" height="26.670103092783503" as="geometry" />
        </mxCell>
        <mxCell id="xYpT5LmuNh0zjIPxlV9m-17" value="+ convertSecretCodeToString(): ArrayList&amp;lt;String&amp;gt;" style="text;strokeColor=none;fillColor=none;align=left;verticalAlign=top;spacingLeft=4;spacingRight=4;overflow=hidden;rotatable=0;points=[[0,0.5],[1,0.5]];portConstraint=eastwest;whiteSpace=wrap;html=1;" parent="a-lBnfebaD4neExDsO_B-44" vertex="1">
          <mxGeometry y="860.979381443299" width="350.7" height="26.670103092783503" as="geometry" />
        </mxCell>
        <mxCell id="sZfFJr8AC-p8yPcgq8WA-21" value="Observable" style="swimlane;fontStyle=1;align=center;verticalAlign=top;childLayout=stackLayout;horizontal=1;startSize=26;horizontalStack=0;resizeParent=1;resizeParentMax=0;resizeLast=0;collapsible=1;marginBottom=0;whiteSpace=wrap;html=1;" parent="a-lBnfebaD4neExDsO_B-24" vertex="1">
          <mxGeometry x="899.3" y="123.09278350515463" width="200" height="140.88659793814432" as="geometry" />
        </mxCell>
        <mxCell id="sZfFJr8AC-p8yPcgq8WA-22" value="- observers: Arraylist&amp;lt;Observer&amp;gt;" style="text;strokeColor=none;fillColor=none;align=left;verticalAlign=top;spacingLeft=4;spacingRight=4;overflow=hidden;rotatable=0;points=[[0,0.5],[1,0.5]];portConstraint=eastwest;whiteSpace=wrap;html=1;" parent="sZfFJr8AC-p8yPcgq8WA-21" vertex="1">
          <mxGeometry y="26" width="200" height="26.670103092783503" as="geometry" />
        </mxCell>
        <mxCell id="sZfFJr8AC-p8yPcgq8WA-23" value="" style="line;strokeWidth=1;fillColor=none;align=left;verticalAlign=middle;spacingTop=-1;spacingLeft=3;spacingRight=3;rotatable=0;labelPosition=right;points=[];portConstraint=eastwest;strokeColor=inherit;" parent="sZfFJr8AC-p8yPcgq8WA-21" vertex="1">
          <mxGeometry y="52.670103092783506" width="200" height="8.206185567010309" as="geometry" />
        </mxCell>
        <mxCell id="sZfFJr8AC-p8yPcgq8WA-24" value="+ addObserver(Observer): void" style="text;strokeColor=none;fillColor=none;align=left;verticalAlign=top;spacingLeft=4;spacingRight=4;overflow=hidden;rotatable=0;points=[[0,0.5],[1,0.5]];portConstraint=eastwest;whiteSpace=wrap;html=1;" parent="sZfFJr8AC-p8yPcgq8WA-21" vertex="1">
          <mxGeometry y="60.876288659793815" width="200" height="26.670103092783503" as="geometry" />
        </mxCell>
        <mxCell id="sZfFJr8AC-p8yPcgq8WA-25" value="+ removeObserver(Observer): void" style="text;strokeColor=none;fillColor=none;align=left;verticalAlign=top;spacingLeft=4;spacingRight=4;overflow=hidden;rotatable=0;points=[[0,0.5],[1,0.5]];portConstraint=eastwest;whiteSpace=wrap;html=1;" parent="sZfFJr8AC-p8yPcgq8WA-21" vertex="1">
          <mxGeometry y="87.54639175257732" width="200" height="26.670103092783503" as="geometry" />
        </mxCell>
        <mxCell id="sZfFJr8AC-p8yPcgq8WA-27" value="+ notify(int[], int): void" style="text;strokeColor=none;fillColor=none;align=left;verticalAlign=top;spacingLeft=4;spacingRight=4;overflow=hidden;rotatable=0;points=[[0,0.5],[1,0.5]];portConstraint=eastwest;whiteSpace=wrap;html=1;" parent="sZfFJr8AC-p8yPcgq8WA-21" vertex="1">
          <mxGeometry y="114.21649484536083" width="200" height="26.670103092783503" as="geometry" />
        </mxCell>
        <mxCell id="sZfFJr8AC-p8yPcgq8WA-28" value="" style="html=1;verticalAlign=bottom;endArrow=block;curved=0;rounded=0;" parent="a-lBnfebaD4neExDsO_B-24" source="a-lBnfebaD4neExDsO_B-44" target="sZfFJr8AC-p8yPcgq8WA-21" edge="1">
          <mxGeometry width="80" relative="1" as="geometry">
            <mxPoint x="1279.3" y="235.92783505154637" as="sourcePoint" />
            <mxPoint x="1359.3" y="235.92783505154637" as="targetPoint" />
            <Array as="points">
              <mxPoint x="1244.3" y="194.89690721649484" />
            </Array>
          </mxGeometry>
        </mxCell>
        <mxCell id="sZfFJr8AC-p8yPcgq8WA-46" value="Extends" style="endArrow=block;endSize=16;endFill=0;html=1;rounded=0;" parent="a-lBnfebaD4neExDsO_B-24" source="a-lBnfebaD4neExDsO_B-27" target="sZfFJr8AC-p8yPcgq8WA-21" edge="1">
          <mxGeometry width="160" relative="1" as="geometry">
            <mxPoint x="679.3" y="235.92783505154637" as="sourcePoint" />
            <mxPoint x="839.3" y="235.92783505154637" as="targetPoint" />
            <Array as="points">
              <mxPoint x="399.3" y="348.7628865979381" />
              <mxPoint x="999.3" y="348.7628865979381" />
            </Array>
          </mxGeometry>
        </mxCell>
        <mxCell id="TmO1mP3xWZ-vTGTIXcNk-13" value="Colors &amp;lt;Enum&amp;gt;" style="swimlane;fontStyle=1;align=center;verticalAlign=top;childLayout=stackLayout;horizontal=1;startSize=26;horizontalStack=0;resizeParent=1;resizeParentMax=0;resizeLast=0;collapsible=1;marginBottom=0;whiteSpace=wrap;html=1;" parent="a-lBnfebaD4neExDsO_B-24" vertex="1">
          <mxGeometry x="369.29999999999995" y="1347.8659793814431" width="160" height="140.88659793814432" as="geometry" />
        </mxCell>
        <mxCell id="TmO1mP3xWZ-vTGTIXcNk-17" value="- colorName: String" style="text;strokeColor=none;fillColor=none;align=left;verticalAlign=top;spacingLeft=4;spacingRight=4;overflow=hidden;rotatable=0;points=[[0,0.5],[1,0.5]];portConstraint=eastwest;whiteSpace=wrap;html=1;" parent="TmO1mP3xWZ-vTGTIXcNk-13" vertex="1">
          <mxGeometry y="26" width="160" height="26.670103092783503" as="geometry" />
        </mxCell>
        <mxCell id="TmO1mP3xWZ-vTGTIXcNk-14" value="- rgbColor: Color" style="text;strokeColor=none;fillColor=none;align=left;verticalAlign=top;spacingLeft=4;spacingRight=4;overflow=hidden;rotatable=0;points=[[0,0.5],[1,0.5]];portConstraint=eastwest;whiteSpace=wrap;html=1;" parent="TmO1mP3xWZ-vTGTIXcNk-13" vertex="1">
          <mxGeometry y="52.670103092783506" width="160" height="26.670103092783503" as="geometry" />
        </mxCell>
        <mxCell id="TmO1mP3xWZ-vTGTIXcNk-15" value="" style="line;strokeWidth=1;fillColor=none;align=left;verticalAlign=middle;spacingTop=-1;spacingLeft=3;spacingRight=3;rotatable=0;labelPosition=right;points=[];portConstraint=eastwest;strokeColor=inherit;" parent="TmO1mP3xWZ-vTGTIXcNk-13" vertex="1">
          <mxGeometry y="79.34020618556701" width="160" height="8.206185567010309" as="geometry" />
        </mxCell>
        <mxCell id="TmO1mP3xWZ-vTGTIXcNk-18" value="+ getColorName(): String" style="text;strokeColor=none;fillColor=none;align=left;verticalAlign=top;spacingLeft=4;spacingRight=4;overflow=hidden;rotatable=0;points=[[0,0.5],[1,0.5]];portConstraint=eastwest;whiteSpace=wrap;html=1;" parent="TmO1mP3xWZ-vTGTIXcNk-13" vertex="1">
          <mxGeometry y="87.54639175257732" width="160" height="26.670103092783503" as="geometry" />
        </mxCell>
        <mxCell id="TmO1mP3xWZ-vTGTIXcNk-16" value="+ getRgbColor(): Color" style="text;strokeColor=none;fillColor=none;align=left;verticalAlign=top;spacingLeft=4;spacingRight=4;overflow=hidden;rotatable=0;points=[[0,0.5],[1,0.5]];portConstraint=eastwest;whiteSpace=wrap;html=1;" parent="TmO1mP3xWZ-vTGTIXcNk-13" vertex="1">
          <mxGeometry y="114.21649484536083" width="160" height="26.670103092783503" as="geometry" />
        </mxCell>
        <mxCell id="TmO1mP3xWZ-vTGTIXcNk-24" value="&lt;p style=&quot;margin:0px;margin-top:4px;text-align:center;&quot;&gt;&lt;i&gt;&amp;lt;&amp;lt;Interface&amp;gt;&amp;gt;&lt;/i&gt;&lt;br&gt;&lt;b&gt;EncoderStrategy&lt;/b&gt;&lt;/p&gt;&lt;hr size=&quot;1&quot;&gt;&lt;p style=&quot;margin:0px;margin-left:4px;&quot;&gt;+ generateSecretCode(): void&lt;/p&gt;&lt;p style=&quot;margin:0px;margin-left:4px;&quot;&gt;+ setSecretCode(ArrayList&amp;lt;Color&amp;gt;): void&lt;/p&gt;&lt;p style=&quot;margin:0px;margin-left:4px;&quot;&gt;+ evaluateSequence(ArrayList&amp;lt;Color&amp;gt;): int[]&lt;/p&gt;&lt;p style=&quot;margin:0px;margin-left:4px;&quot;&gt;+ getSecretCode(): ArrayList&amp;lt;Color&amp;gt;&lt;br&gt;&lt;br&gt;&lt;/p&gt;" style="verticalAlign=top;align=left;overflow=fill;fontSize=12;fontFamily=Helvetica;html=1;whiteSpace=wrap;" parent="a-lBnfebaD4neExDsO_B-24" vertex="1">
          <mxGeometry x="474.3" y="923.1958762886597" width="240.7" height="112.83505154639174" as="geometry" />
        </mxCell>
        <mxCell id="TmO1mP3xWZ-vTGTIXcNk-25" value="Use" style="endArrow=open;endSize=12;dashed=1;html=1;rounded=0;entryX=0.5;entryY=0;entryDx=0;entryDy=0;" parent="a-lBnfebaD4neExDsO_B-24" source="a-lBnfebaD4neExDsO_B-12" target="TmO1mP3xWZ-vTGTIXcNk-24" edge="1">
          <mxGeometry x="-0.0316" width="160" relative="1" as="geometry">
            <mxPoint x="589.3" y="820.6185567010309" as="sourcePoint" />
            <mxPoint x="909.3" y="779.5876288659794" as="targetPoint" />
            <mxPoint as="offset" />
          </mxGeometry>
        </mxCell>
        <mxCell id="TmO1mP3xWZ-vTGTIXcNk-26" value="ManualEncoder" style="swimlane;fontStyle=1;align=center;verticalAlign=top;childLayout=stackLayout;horizontal=1;startSize=26;horizontalStack=0;resizeParent=1;resizeParentMax=0;resizeLast=0;collapsible=1;marginBottom=0;whiteSpace=wrap;html=1;" parent="a-lBnfebaD4neExDsO_B-24" vertex="1">
          <mxGeometry x="379.3" y="1128.3505154639174" width="210" height="60.876288659793815" as="geometry" />
        </mxCell>
        <mxCell id="TmO1mP3xWZ-vTGTIXcNk-27" value="- secretCode: ArrayList&amp;lt;Color&amp;gt;" style="text;strokeColor=none;fillColor=none;align=left;verticalAlign=top;spacingLeft=4;spacingRight=4;overflow=hidden;rotatable=0;points=[[0,0.5],[1,0.5]];portConstraint=eastwest;whiteSpace=wrap;html=1;" parent="TmO1mP3xWZ-vTGTIXcNk-26" vertex="1">
          <mxGeometry y="26" width="210" height="26.670103092783503" as="geometry" />
        </mxCell>
        <mxCell id="TmO1mP3xWZ-vTGTIXcNk-28" value="" style="line;strokeWidth=1;fillColor=none;align=left;verticalAlign=middle;spacingTop=-1;spacingLeft=3;spacingRight=3;rotatable=0;labelPosition=right;points=[];portConstraint=eastwest;strokeColor=inherit;" parent="TmO1mP3xWZ-vTGTIXcNk-26" vertex="1">
          <mxGeometry y="52.670103092783506" width="210" height="8.206185567010309" as="geometry" />
        </mxCell>
        <mxCell id="TmO1mP3xWZ-vTGTIXcNk-30" value="AutoEncoder" style="swimlane;fontStyle=1;align=center;verticalAlign=top;childLayout=stackLayout;horizontal=1;startSize=26;horizontalStack=0;resizeParent=1;resizeParentMax=0;resizeLast=0;collapsible=1;marginBottom=0;whiteSpace=wrap;html=1;" parent="a-lBnfebaD4neExDsO_B-24" vertex="1">
          <mxGeometry x="609.3" y="1128.3505154639174" width="210" height="60.876288659793815" as="geometry" />
        </mxCell>
        <mxCell id="TmO1mP3xWZ-vTGTIXcNk-31" value="- secretCode: ArrayList&amp;lt;Color&amp;gt;" style="text;strokeColor=none;fillColor=none;align=left;verticalAlign=top;spacingLeft=4;spacingRight=4;overflow=hidden;rotatable=0;points=[[0,0.5],[1,0.5]];portConstraint=eastwest;whiteSpace=wrap;html=1;" parent="TmO1mP3xWZ-vTGTIXcNk-30" vertex="1">
          <mxGeometry y="26" width="210" height="26.670103092783503" as="geometry" />
        </mxCell>
        <mxCell id="TmO1mP3xWZ-vTGTIXcNk-32" value="" style="line;strokeWidth=1;fillColor=none;align=left;verticalAlign=middle;spacingTop=-1;spacingLeft=3;spacingRight=3;rotatable=0;labelPosition=right;points=[];portConstraint=eastwest;strokeColor=inherit;" parent="TmO1mP3xWZ-vTGTIXcNk-30" vertex="1">
          <mxGeometry y="52.670103092783506" width="210" height="8.206185567010309" as="geometry" />
        </mxCell>
        <mxCell id="TmO1mP3xWZ-vTGTIXcNk-33" value="" style="endArrow=block;dashed=1;endFill=0;endSize=12;html=1;rounded=0;exitX=0.75;exitY=0;exitDx=0;exitDy=0;entryX=0.25;entryY=1;entryDx=0;entryDy=0;" parent="a-lBnfebaD4neExDsO_B-24" source="TmO1mP3xWZ-vTGTIXcNk-26" target="TmO1mP3xWZ-vTGTIXcNk-24" edge="1">
          <mxGeometry width="160" relative="1" as="geometry">
            <mxPoint x="749.3" y="964.2268041237113" as="sourcePoint" />
            <mxPoint x="909.3" y="964.2268041237113" as="targetPoint" />
          </mxGeometry>
        </mxCell>
        <mxCell id="TmO1mP3xWZ-vTGTIXcNk-34" value="" style="endArrow=block;dashed=1;endFill=0;endSize=12;html=1;rounded=0;exitX=0.25;exitY=0;exitDx=0;exitDy=0;entryX=0.775;entryY=0.995;entryDx=0;entryDy=0;entryPerimeter=0;" parent="a-lBnfebaD4neExDsO_B-24" source="TmO1mP3xWZ-vTGTIXcNk-30" target="TmO1mP3xWZ-vTGTIXcNk-24" edge="1">
          <mxGeometry width="160" relative="1" as="geometry">
            <mxPoint x="699.3" y="933.4536082474226" as="sourcePoint" />
            <mxPoint x="859.3" y="933.4536082474226" as="targetPoint" />
          </mxGeometry>
        </mxCell>
        <mxCell id="TmO1mP3xWZ-vTGTIXcNk-35" value="Use" style="endArrow=open;endSize=12;dashed=1;html=1;rounded=0;" parent="a-lBnfebaD4neExDsO_B-24" source="a-lBnfebaD4neExDsO_B-44" target="TmO1mP3xWZ-vTGTIXcNk-30" edge="1">
          <mxGeometry width="160" relative="1" as="geometry">
            <mxPoint x="1029.3" y="1159.123711340206" as="sourcePoint" />
            <mxPoint x="999.3" y="841.1340206185566" as="targetPoint" />
            <Array as="points">
              <mxPoint x="849.3" y="1015.5154639175257" />
            </Array>
          </mxGeometry>
        </mxCell>
        <mxCell id="xYpT5LmuNh0zjIPxlV9m-1" value="&amp;lt;&amp;lt;Enum&amp;gt;&amp;gt;&lt;br&gt;Difficulty" style="swimlane;fontStyle=1;align=center;verticalAlign=top;childLayout=stackLayout;horizontal=1;startSize=40;horizontalStack=0;resizeParent=1;resizeParentMax=0;resizeLast=0;collapsible=1;marginBottom=0;whiteSpace=wrap;html=1;" parent="a-lBnfebaD4neExDsO_B-24" vertex="1">
          <mxGeometry x="639.3" y="1347.8659793814431" width="160" height="154.88659793814432" as="geometry" />
        </mxCell>
        <mxCell id="xYpT5LmuNh0zjIPxlV9m-5" value="- attempts: int" style="text;strokeColor=none;fillColor=none;align=left;verticalAlign=top;spacingLeft=4;spacingRight=4;overflow=hidden;rotatable=0;points=[[0,0.5],[1,0.5]];portConstraint=eastwest;whiteSpace=wrap;html=1;" parent="xYpT5LmuNh0zjIPxlV9m-1" vertex="1">
          <mxGeometry y="40" width="160" height="26.670103092783503" as="geometry" />
        </mxCell>
        <mxCell id="leNs4Q04AgKeH0ur-R9n-138" value="- points: int" style="text;strokeColor=none;fillColor=none;align=left;verticalAlign=top;spacingLeft=4;spacingRight=4;overflow=hidden;rotatable=0;points=[[0,0.5],[1,0.5]];portConstraint=eastwest;whiteSpace=wrap;html=1;" parent="xYpT5LmuNh0zjIPxlV9m-1" vertex="1">
          <mxGeometry y="66.6701030927835" width="160" height="26.670103092783503" as="geometry" />
        </mxCell>
        <mxCell id="xYpT5LmuNh0zjIPxlV9m-3" value="" style="line;strokeWidth=1;fillColor=none;align=left;verticalAlign=middle;spacingTop=-1;spacingLeft=3;spacingRight=3;rotatable=0;labelPosition=right;points=[];portConstraint=eastwest;strokeColor=inherit;" parent="xYpT5LmuNh0zjIPxlV9m-1" vertex="1">
          <mxGeometry y="93.34020618556701" width="160" height="8.206185567010309" as="geometry" />
        </mxCell>
        <mxCell id="xYpT5LmuNh0zjIPxlV9m-6" value="+ getAttempts(): int" style="text;strokeColor=none;fillColor=none;align=left;verticalAlign=top;spacingLeft=4;spacingRight=4;overflow=hidden;rotatable=0;points=[[0,0.5],[1,0.5]];portConstraint=eastwest;whiteSpace=wrap;html=1;" parent="xYpT5LmuNh0zjIPxlV9m-1" vertex="1">
          <mxGeometry y="101.54639175257732" width="160" height="26.670103092783503" as="geometry" />
        </mxCell>
        <mxCell id="leNs4Q04AgKeH0ur-R9n-139" value="+ getPoints(): int" style="text;strokeColor=none;fillColor=none;align=left;verticalAlign=top;spacingLeft=4;spacingRight=4;overflow=hidden;rotatable=0;points=[[0,0.5],[1,0.5]];portConstraint=eastwest;whiteSpace=wrap;html=1;" parent="xYpT5LmuNh0zjIPxlV9m-1" vertex="1">
          <mxGeometry y="128.2164948453608" width="160" height="26.670103092783503" as="geometry" />
        </mxCell>
        <mxCell id="0AKXrBJ4bUIqsCuSMHQm-2" value="ConcreteGameEntitiesFactory" style="swimlane;fontStyle=1;align=center;verticalAlign=top;childLayout=stackLayout;horizontal=1;startSize=26;horizontalStack=0;resizeParent=1;resizeParentMax=0;resizeLast=0;collapsible=1;marginBottom=0;whiteSpace=wrap;html=1;" parent="a-lBnfebaD4neExDsO_B-24" vertex="1">
          <mxGeometry x="60" y="943.7113402061855" width="210" height="34.20618556701031" as="geometry" />
        </mxCell>
        <mxCell id="0AKXrBJ4bUIqsCuSMHQm-4" value="" style="line;strokeWidth=1;fillColor=none;align=left;verticalAlign=middle;spacingTop=-1;spacingLeft=3;spacingRight=3;rotatable=0;labelPosition=right;points=[];portConstraint=eastwest;strokeColor=inherit;" parent="0AKXrBJ4bUIqsCuSMHQm-2" vertex="1">
          <mxGeometry y="26" width="210" height="8.206185567010309" as="geometry" />
        </mxCell>
        <mxCell id="0AKXrBJ4bUIqsCuSMHQm-6" value="&lt;p style=&quot;margin:0px;margin-top:4px;text-align:center;&quot;&gt;&lt;i&gt;&amp;lt;&amp;lt;Interface&amp;gt;&amp;gt;&lt;/i&gt;&lt;br&gt;&lt;b&gt;GameEntitiesFactory&lt;/b&gt;&lt;/p&gt;&lt;hr size=&quot;1&quot;&gt;&lt;p style=&quot;margin:0px;margin-left:4px;&quot;&gt;+ createEncoder(String): Encoder&lt;br&gt;+ createDecoder(String): Decoder&lt;/p&gt;&lt;p style=&quot;margin:0px;margin-left:4px;&quot;&gt;+ createGame(): Game&lt;/p&gt;" style="verticalAlign=top;align=left;overflow=fill;fontSize=12;fontFamily=Helvetica;html=1;whiteSpace=wrap;" parent="a-lBnfebaD4neExDsO_B-24" vertex="1">
          <mxGeometry x="70" y="738.5567010309278" width="190" height="102.57731958762886" as="geometry" />
        </mxCell>
        <mxCell id="0AKXrBJ4bUIqsCuSMHQm-7" value="" style="endArrow=block;dashed=1;endFill=0;endSize=12;html=1;rounded=0;" parent="a-lBnfebaD4neExDsO_B-24" source="0AKXrBJ4bUIqsCuSMHQm-2" target="0AKXrBJ4bUIqsCuSMHQm-6" edge="1">
          <mxGeometry width="160" relative="1" as="geometry">
            <mxPoint x="939.3" y="1661.7525773195875" as="sourcePoint" />
            <mxPoint x="1099.3" y="1661.7525773195875" as="targetPoint" />
          </mxGeometry>
        </mxCell>
        <mxCell id="0AKXrBJ4bUIqsCuSMHQm-56" value="1" style="text;align=center;fontStyle=1;verticalAlign=middle;spacingLeft=3;spacingRight=3;strokeColor=none;rotatable=0;points=[[0,0.5],[1,0.5]];portConstraint=eastwest;html=1;" parent="a-lBnfebaD4neExDsO_B-24" vertex="1">
          <mxGeometry x="1403" y="308.75773195876286" width="20" height="26.670103092783503" as="geometry" />
        </mxCell>
        <mxCell id="leNs4Q04AgKeH0ur-R9n-126" value="1" style="text;align=center;fontStyle=1;verticalAlign=middle;spacingLeft=3;spacingRight=3;strokeColor=none;rotatable=0;points=[[0,0.5],[1,0.5]];portConstraint=eastwest;html=1;" parent="a-lBnfebaD4neExDsO_B-24" vertex="1">
          <mxGeometry x="264" y="413.09938144329897" width="20" height="26.670103092783503" as="geometry" />
        </mxCell>
        <mxCell id="leNs4Q04AgKeH0ur-R9n-134" value="1" style="text;align=center;fontStyle=1;verticalAlign=middle;spacingLeft=3;spacingRight=3;strokeColor=none;rotatable=0;points=[[0,0.5],[1,0.5]];portConstraint=eastwest;html=1;" parent="a-lBnfebaD4neExDsO_B-24" vertex="1">
          <mxGeometry x="724" y="503.65463917525767" width="20" height="26.670103092783503" as="geometry" />
        </mxCell>
        <mxCell id="leNs4Q04AgKeH0ur-R9n-135" value="Use" style="endArrow=open;endSize=12;dashed=1;html=1;rounded=0;" parent="a-lBnfebaD4neExDsO_B-24" source="TmO1mP3xWZ-vTGTIXcNk-30" target="TmO1mP3xWZ-vTGTIXcNk-13" edge="1">
          <mxGeometry width="160" relative="1" as="geometry">
            <mxPoint x="669.3" y="1189.8969072164948" as="sourcePoint" />
            <mxPoint x="829.3" y="1189.8969072164948" as="targetPoint" />
          </mxGeometry>
        </mxCell>
        <mxCell id="leNs4Q04AgKeH0ur-R9n-136" value="Use" style="endArrow=open;endSize=12;dashed=1;html=1;rounded=0;" parent="a-lBnfebaD4neExDsO_B-24" source="a-lBnfebaD4neExDsO_B-44" target="TmO1mP3xWZ-vTGTIXcNk-13" edge="1">
          <mxGeometry width="160" relative="1" as="geometry">
            <mxPoint x="749.3" y="1118.0927835051546" as="sourcePoint" />
            <mxPoint x="909.3" y="1118.0927835051546" as="targetPoint" />
            <Array as="points">
              <mxPoint x="829.3" y="1210" />
            </Array>
          </mxGeometry>
        </mxCell>
        <mxCell id="leNs4Q04AgKeH0ur-R9n-140" value="Use" style="endArrow=open;endSize=12;dashed=1;html=1;rounded=0;" parent="a-lBnfebaD4neExDsO_B-24" source="a-lBnfebaD4neExDsO_B-44" target="xYpT5LmuNh0zjIPxlV9m-1" edge="1">
          <mxGeometry width="160" relative="1" as="geometry">
            <mxPoint x="809.3" y="1312.9896907216494" as="sourcePoint" />
            <mxPoint x="969.3" y="1312.9896907216494" as="targetPoint" />
          </mxGeometry>
        </mxCell>
        <mxCell id="leNs4Q04AgKeH0ur-R9n-141" value="Use" style="endArrow=open;endSize=12;dashed=1;html=1;rounded=0;" parent="a-lBnfebaD4neExDsO_B-24" source="a-lBnfebaD4neExDsO_B-38" target="xYpT5LmuNh0zjIPxlV9m-1" edge="1">
          <mxGeometry width="160" relative="1" as="geometry">
            <mxPoint x="809.3" y="1395.0515463917525" as="sourcePoint" />
            <mxPoint x="969.3" y="1395.0515463917525" as="targetPoint" />
            <Array as="points">
              <mxPoint x="989.3" y="1425" />
            </Array>
          </mxGeometry>
        </mxCell>
        <mxCell id="leNs4Q04AgKeH0ur-R9n-150" value="SequencesStorage" style="swimlane;fontStyle=1;align=center;verticalAlign=top;childLayout=stackLayout;horizontal=1;startSize=26;horizontalStack=0;resizeParent=1;resizeParentMax=0;resizeLast=0;collapsible=1;marginBottom=0;whiteSpace=wrap;html=1;" parent="a-lBnfebaD4neExDsO_B-24" vertex="1">
          <mxGeometry x="539.3" y="1750.9998969072165" width="240" height="167.55670103092783" as="geometry" />
        </mxCell>
        <mxCell id="leNs4Q04AgKeH0ur-R9n-154" value="- instance: SequencesStorage" style="text;strokeColor=none;fillColor=none;align=left;verticalAlign=top;spacingLeft=4;spacingRight=4;overflow=hidden;rotatable=0;points=[[0,0.5],[1,0.5]];portConstraint=eastwest;whiteSpace=wrap;html=1;" parent="leNs4Q04AgKeH0ur-R9n-150" vertex="1">
          <mxGeometry y="26" width="240" height="26.670103092783503" as="geometry" />
        </mxCell>
        <mxCell id="leNs4Q04AgKeH0ur-R9n-151" value="- sequences: ArrayList&amp;lt;ArrayList&amp;lt;Color&amp;gt;&amp;gt;" style="text;strokeColor=none;fillColor=none;align=left;verticalAlign=top;spacingLeft=4;spacingRight=4;overflow=hidden;rotatable=0;points=[[0,0.5],[1,0.5]];portConstraint=eastwest;whiteSpace=wrap;html=1;" parent="leNs4Q04AgKeH0ur-R9n-150" vertex="1">
          <mxGeometry y="52.670103092783506" width="240" height="26.670103092783503" as="geometry" />
        </mxCell>
        <mxCell id="leNs4Q04AgKeH0ur-R9n-152" value="" style="line;strokeWidth=1;fillColor=none;align=left;verticalAlign=middle;spacingTop=-1;spacingLeft=3;spacingRight=3;rotatable=0;labelPosition=right;points=[];portConstraint=eastwest;strokeColor=inherit;" parent="leNs4Q04AgKeH0ur-R9n-150" vertex="1">
          <mxGeometry y="79.34020618556701" width="240" height="8.206185567010309" as="geometry" />
        </mxCell>
        <mxCell id="leNs4Q04AgKeH0ur-R9n-155" value="+ getInstance(): SequencesStorage" style="text;strokeColor=none;fillColor=none;align=left;verticalAlign=top;spacingLeft=4;spacingRight=4;overflow=hidden;rotatable=0;points=[[0,0.5],[1,0.5]];portConstraint=eastwest;whiteSpace=wrap;html=1;" parent="leNs4Q04AgKeH0ur-R9n-150" vertex="1">
          <mxGeometry y="87.54639175257732" width="240" height="26.670103092783503" as="geometry" />
        </mxCell>
        <mxCell id="leNs4Q04AgKeH0ur-R9n-153" value="+ addSequence(ArrayList&amp;lt;Color&amp;gt;): void" style="text;strokeColor=none;fillColor=none;align=left;verticalAlign=top;spacingLeft=4;spacingRight=4;overflow=hidden;rotatable=0;points=[[0,0.5],[1,0.5]];portConstraint=eastwest;whiteSpace=wrap;html=1;" parent="leNs4Q04AgKeH0ur-R9n-150" vertex="1">
          <mxGeometry y="114.21649484536083" width="240" height="26.670103092783503" as="geometry" />
        </mxCell>
        <mxCell id="leNs4Q04AgKeH0ur-R9n-156" value="+ getSequences(): ArrayList&amp;lt;&amp;gt;" style="text;strokeColor=none;fillColor=none;align=left;verticalAlign=top;spacingLeft=4;spacingRight=4;overflow=hidden;rotatable=0;points=[[0,0.5],[1,0.5]];portConstraint=eastwest;whiteSpace=wrap;html=1;" parent="leNs4Q04AgKeH0ur-R9n-150" vertex="1">
          <mxGeometry y="140.88659793814432" width="240" height="26.670103092783503" as="geometry" />
        </mxCell>
        <mxCell id="leNs4Q04AgKeH0ur-R9n-142" value="HintsStorage" style="swimlane;fontStyle=1;align=center;verticalAlign=top;childLayout=stackLayout;horizontal=1;startSize=26;horizontalStack=0;resizeParent=1;resizeParentMax=0;resizeLast=0;collapsible=1;marginBottom=0;whiteSpace=wrap;html=1;" parent="a-lBnfebaD4neExDsO_B-24" vertex="1">
          <mxGeometry x="339.29999999999995" y="1750.9997938144327" width="170" height="194.22680412371133" as="geometry" />
        </mxCell>
        <mxCell id="leNs4Q04AgKeH0ur-R9n-143" value="- instance: HintsStorage" style="text;strokeColor=none;fillColor=none;align=left;verticalAlign=top;spacingLeft=4;spacingRight=4;overflow=hidden;rotatable=0;points=[[0,0.5],[1,0.5]];portConstraint=eastwest;whiteSpace=wrap;html=1;" parent="leNs4Q04AgKeH0ur-R9n-142" vertex="1">
          <mxGeometry y="26" width="170" height="26.670103092783503" as="geometry" />
        </mxCell>
        <mxCell id="leNs4Q04AgKeH0ur-R9n-146" value="- hints: int[][]" style="text;strokeColor=none;fillColor=none;align=left;verticalAlign=top;spacingLeft=4;spacingRight=4;overflow=hidden;rotatable=0;points=[[0,0.5],[1,0.5]];portConstraint=eastwest;whiteSpace=wrap;html=1;" parent="leNs4Q04AgKeH0ur-R9n-142" vertex="1">
          <mxGeometry y="52.670103092783506" width="170" height="26.670103092783503" as="geometry" />
        </mxCell>
        <mxCell id="leNs4Q04AgKeH0ur-R9n-144" value="" style="line;strokeWidth=1;fillColor=none;align=left;verticalAlign=middle;spacingTop=-1;spacingLeft=3;spacingRight=3;rotatable=0;labelPosition=right;points=[];portConstraint=eastwest;strokeColor=inherit;" parent="leNs4Q04AgKeH0ur-R9n-142" vertex="1">
          <mxGeometry y="79.34020618556701" width="170" height="8.206185567010309" as="geometry" />
        </mxCell>
        <mxCell id="leNs4Q04AgKeH0ur-R9n-145" value="+ getInstance(): HintsStorage" style="text;strokeColor=none;fillColor=none;align=left;verticalAlign=top;spacingLeft=4;spacingRight=4;overflow=hidden;rotatable=0;points=[[0,0.5],[1,0.5]];portConstraint=eastwest;whiteSpace=wrap;html=1;" parent="leNs4Q04AgKeH0ur-R9n-142" vertex="1">
          <mxGeometry y="87.54639175257732" width="170" height="26.670103092783503" as="geometry" />
        </mxCell>
        <mxCell id="leNs4Q04AgKeH0ur-R9n-147" value="+ initializeHints(int): void" style="text;strokeColor=none;fillColor=none;align=left;verticalAlign=top;spacingLeft=4;spacingRight=4;overflow=hidden;rotatable=0;points=[[0,0.5],[1,0.5]];portConstraint=eastwest;whiteSpace=wrap;html=1;" parent="leNs4Q04AgKeH0ur-R9n-142" vertex="1">
          <mxGeometry y="114.21649484536083" width="170" height="26.670103092783503" as="geometry" />
        </mxCell>
        <mxCell id="leNs4Q04AgKeH0ur-R9n-148" value="+ addHint(int, int[]): void" style="text;strokeColor=none;fillColor=none;align=left;verticalAlign=top;spacingLeft=4;spacingRight=4;overflow=hidden;rotatable=0;points=[[0,0.5],[1,0.5]];portConstraint=eastwest;whiteSpace=wrap;html=1;" parent="leNs4Q04AgKeH0ur-R9n-142" vertex="1">
          <mxGeometry y="140.88659793814432" width="170" height="26.670103092783503" as="geometry" />
        </mxCell>
        <mxCell id="leNs4Q04AgKeH0ur-R9n-149" value="+ getLastHint(): int[]" style="text;strokeColor=none;fillColor=none;align=left;verticalAlign=top;spacingLeft=4;spacingRight=4;overflow=hidden;rotatable=0;points=[[0,0.5],[1,0.5]];portConstraint=eastwest;whiteSpace=wrap;html=1;" parent="leNs4Q04AgKeH0ur-R9n-142" vertex="1">
          <mxGeometry y="167.55670103092783" width="170" height="26.670103092783503" as="geometry" />
        </mxCell>
        <mxCell id="leNs4Q04AgKeH0ur-R9n-157" value="gestisce sequenze&lt;br&gt;tramite" style="endArrow=block;endFill=1;html=1;edgeStyle=orthogonalEdgeStyle;align=left;verticalAlign=top;rounded=0;" parent="a-lBnfebaD4neExDsO_B-24" source="a-lBnfebaD4neExDsO_B-38" target="leNs4Q04AgKeH0ur-R9n-150" edge="1">
          <mxGeometry x="0.5054" y="17" relative="1" as="geometry">
            <mxPoint x="1199.3" y="1743.8144329896907" as="sourcePoint" />
            <mxPoint x="1359.3" y="1743.8144329896907" as="targetPoint" />
            <mxPoint x="-12" y="-17" as="offset" />
            <Array as="points">
              <mxPoint x="959" y="1700" />
              <mxPoint x="959" y="1835" />
            </Array>
          </mxGeometry>
        </mxCell>
        <mxCell id="leNs4Q04AgKeH0ur-R9n-158" value="1...1" style="edgeLabel;resizable=0;html=1;align=left;verticalAlign=bottom;" parent="leNs4Q04AgKeH0ur-R9n-157" connectable="0" vertex="1">
          <mxGeometry x="-1" relative="1" as="geometry">
            <mxPoint x="25" y="56" as="offset" />
          </mxGeometry>
        </mxCell>
        <mxCell id="leNs4Q04AgKeH0ur-R9n-159" value="gestisce indizi&lt;br&gt;tramite" style="endArrow=block;endFill=1;html=1;edgeStyle=orthogonalEdgeStyle;align=left;verticalAlign=top;rounded=0;" parent="a-lBnfebaD4neExDsO_B-24" source="a-lBnfebaD4neExDsO_B-38" target="leNs4Q04AgKeH0ur-R9n-142" edge="1">
          <mxGeometry x="0.9043" y="15" relative="1" as="geometry">
            <mxPoint x="1089.3" y="1764.3298969072164" as="sourcePoint" />
            <mxPoint x="1249.3" y="1764.3298969072164" as="targetPoint" />
            <Array as="points">
              <mxPoint x="424" y="1640" />
            </Array>
            <mxPoint as="offset" />
          </mxGeometry>
        </mxCell>
        <mxCell id="leNs4Q04AgKeH0ur-R9n-160" value="1...1" style="edgeLabel;resizable=0;html=1;align=left;verticalAlign=bottom;" parent="leNs4Q04AgKeH0ur-R9n-159" connectable="0" vertex="1">
          <mxGeometry x="-1" relative="1" as="geometry">
            <mxPoint x="-741" y="133" as="offset" />
          </mxGeometry>
        </mxCell>
        <mxCell id="leNs4Q04AgKeH0ur-R9n-161" value="1" style="text;align=center;fontStyle=1;verticalAlign=middle;spacingLeft=3;spacingRight=3;strokeColor=none;rotatable=0;points=[[0,0.5],[1,0.5]];portConstraint=eastwest;html=1;" parent="a-lBnfebaD4neExDsO_B-24" vertex="1">
          <mxGeometry x="763.3" y="1748.0010309278348" width="20" height="26.670103092783503" as="geometry" />
        </mxCell>
        <mxCell id="leNs4Q04AgKeH0ur-R9n-162" value="1" style="text;align=center;fontStyle=1;verticalAlign=middle;spacingLeft=3;spacingRight=3;strokeColor=none;rotatable=0;points=[[0,0.5],[1,0.5]];portConstraint=eastwest;html=1;" parent="a-lBnfebaD4neExDsO_B-24" vertex="1">
          <mxGeometry x="492.29999999999995" y="1746.5309278350514" width="20" height="26.670103092783503" as="geometry" />
        </mxCell>
        <mxCell id="aDtfnrh56VRPvFuZT9oT-1" value="create" style="endArrow=open;endSize=12;dashed=1;html=1;rounded=0;" parent="a-lBnfebaD4neExDsO_B-24" source="0AKXrBJ4bUIqsCuSMHQm-2" target="a-lBnfebaD4neExDsO_B-3" edge="1">
          <mxGeometry x="0.3403" width="160" relative="1" as="geometry">
            <mxPoint x="169.3" y="769.3298969072164" as="sourcePoint" />
            <mxPoint x="329.3" y="769.3298969072164" as="targetPoint" />
            <Array as="points">
              <mxPoint x="29.299999999999997" y="830.8762886597938" />
              <mxPoint x="29.299999999999997" y="625.721649484536" />
            </Array>
            <mxPoint as="offset" />
          </mxGeometry>
        </mxCell>
        <mxCell id="aDtfnrh56VRPvFuZT9oT-2" value="create" style="endArrow=open;endSize=12;dashed=1;html=1;rounded=0;" parent="a-lBnfebaD4neExDsO_B-24" source="0AKXrBJ4bUIqsCuSMHQm-2" target="a-lBnfebaD4neExDsO_B-12" edge="1">
          <mxGeometry x="0.4742" width="160" relative="1" as="geometry">
            <mxPoint x="169.3" y="656.4948453608247" as="sourcePoint" />
            <mxPoint x="329.3" y="656.4948453608247" as="targetPoint" />
            <Array as="points">
              <mxPoint x="309.3" y="810.3608247422679" />
            </Array>
            <mxPoint y="-1" as="offset" />
          </mxGeometry>
        </mxCell>
        <mxCell id="aDtfnrh56VRPvFuZT9oT-3" value="create" style="endArrow=open;endSize=12;dashed=1;html=1;rounded=0;" parent="a-lBnfebaD4neExDsO_B-24" source="0AKXrBJ4bUIqsCuSMHQm-2" target="a-lBnfebaD4neExDsO_B-38" edge="1">
          <mxGeometry x="0.6836" width="160" relative="1" as="geometry">
            <mxPoint x="579.3" y="1354.0206185567008" as="sourcePoint" />
            <mxPoint x="739.3" y="1354.0206185567008" as="targetPoint" />
            <Array as="points">
              <mxPoint x="159.3" y="1559.1752577319587" />
              <mxPoint x="1059.3" y="1559.1752577319587" />
            </Array>
            <mxPoint as="offset" />
          </mxGeometry>
        </mxCell>
        <mxCell id="aDtfnrh56VRPvFuZT9oT-8" value="1..1" style="endArrow=open;html=1;endSize=12;startArrow=diamondThin;startSize=14;startFill=0;edgeStyle=orthogonalEdgeStyle;align=left;verticalAlign=bottom;rounded=0;entryX=1;entryY=0.25;entryDx=0;entryDy=0;" parent="a-lBnfebaD4neExDsO_B-24" source="a-lBnfebaD4neExDsO_B-44" target="0AKXrBJ4bUIqsCuSMHQm-2" edge="1">
          <mxGeometry x="0.9476" y="-9" relative="1" as="geometry">
            <mxPoint x="579.3" y="923.1958762886597" as="sourcePoint" />
            <mxPoint x="739.3" y="923.1958762886597" as="targetPoint" />
            <Array as="points">
              <mxPoint x="829" y="624.6958762886597" />
              <mxPoint x="829" y="851.3917525773195" />
              <mxPoint x="379" y="851.3917525773195" />
              <mxPoint x="379" y="952.9432989690721" />
            </Array>
            <mxPoint as="offset" />
          </mxGeometry>
        </mxCell>
        <mxCell id="a-lBnfebaD4neExDsO_B-63" value="" style="group" parent="1" vertex="1" connectable="0">
          <mxGeometry x="2510" y="-230" width="2310" height="1380" as="geometry" />
        </mxCell>
        <mxCell id="a-lBnfebaD4neExDsO_B-61" value="" style="shape=folder;fontStyle=1;spacingTop=10;tabWidth=40;tabHeight=30;tabPosition=left;html=1;whiteSpace=wrap;" parent="a-lBnfebaD4neExDsO_B-63" vertex="1">
          <mxGeometry width="2250" height="1380" as="geometry" />
        </mxCell>
        <mxCell id="a-lBnfebaD4neExDsO_B-62" value="View" style="text;html=1;align=center;verticalAlign=middle;resizable=0;points=[];autosize=1;strokeColor=none;fillColor=none;" parent="a-lBnfebaD4neExDsO_B-63" vertex="1">
          <mxGeometry width="50" height="30" as="geometry" />
        </mxCell>
        <mxCell id="a-lBnfebaD4neExDsO_B-68" value="MainView" style="swimlane;fontStyle=1;align=center;verticalAlign=top;childLayout=stackLayout;horizontal=1;startSize=26;horizontalStack=0;resizeParent=1;resizeParentMax=0;resizeLast=0;collapsible=1;marginBottom=0;whiteSpace=wrap;html=1;" parent="a-lBnfebaD4neExDsO_B-63" vertex="1">
          <mxGeometry x="430" y="112.85338095238097" width="310" height="590.2857142857141" as="geometry" />
        </mxCell>
        <mxCell id="sZfFJr8AC-p8yPcgq8WA-9" value="- choisePanel: JPanel" style="text;strokeColor=none;fillColor=none;align=left;verticalAlign=top;spacingLeft=4;spacingRight=4;overflow=hidden;rotatable=0;points=[[0,0.5],[1,0.5]];portConstraint=eastwest;whiteSpace=wrap;html=1;" parent="a-lBnfebaD4neExDsO_B-68" vertex="1">
          <mxGeometry y="26" width="310" height="32.60317460317461" as="geometry" />
        </mxCell>
        <mxCell id="sZfFJr8AC-p8yPcgq8WA-10" value="- infoLabel: JLabel" style="text;strokeColor=none;fillColor=none;align=left;verticalAlign=top;spacingLeft=4;spacingRight=4;overflow=hidden;rotatable=0;points=[[0,0.5],[1,0.5]];portConstraint=eastwest;whiteSpace=wrap;html=1;" parent="a-lBnfebaD4neExDsO_B-68" vertex="1">
          <mxGeometry y="58.60317460317461" width="310" height="32.60317460317461" as="geometry" />
        </mxCell>
        <mxCell id="TmO1mP3xWZ-vTGTIXcNk-44" value="- mask1: String" style="text;strokeColor=none;fillColor=none;align=left;verticalAlign=top;spacingLeft=4;spacingRight=4;overflow=hidden;rotatable=0;points=[[0,0.5],[1,0.5]];portConstraint=eastwest;whiteSpace=wrap;html=1;" parent="a-lBnfebaD4neExDsO_B-68" vertex="1">
          <mxGeometry y="91.20634920634922" width="310" height="32.60317460317461" as="geometry" />
        </mxCell>
        <mxCell id="leNs4Q04AgKeH0ur-R9n-113" value="- mask2: String" style="text;strokeColor=none;fillColor=none;align=left;verticalAlign=top;spacingLeft=4;spacingRight=4;overflow=hidden;rotatable=0;points=[[0,0.5],[1,0.5]];portConstraint=eastwest;whiteSpace=wrap;html=1;" parent="a-lBnfebaD4neExDsO_B-68" vertex="1">
          <mxGeometry y="123.80952380952382" width="310" height="32.60317460317461" as="geometry" />
        </mxCell>
        <mxCell id="leNs4Q04AgKeH0ur-R9n-114" value="- mask3: String" style="text;strokeColor=none;fillColor=none;align=left;verticalAlign=top;spacingLeft=4;spacingRight=4;overflow=hidden;rotatable=0;points=[[0,0.5],[1,0.5]];portConstraint=eastwest;whiteSpace=wrap;html=1;" parent="a-lBnfebaD4neExDsO_B-68" vertex="1">
          <mxGeometry y="156.41269841269843" width="310" height="32.60317460317461" as="geometry" />
        </mxCell>
        <mxCell id="a-lBnfebaD4neExDsO_B-70" value="" style="line;strokeWidth=1;fillColor=none;align=left;verticalAlign=middle;spacingTop=-1;spacingLeft=3;spacingRight=3;rotatable=0;labelPosition=right;points=[];portConstraint=eastwest;strokeColor=inherit;" parent="a-lBnfebaD4neExDsO_B-68" vertex="1">
          <mxGeometry y="189.01587301587304" width="310" height="10.031746031746033" as="geometry" />
        </mxCell>
        <mxCell id="a-lBnfebaD4neExDsO_B-71" value="+ addTextInfo(int, String, int): void" style="text;strokeColor=none;fillColor=none;align=left;verticalAlign=top;spacingLeft=4;spacingRight=4;overflow=hidden;rotatable=0;points=[[0,0.5],[1,0.5]];portConstraint=eastwest;whiteSpace=wrap;html=1;" parent="a-lBnfebaD4neExDsO_B-68" vertex="1">
          <mxGeometry y="199.04761904761907" width="310" height="32.60317460317461" as="geometry" />
        </mxCell>
        <mxCell id="leNs4Q04AgKeH0ur-R9n-115" value="+ defineVisibility(Boolean): void" style="text;strokeColor=none;fillColor=none;align=left;verticalAlign=top;spacingLeft=4;spacingRight=4;overflow=hidden;rotatable=0;points=[[0,0.5],[1,0.5]];portConstraint=eastwest;whiteSpace=wrap;html=1;" parent="a-lBnfebaD4neExDsO_B-68" vertex="1">
          <mxGeometry y="231.65079365079367" width="310" height="32.60317460317461" as="geometry" />
        </mxCell>
        <mxCell id="0AKXrBJ4bUIqsCuSMHQm-45" value="+ getOptionBar(): OptionBar" style="text;strokeColor=none;fillColor=none;align=left;verticalAlign=top;spacingLeft=4;spacingRight=4;overflow=hidden;rotatable=0;points=[[0,0.5],[1,0.5]];portConstraint=eastwest;whiteSpace=wrap;html=1;" parent="a-lBnfebaD4neExDsO_B-68" vertex="1">
          <mxGeometry y="264.2539682539683" width="310" height="32.60317460317461" as="geometry" />
        </mxCell>
        <mxCell id="0AKXrBJ4bUIqsCuSMHQm-46" value="+ getAttemptsTable(): AttemptsTable" style="text;strokeColor=none;fillColor=none;align=left;verticalAlign=top;spacingLeft=4;spacingRight=4;overflow=hidden;rotatable=0;points=[[0,0.5],[1,0.5]];portConstraint=eastwest;whiteSpace=wrap;html=1;" parent="a-lBnfebaD4neExDsO_B-68" vertex="1">
          <mxGeometry y="296.8571428571429" width="310" height="32.60317460317461" as="geometry" />
        </mxCell>
        <mxCell id="0AKXrBJ4bUIqsCuSMHQm-47" value="+ getCheckButton(): CheckButton" style="text;strokeColor=none;fillColor=none;align=left;verticalAlign=top;spacingLeft=4;spacingRight=4;overflow=hidden;rotatable=0;points=[[0,0.5],[1,0.5]];portConstraint=eastwest;whiteSpace=wrap;html=1;" parent="a-lBnfebaD4neExDsO_B-68" vertex="1">
          <mxGeometry y="329.46031746031747" width="310" height="32.60317460317461" as="geometry" />
        </mxCell>
        <mxCell id="0AKXrBJ4bUIqsCuSMHQm-48" value="+ getComboBoxes(): ComboBox[]" style="text;strokeColor=none;fillColor=none;align=left;verticalAlign=top;spacingLeft=4;spacingRight=4;overflow=hidden;rotatable=0;points=[[0,0.5],[1,0.5]];portConstraint=eastwest;whiteSpace=wrap;html=1;" parent="a-lBnfebaD4neExDsO_B-68" vertex="1">
          <mxGeometry y="362.06349206349205" width="310" height="32.60317460317461" as="geometry" />
        </mxCell>
        <mxCell id="a-lBnfebaD4neExDsO_B-72" value="+ setupAttemptsTable(int): void" style="text;strokeColor=none;fillColor=none;align=left;verticalAlign=top;spacingLeft=4;spacingRight=4;overflow=hidden;rotatable=0;points=[[0,0.5],[1,0.5]];portConstraint=eastwest;whiteSpace=wrap;html=1;" parent="a-lBnfebaD4neExDsO_B-68" vertex="1">
          <mxGeometry y="394.66666666666663" width="310" height="32.60317460317461" as="geometry" />
        </mxCell>
        <mxCell id="leNs4Q04AgKeH0ur-R9n-116" value="+ victoryMessage(int): void" style="text;strokeColor=none;fillColor=none;align=left;verticalAlign=top;spacingLeft=4;spacingRight=4;overflow=hidden;rotatable=0;points=[[0,0.5],[1,0.5]];portConstraint=eastwest;whiteSpace=wrap;html=1;" parent="a-lBnfebaD4neExDsO_B-68" vertex="1">
          <mxGeometry y="427.2698412698412" width="310" height="32.60317460317461" as="geometry" />
        </mxCell>
        <mxCell id="leNs4Q04AgKeH0ur-R9n-117" value="+ looseMessage(ArrayList&amp;lt;String&amp;gt;): void" style="text;strokeColor=none;fillColor=none;align=left;verticalAlign=top;spacingLeft=4;spacingRight=4;overflow=hidden;rotatable=0;points=[[0,0.5],[1,0.5]];portConstraint=eastwest;whiteSpace=wrap;html=1;" parent="a-lBnfebaD4neExDsO_B-68" vertex="1">
          <mxGeometry y="459.8730158730158" width="310" height="32.60317460317461" as="geometry" />
        </mxCell>
        <mxCell id="leNs4Q04AgKeH0ur-R9n-118" value="+ difficultyError(): void" style="text;strokeColor=none;fillColor=none;align=left;verticalAlign=top;spacingLeft=4;spacingRight=4;overflow=hidden;rotatable=0;points=[[0,0.5],[1,0.5]];portConstraint=eastwest;whiteSpace=wrap;html=1;" parent="a-lBnfebaD4neExDsO_B-68" vertex="1">
          <mxGeometry y="492.47619047619037" width="310" height="32.60317460317461" as="geometry" />
        </mxCell>
        <mxCell id="xYpT5LmuNh0zjIPxlV9m-90" value="+ checkDuplicateInSequence(): boolean" style="text;strokeColor=none;fillColor=none;align=left;verticalAlign=top;spacingLeft=4;spacingRight=4;overflow=hidden;rotatable=0;points=[[0,0.5],[1,0.5]];portConstraint=eastwest;whiteSpace=wrap;html=1;" parent="a-lBnfebaD4neExDsO_B-68" vertex="1">
          <mxGeometry y="525.079365079365" width="310" height="32.60317460317461" as="geometry" />
        </mxCell>
        <mxCell id="xYpT5LmuNh0zjIPxlV9m-91" value="+ getColorList(String[]): void" style="text;strokeColor=none;fillColor=none;align=left;verticalAlign=top;spacingLeft=4;spacingRight=4;overflow=hidden;rotatable=0;points=[[0,0.5],[1,0.5]];portConstraint=eastwest;whiteSpace=wrap;html=1;" parent="a-lBnfebaD4neExDsO_B-68" vertex="1">
          <mxGeometry y="557.6825396825395" width="310" height="32.60317460317461" as="geometry" />
        </mxCell>
        <mxCell id="a-lBnfebaD4neExDsO_B-74" value="ViewFacade" style="swimlane;fontStyle=1;align=center;verticalAlign=top;childLayout=stackLayout;horizontal=1;startSize=26;horizontalStack=0;resizeParent=1;resizeParentMax=0;resizeLast=0;collapsible=1;marginBottom=0;whiteSpace=wrap;html=1;" parent="a-lBnfebaD4neExDsO_B-63" vertex="1">
          <mxGeometry x="20" y="158" width="330" height="883.7142857142853" as="geometry" />
        </mxCell>
        <mxCell id="a-lBnfebaD4neExDsO_B-76" value="- mainView: MainView" style="text;strokeColor=none;fillColor=none;align=left;verticalAlign=top;spacingLeft=4;spacingRight=4;overflow=hidden;rotatable=0;points=[[0,0.5],[1,0.5]];portConstraint=eastwest;whiteSpace=wrap;html=1;" parent="a-lBnfebaD4neExDsO_B-74" vertex="1">
          <mxGeometry y="26" width="330" height="32.60317460317461" as="geometry" />
        </mxCell>
        <mxCell id="TmO1mP3xWZ-vTGTIXcNk-36" value="- decoderNameDialog: DecoderNameDialog:" style="text;strokeColor=none;fillColor=none;align=left;verticalAlign=top;spacingLeft=4;spacingRight=4;overflow=hidden;rotatable=0;points=[[0,0.5],[1,0.5]];portConstraint=eastwest;whiteSpace=wrap;html=1;" parent="a-lBnfebaD4neExDsO_B-74" vertex="1">
          <mxGeometry y="58.60317460317461" width="330" height="32.60317460317461" as="geometry" />
        </mxCell>
        <mxCell id="a-lBnfebaD4neExDsO_B-75" value="" style="line;strokeWidth=1;fillColor=none;align=left;verticalAlign=middle;spacingTop=-1;spacingLeft=3;spacingRight=3;rotatable=0;labelPosition=right;points=[];portConstraint=eastwest;strokeColor=inherit;" parent="a-lBnfebaD4neExDsO_B-74" vertex="1">
          <mxGeometry y="91.20634920634922" width="330" height="10.031746031746033" as="geometry" />
        </mxCell>
        <mxCell id="leNs4Q04AgKeH0ur-R9n-97" value="+ getInstance(): ViewFacade" style="text;strokeColor=none;fillColor=none;align=left;verticalAlign=top;spacingLeft=4;spacingRight=4;overflow=hidden;rotatable=0;points=[[0,0.5],[1,0.5]];portConstraint=eastwest;whiteSpace=wrap;html=1;" parent="a-lBnfebaD4neExDsO_B-74" vertex="1">
          <mxGeometry y="101.23809523809526" width="330" height="32.60317460317461" as="geometry" />
        </mxCell>
        <mxCell id="a-lBnfebaD4neExDsO_B-78" value="+ showMainView(): void" style="text;strokeColor=none;fillColor=none;align=left;verticalAlign=top;spacingLeft=4;spacingRight=4;overflow=hidden;rotatable=0;points=[[0,0.5],[1,0.5]];portConstraint=eastwest;whiteSpace=wrap;html=1;" parent="a-lBnfebaD4neExDsO_B-74" vertex="1">
          <mxGeometry y="133.84126984126988" width="330" height="32.60317460317461" as="geometry" />
        </mxCell>
        <mxCell id="TmO1mP3xWZ-vTGTIXcNk-38" value="+ showDecoderNameDialog(): void" style="text;strokeColor=none;fillColor=none;align=left;verticalAlign=top;spacingLeft=4;spacingRight=4;overflow=hidden;rotatable=0;points=[[0,0.5],[1,0.5]];portConstraint=eastwest;whiteSpace=wrap;html=1;" parent="a-lBnfebaD4neExDsO_B-74" vertex="1">
          <mxGeometry y="166.44444444444449" width="330" height="32.60317460317461" as="geometry" />
        </mxCell>
        <mxCell id="TmO1mP3xWZ-vTGTIXcNk-39" value="+ hideDecoderNameDialog(): void" style="text;strokeColor=none;fillColor=none;align=left;verticalAlign=top;spacingLeft=4;spacingRight=4;overflow=hidden;rotatable=0;points=[[0,0.5],[1,0.5]];portConstraint=eastwest;whiteSpace=wrap;html=1;" parent="a-lBnfebaD4neExDsO_B-74" vertex="1">
          <mxGeometry y="199.0476190476191" width="330" height="32.60317460317461" as="geometry" />
        </mxCell>
        <mxCell id="leNs4Q04AgKeH0ur-R9n-98" value="+ setColorList(String[]): void" style="text;strokeColor=none;fillColor=none;align=left;verticalAlign=top;spacingLeft=4;spacingRight=4;overflow=hidden;rotatable=0;points=[[0,0.5],[1,0.5]];portConstraint=eastwest;whiteSpace=wrap;html=1;" parent="a-lBnfebaD4neExDsO_B-74" vertex="1">
          <mxGeometry y="231.6507936507937" width="330" height="32.60317460317461" as="geometry" />
        </mxCell>
        <mxCell id="TmO1mP3xWZ-vTGTIXcNk-40" value="+ getDecoderName(): String" style="text;strokeColor=none;fillColor=none;align=left;verticalAlign=top;spacingLeft=4;spacingRight=4;overflow=hidden;rotatable=0;points=[[0,0.5],[1,0.5]];portConstraint=eastwest;whiteSpace=wrap;html=1;" parent="a-lBnfebaD4neExDsO_B-74" vertex="1">
          <mxGeometry y="264.2539682539683" width="330" height="32.60317460317461" as="geometry" />
        </mxCell>
        <mxCell id="xYpT5LmuNh0zjIPxlV9m-93" value="+ getDifficultyChosen(): String" style="text;strokeColor=none;fillColor=none;align=left;verticalAlign=top;spacingLeft=4;spacingRight=4;overflow=hidden;rotatable=0;points=[[0,0.5],[1,0.5]];portConstraint=eastwest;whiteSpace=wrap;html=1;" parent="a-lBnfebaD4neExDsO_B-74" vertex="1">
          <mxGeometry y="296.8571428571429" width="330" height="32.60317460317461" as="geometry" />
        </mxCell>
        <mxCell id="0AKXrBJ4bUIqsCuSMHQm-33" value="+ applyDifficulty(int): void" style="text;strokeColor=none;fillColor=none;align=left;verticalAlign=top;spacingLeft=4;spacingRight=4;overflow=hidden;rotatable=0;points=[[0,0.5],[1,0.5]];portConstraint=eastwest;whiteSpace=wrap;html=1;" parent="a-lBnfebaD4neExDsO_B-74" vertex="1">
          <mxGeometry y="329.46031746031747" width="330" height="32.60317460317461" as="geometry" />
        </mxCell>
        <mxCell id="TmO1mP3xWZ-vTGTIXcNk-42" value="+ addConfirmNameButtonListener(ActionListener): void" style="text;strokeColor=none;fillColor=none;align=left;verticalAlign=top;spacingLeft=4;spacingRight=4;overflow=hidden;rotatable=0;points=[[0,0.5],[1,0.5]];portConstraint=eastwest;whiteSpace=wrap;html=1;" parent="a-lBnfebaD4neExDsO_B-74" vertex="1">
          <mxGeometry y="362.06349206349205" width="330" height="32.60317460317461" as="geometry" />
        </mxCell>
        <mxCell id="0AKXrBJ4bUIqsCuSMHQm-34" value="+ addDifficultySetButtonListener(ActionListener): void" style="text;strokeColor=none;fillColor=none;align=left;verticalAlign=top;spacingLeft=4;spacingRight=4;overflow=hidden;rotatable=0;points=[[0,0.5],[1,0.5]];portConstraint=eastwest;whiteSpace=wrap;html=1;" parent="a-lBnfebaD4neExDsO_B-74" vertex="1">
          <mxGeometry y="394.66666666666663" width="330" height="32.60317460317461" as="geometry" />
        </mxCell>
        <mxCell id="0AKXrBJ4bUIqsCuSMHQm-35" value="+ addCheckSequenceButtonListener(ActionListener): void" style="text;strokeColor=none;fillColor=none;align=left;verticalAlign=top;spacingLeft=4;spacingRight=4;overflow=hidden;rotatable=0;points=[[0,0.5],[1,0.5]];portConstraint=eastwest;whiteSpace=wrap;html=1;" parent="a-lBnfebaD4neExDsO_B-74" vertex="1">
          <mxGeometry y="427.2698412698412" width="330" height="32.60317460317461" as="geometry" />
        </mxCell>
        <mxCell id="xYpT5LmuNh0zjIPxlV9m-94" value="+ showGameInfo(int, String, int): void" style="text;strokeColor=none;fillColor=none;align=left;verticalAlign=top;spacingLeft=4;spacingRight=4;overflow=hidden;rotatable=0;points=[[0,0.5],[1,0.5]];portConstraint=eastwest;whiteSpace=wrap;html=1;" parent="a-lBnfebaD4neExDsO_B-74" vertex="1">
          <mxGeometry y="459.8730158730158" width="330" height="32.60317460317461" as="geometry" />
        </mxCell>
        <mxCell id="TmO1mP3xWZ-vTGTIXcNk-41" value="+ getMainView(): MainView" style="text;strokeColor=none;fillColor=none;align=left;verticalAlign=top;spacingLeft=4;spacingRight=4;overflow=hidden;rotatable=0;points=[[0,0.5],[1,0.5]];portConstraint=eastwest;whiteSpace=wrap;html=1;" parent="a-lBnfebaD4neExDsO_B-74" vertex="1">
          <mxGeometry y="492.47619047619037" width="330" height="32.60317460317461" as="geometry" />
        </mxCell>
        <mxCell id="ExXAvWjmY8paEHTybcyo-4" value="+ showVictoryMessage(int): void" style="text;strokeColor=none;fillColor=none;align=left;verticalAlign=top;spacingLeft=4;spacingRight=4;overflow=hidden;rotatable=0;points=[[0,0.5],[1,0.5]];portConstraint=eastwest;whiteSpace=wrap;html=1;" parent="a-lBnfebaD4neExDsO_B-74" vertex="1">
          <mxGeometry y="525.079365079365" width="330" height="32.60317460317461" as="geometry" />
        </mxCell>
        <mxCell id="ExXAvWjmY8paEHTybcyo-5" value="+ showLooseMessage(ArrayList&amp;lt;String&amp;gt;): void" style="text;strokeColor=none;fillColor=none;align=left;verticalAlign=top;spacingLeft=4;spacingRight=4;overflow=hidden;rotatable=0;points=[[0,0.5],[1,0.5]];portConstraint=eastwest;whiteSpace=wrap;html=1;" parent="a-lBnfebaD4neExDsO_B-74" vertex="1">
          <mxGeometry y="557.6825396825395" width="330" height="32.60317460317461" as="geometry" />
        </mxCell>
        <mxCell id="leNs4Q04AgKeH0ur-R9n-99" value="+ enableSequenceCheckButton(): void" style="text;strokeColor=none;fillColor=none;align=left;verticalAlign=top;spacingLeft=4;spacingRight=4;overflow=hidden;rotatable=0;points=[[0,0.5],[1,0.5]];portConstraint=eastwest;whiteSpace=wrap;html=1;" parent="a-lBnfebaD4neExDsO_B-74" vertex="1">
          <mxGeometry y="590.2857142857141" width="330" height="32.60317460317461" as="geometry" />
        </mxCell>
        <mxCell id="leNs4Q04AgKeH0ur-R9n-100" value="+ disableSequenceCheckButton(): void" style="text;strokeColor=none;fillColor=none;align=left;verticalAlign=top;spacingLeft=4;spacingRight=4;overflow=hidden;rotatable=0;points=[[0,0.5],[1,0.5]];portConstraint=eastwest;whiteSpace=wrap;html=1;" parent="a-lBnfebaD4neExDsO_B-74" vertex="1">
          <mxGeometry y="622.8888888888887" width="330" height="32.60317460317461" as="geometry" />
        </mxCell>
        <mxCell id="leNs4Q04AgKeH0ur-R9n-101" value="+ hasNoneSequenceDuplicates(): Boolean" style="text;strokeColor=none;fillColor=none;align=left;verticalAlign=top;spacingLeft=4;spacingRight=4;overflow=hidden;rotatable=0;points=[[0,0.5],[1,0.5]];portConstraint=eastwest;whiteSpace=wrap;html=1;" parent="a-lBnfebaD4neExDsO_B-74" vertex="1">
          <mxGeometry y="655.4920634920633" width="330" height="32.60317460317461" as="geometry" />
        </mxCell>
        <mxCell id="leNs4Q04AgKeH0ur-R9n-102" value="+ retrieveNewSequence(): ArrayList&amp;lt;Color&amp;gt;" style="text;strokeColor=none;fillColor=none;align=left;verticalAlign=top;spacingLeft=4;spacingRight=4;overflow=hidden;rotatable=0;points=[[0,0.5],[1,0.5]];portConstraint=eastwest;whiteSpace=wrap;html=1;" parent="a-lBnfebaD4neExDsO_B-74" vertex="1">
          <mxGeometry y="688.0952380952378" width="330" height="32.60317460317461" as="geometry" />
        </mxCell>
        <mxCell id="leNs4Q04AgKeH0ur-R9n-103" value="+ showNewSequence(int, ArrayList&amp;lt;Color&amp;gt;): void" style="text;strokeColor=none;fillColor=none;align=left;verticalAlign=top;spacingLeft=4;spacingRight=4;overflow=hidden;rotatable=0;points=[[0,0.5],[1,0.5]];portConstraint=eastwest;whiteSpace=wrap;html=1;" parent="a-lBnfebaD4neExDsO_B-74" vertex="1">
          <mxGeometry y="720.6984126984124" width="330" height="32.60317460317461" as="geometry" />
        </mxCell>
        <mxCell id="leNs4Q04AgKeH0ur-R9n-104" value="+ showNameErrorNotValid(): void" style="text;strokeColor=none;fillColor=none;align=left;verticalAlign=top;spacingLeft=4;spacingRight=4;overflow=hidden;rotatable=0;points=[[0,0.5],[1,0.5]];portConstraint=eastwest;whiteSpace=wrap;html=1;" parent="a-lBnfebaD4neExDsO_B-74" vertex="1">
          <mxGeometry y="753.301587301587" width="330" height="32.60317460317461" as="geometry" />
        </mxCell>
        <mxCell id="leNs4Q04AgKeH0ur-R9n-105" value="+ showDifficultyErrorNotChosen(): void" style="text;strokeColor=none;fillColor=none;align=left;verticalAlign=top;spacingLeft=4;spacingRight=4;overflow=hidden;rotatable=0;points=[[0,0.5],[1,0.5]];portConstraint=eastwest;whiteSpace=wrap;html=1;" parent="a-lBnfebaD4neExDsO_B-74" vertex="1">
          <mxGeometry y="785.9047619047616" width="330" height="32.60317460317461" as="geometry" />
        </mxCell>
        <mxCell id="leNs4Q04AgKeH0ur-R9n-106" value="+ update(int, int): void" style="text;strokeColor=none;fillColor=none;align=left;verticalAlign=top;spacingLeft=4;spacingRight=4;overflow=hidden;rotatable=0;points=[[0,0.5],[1,0.5]];portConstraint=eastwest;whiteSpace=wrap;html=1;" parent="a-lBnfebaD4neExDsO_B-74" vertex="1">
          <mxGeometry y="818.5079365079362" width="330" height="32.60317460317461" as="geometry" />
        </mxCell>
        <mxCell id="leNs4Q04AgKeH0ur-R9n-107" value="+ update(int, String, int): void" style="text;strokeColor=none;fillColor=none;align=left;verticalAlign=top;spacingLeft=4;spacingRight=4;overflow=hidden;rotatable=0;points=[[0,0.5],[1,0.5]];portConstraint=eastwest;whiteSpace=wrap;html=1;" parent="a-lBnfebaD4neExDsO_B-74" vertex="1">
          <mxGeometry y="851.1111111111107" width="330" height="32.60317460317461" as="geometry" />
        </mxCell>
        <mxCell id="sZfFJr8AC-p8yPcgq8WA-31" value="DecoderNameDialog" style="swimlane;fontStyle=1;align=center;verticalAlign=top;childLayout=stackLayout;horizontal=1;startSize=26;horizontalStack=0;resizeParent=1;resizeParentMax=0;resizeLast=0;collapsible=1;marginBottom=0;whiteSpace=wrap;html=1;" parent="a-lBnfebaD4neExDsO_B-63" vertex="1">
          <mxGeometry x="250" y="1140" width="280" height="199.04761904761898" as="geometry" />
        </mxCell>
        <mxCell id="sZfFJr8AC-p8yPcgq8WA-32" value="- nameField: JTextField" style="text;strokeColor=none;fillColor=none;align=left;verticalAlign=top;spacingLeft=4;spacingRight=4;overflow=hidden;rotatable=0;points=[[0,0.5],[1,0.5]];portConstraint=eastwest;whiteSpace=wrap;html=1;" parent="sZfFJr8AC-p8yPcgq8WA-31" vertex="1">
          <mxGeometry y="26" width="280" height="32.603174603174594" as="geometry" />
        </mxCell>
        <mxCell id="sZfFJr8AC-p8yPcgq8WA-35" value="- confirmButton: JButton" style="text;strokeColor=none;fillColor=none;align=left;verticalAlign=top;spacingLeft=4;spacingRight=4;overflow=hidden;rotatable=0;points=[[0,0.5],[1,0.5]];portConstraint=eastwest;whiteSpace=wrap;html=1;" parent="sZfFJr8AC-p8yPcgq8WA-31" vertex="1">
          <mxGeometry y="58.603174603174594" width="280" height="32.603174603174594" as="geometry" />
        </mxCell>
        <mxCell id="sZfFJr8AC-p8yPcgq8WA-33" value="" style="line;strokeWidth=1;fillColor=none;align=left;verticalAlign=middle;spacingTop=-1;spacingLeft=3;spacingRight=3;rotatable=0;labelPosition=right;points=[];portConstraint=eastwest;strokeColor=inherit;" parent="sZfFJr8AC-p8yPcgq8WA-31" vertex="1">
          <mxGeometry y="91.20634920634919" width="280" height="10.03174603174603" as="geometry" />
        </mxCell>
        <mxCell id="sZfFJr8AC-p8yPcgq8WA-38" value="+ getDecoderName(): String" style="text;strokeColor=none;fillColor=none;align=left;verticalAlign=top;spacingLeft=4;spacingRight=4;overflow=hidden;rotatable=0;points=[[0,0.5],[1,0.5]];portConstraint=eastwest;whiteSpace=wrap;html=1;" parent="sZfFJr8AC-p8yPcgq8WA-31" vertex="1">
          <mxGeometry y="101.23809523809521" width="280" height="32.603174603174594" as="geometry" />
        </mxCell>
        <mxCell id="leNs4Q04AgKeH0ur-R9n-121" value="+ showErrorNameNotValid(): void" style="text;strokeColor=none;fillColor=none;align=left;verticalAlign=top;spacingLeft=4;spacingRight=4;overflow=hidden;rotatable=0;points=[[0,0.5],[1,0.5]];portConstraint=eastwest;whiteSpace=wrap;html=1;" parent="sZfFJr8AC-p8yPcgq8WA-31" vertex="1">
          <mxGeometry y="133.84126984126982" width="280" height="32.603174603174594" as="geometry" />
        </mxCell>
        <mxCell id="sZfFJr8AC-p8yPcgq8WA-39" value="+ addConfirmButtonListener(ActionListener): void" style="text;strokeColor=none;fillColor=none;align=left;verticalAlign=top;spacingLeft=4;spacingRight=4;overflow=hidden;rotatable=0;points=[[0,0.5],[1,0.5]];portConstraint=eastwest;whiteSpace=wrap;html=1;" parent="sZfFJr8AC-p8yPcgq8WA-31" vertex="1">
          <mxGeometry y="166.4444444444444" width="280" height="32.603174603174594" as="geometry" />
        </mxCell>
        <mxCell id="xYpT5LmuNh0zjIPxlV9m-24" value="AttemptsTable" style="swimlane;fontStyle=1;align=center;verticalAlign=top;childLayout=stackLayout;horizontal=1;startSize=26;horizontalStack=0;resizeParent=1;resizeParentMax=0;resizeLast=0;collapsible=1;marginBottom=0;whiteSpace=wrap;html=1;" parent="a-lBnfebaD4neExDsO_B-63" vertex="1">
          <mxGeometry x="1507.5" y="202.66" width="195" height="60" as="geometry" />
        </mxCell>
        <mxCell id="xYpT5LmuNh0zjIPxlV9m-26" value="" style="line;strokeWidth=1;fillColor=none;align=left;verticalAlign=middle;spacingTop=-1;spacingLeft=3;spacingRight=3;rotatable=0;labelPosition=right;points=[];portConstraint=eastwest;strokeColor=inherit;" parent="xYpT5LmuNh0zjIPxlV9m-24" vertex="1">
          <mxGeometry y="26" width="195" height="8" as="geometry" />
        </mxCell>
        <mxCell id="leNs4Q04AgKeH0ur-R9n-120" value="+ getModel(): AttemptsTableModel" style="text;strokeColor=none;fillColor=none;align=left;verticalAlign=top;spacingLeft=4;spacingRight=4;overflow=hidden;rotatable=0;points=[[0,0.5],[1,0.5]];portConstraint=eastwest;whiteSpace=wrap;html=1;" parent="xYpT5LmuNh0zjIPxlV9m-24" vertex="1">
          <mxGeometry y="34" width="195" height="26" as="geometry" />
        </mxCell>
        <mxCell id="xYpT5LmuNh0zjIPxlV9m-29" value="JTable" style="swimlane;fontStyle=1;align=center;verticalAlign=top;childLayout=stackLayout;horizontal=1;startSize=26;horizontalStack=0;resizeParent=1;resizeParentMax=0;resizeLast=0;collapsible=1;marginBottom=0;whiteSpace=wrap;html=1;" parent="a-lBnfebaD4neExDsO_B-63" vertex="1">
          <mxGeometry x="1525" y="50" width="160" height="50" as="geometry" />
        </mxCell>
        <mxCell id="xYpT5LmuNh0zjIPxlV9m-30" value="Extends" style="endArrow=block;endSize=16;endFill=0;html=1;rounded=0;" parent="a-lBnfebaD4neExDsO_B-63" source="xYpT5LmuNh0zjIPxlV9m-24" target="xYpT5LmuNh0zjIPxlV9m-29" edge="1">
          <mxGeometry width="160" relative="1" as="geometry">
            <mxPoint x="1680" y="170" as="sourcePoint" />
            <mxPoint x="1840" y="170" as="targetPoint" />
          </mxGeometry>
        </mxCell>
        <mxCell id="xYpT5LmuNh0zjIPxlV9m-31" value="AttemptTableModel" style="swimlane;fontStyle=1;align=center;verticalAlign=top;childLayout=stackLayout;horizontal=1;startSize=26;horizontalStack=0;resizeParent=1;resizeParentMax=0;resizeLast=0;collapsible=1;marginBottom=0;whiteSpace=wrap;html=1;" parent="a-lBnfebaD4neExDsO_B-63" vertex="1">
          <mxGeometry x="1230" y="380" width="190" height="320" as="geometry">
            <mxRectangle x="300" y="680" width="150" height="30" as="alternateBounds" />
          </mxGeometry>
        </mxCell>
        <mxCell id="xYpT5LmuNh0zjIPxlV9m-32" value="+ attempts: int" style="text;strokeColor=none;fillColor=none;align=left;verticalAlign=top;spacingLeft=4;spacingRight=4;overflow=hidden;rotatable=0;points=[[0,0.5],[1,0.5]];portConstraint=eastwest;whiteSpace=wrap;html=1;" parent="xYpT5LmuNh0zjIPxlV9m-31" vertex="1">
          <mxGeometry y="26" width="190" height="26" as="geometry" />
        </mxCell>
        <mxCell id="xYpT5LmuNh0zjIPxlV9m-33" value="columnNames: String[]" style="text;strokeColor=none;fillColor=none;align=left;verticalAlign=top;spacingLeft=4;spacingRight=4;overflow=hidden;rotatable=0;points=[[0,0.5],[1,0.5]];portConstraint=eastwest;whiteSpace=wrap;html=1;" parent="xYpT5LmuNh0zjIPxlV9m-31" vertex="1">
          <mxGeometry y="52" width="190" height="26" as="geometry" />
        </mxCell>
        <mxCell id="xYpT5LmuNh0zjIPxlV9m-34" value="- cellColors: Color[][]" style="text;strokeColor=none;fillColor=none;align=left;verticalAlign=top;spacingLeft=4;spacingRight=4;overflow=hidden;rotatable=0;points=[[0,0.5],[1,0.5]];portConstraint=eastwest;whiteSpace=wrap;html=1;" parent="xYpT5LmuNh0zjIPxlV9m-31" vertex="1">
          <mxGeometry y="78" width="190" height="26" as="geometry" />
        </mxCell>
        <mxCell id="xYpT5LmuNh0zjIPxlV9m-35" value="- hints: int[][]" style="text;strokeColor=none;fillColor=none;align=left;verticalAlign=top;spacingLeft=4;spacingRight=4;overflow=hidden;rotatable=0;points=[[0,0.5],[1,0.5]];portConstraint=eastwest;whiteSpace=wrap;html=1;" parent="xYpT5LmuNh0zjIPxlV9m-31" vertex="1">
          <mxGeometry y="104" width="190" height="26" as="geometry" />
        </mxCell>
        <mxCell id="xYpT5LmuNh0zjIPxlV9m-36" value="" style="line;strokeWidth=1;fillColor=none;align=left;verticalAlign=middle;spacingTop=-1;spacingLeft=3;spacingRight=3;rotatable=0;labelPosition=right;points=[];portConstraint=eastwest;strokeColor=inherit;" parent="xYpT5LmuNh0zjIPxlV9m-31" vertex="1">
          <mxGeometry y="130" width="190" height="8" as="geometry" />
        </mxCell>
        <mxCell id="xYpT5LmuNh0zjIPxlV9m-37" value="+&amp;nbsp;getColumnName(int): String" style="text;strokeColor=none;fillColor=none;align=left;verticalAlign=top;spacingLeft=4;spacingRight=4;overflow=hidden;rotatable=0;points=[[0,0.5],[1,0.5]];portConstraint=eastwest;whiteSpace=wrap;html=1;" parent="xYpT5LmuNh0zjIPxlV9m-31" vertex="1">
          <mxGeometry y="138" width="190" height="26" as="geometry" />
        </mxCell>
        <mxCell id="xYpT5LmuNh0zjIPxlV9m-38" value="+&amp;nbsp;getRowCount(): int" style="text;strokeColor=none;fillColor=none;align=left;verticalAlign=top;spacingLeft=4;spacingRight=4;overflow=hidden;rotatable=0;points=[[0,0.5],[1,0.5]];portConstraint=eastwest;whiteSpace=wrap;html=1;" parent="xYpT5LmuNh0zjIPxlV9m-31" vertex="1">
          <mxGeometry y="164" width="190" height="26" as="geometry" />
        </mxCell>
        <mxCell id="xYpT5LmuNh0zjIPxlV9m-39" value="+&amp;nbsp;getColumnCount(): int" style="text;strokeColor=none;fillColor=none;align=left;verticalAlign=top;spacingLeft=4;spacingRight=4;overflow=hidden;rotatable=0;points=[[0,0.5],[1,0.5]];portConstraint=eastwest;whiteSpace=wrap;html=1;" parent="xYpT5LmuNh0zjIPxlV9m-31" vertex="1">
          <mxGeometry y="190" width="190" height="26" as="geometry" />
        </mxCell>
        <mxCell id="xYpT5LmuNh0zjIPxlV9m-40" value="+&amp;nbsp;setValueAt(Object, int, int): void" style="text;strokeColor=none;fillColor=none;align=left;verticalAlign=top;spacingLeft=4;spacingRight=4;overflow=hidden;rotatable=0;points=[[0,0.5],[1,0.5]];portConstraint=eastwest;whiteSpace=wrap;html=1;" parent="xYpT5LmuNh0zjIPxlV9m-31" vertex="1">
          <mxGeometry y="216" width="190" height="26" as="geometry" />
        </mxCell>
        <mxCell id="xYpT5LmuNh0zjIPxlV9m-41" value="+&amp;nbsp;getValueAt(int, int): Object" style="text;strokeColor=none;fillColor=none;align=left;verticalAlign=top;spacingLeft=4;spacingRight=4;overflow=hidden;rotatable=0;points=[[0,0.5],[1,0.5]];portConstraint=eastwest;whiteSpace=wrap;html=1;" parent="xYpT5LmuNh0zjIPxlV9m-31" vertex="1">
          <mxGeometry y="242" width="190" height="26" as="geometry" />
        </mxCell>
        <mxCell id="xYpT5LmuNh0zjIPxlV9m-42" value="+&amp;nbsp;setCellColor(int, int, Color): void" style="text;strokeColor=none;fillColor=none;align=left;verticalAlign=top;spacingLeft=4;spacingRight=4;overflow=hidden;rotatable=0;points=[[0,0.5],[1,0.5]];portConstraint=eastwest;whiteSpace=wrap;html=1;" parent="xYpT5LmuNh0zjIPxlV9m-31" vertex="1">
          <mxGeometry y="268" width="190" height="26" as="geometry" />
        </mxCell>
        <mxCell id="xYpT5LmuNh0zjIPxlV9m-43" value="+&amp;nbsp;getCellColor(int, int): Color" style="text;strokeColor=none;fillColor=none;align=left;verticalAlign=top;spacingLeft=4;spacingRight=4;overflow=hidden;rotatable=0;points=[[0,0.5],[1,0.5]];portConstraint=eastwest;whiteSpace=wrap;html=1;" parent="xYpT5LmuNh0zjIPxlV9m-31" vertex="1">
          <mxGeometry y="294" width="190" height="26" as="geometry" />
        </mxCell>
        <mxCell id="xYpT5LmuNh0zjIPxlV9m-44" value="AbstractTableModel" style="swimlane;fontStyle=1;align=center;verticalAlign=top;childLayout=stackLayout;horizontal=1;startSize=26;horizontalStack=0;resizeParent=1;resizeParentMax=0;resizeLast=0;collapsible=1;marginBottom=0;whiteSpace=wrap;html=1;" parent="a-lBnfebaD4neExDsO_B-63" vertex="1">
          <mxGeometry x="1230" y="260" width="160" height="50" as="geometry" />
        </mxCell>
        <mxCell id="xYpT5LmuNh0zjIPxlV9m-45" value="Extends" style="endArrow=block;endSize=16;endFill=0;html=1;rounded=0;" parent="a-lBnfebaD4neExDsO_B-63" source="xYpT5LmuNh0zjIPxlV9m-31" target="xYpT5LmuNh0zjIPxlV9m-44" edge="1">
          <mxGeometry width="160" relative="1" as="geometry">
            <mxPoint x="1480" y="512.71" as="sourcePoint" />
            <mxPoint x="1480" y="409.71" as="targetPoint" />
          </mxGeometry>
        </mxCell>
        <mxCell id="xYpT5LmuNh0zjIPxlV9m-46" value="1...n" style="endArrow=open;html=1;endSize=12;startArrow=diamondThin;startSize=14;startFill=1;edgeStyle=orthogonalEdgeStyle;align=left;verticalAlign=bottom;rounded=0;entryX=1;entryY=0.5;entryDx=0;entryDy=0;" parent="a-lBnfebaD4neExDsO_B-63" source="xYpT5LmuNh0zjIPxlV9m-24" target="xYpT5LmuNh0zjIPxlV9m-32" edge="1">
          <mxGeometry x="0.9398" y="31" relative="1" as="geometry">
            <mxPoint x="1540" y="240" as="sourcePoint" />
            <mxPoint x="1550" y="460" as="targetPoint" />
            <Array as="points">
              <mxPoint x="1540" y="419" />
            </Array>
            <mxPoint as="offset" />
          </mxGeometry>
        </mxCell>
        <mxCell id="xYpT5LmuNh0zjIPxlV9m-57" value="MainHeaderRenderer" style="swimlane;fontStyle=1;align=center;verticalAlign=top;childLayout=stackLayout;horizontal=1;startSize=26;horizontalStack=0;resizeParent=1;resizeParentMax=0;resizeLast=0;collapsible=1;marginBottom=0;whiteSpace=wrap;html=1;" parent="a-lBnfebaD4neExDsO_B-63" vertex="1">
          <mxGeometry x="1355" y="980" width="500" height="52" as="geometry" />
        </mxCell>
        <mxCell id="xYpT5LmuNh0zjIPxlV9m-58" value="+&amp;nbsp;getTableCellRendererComponent(JTable, Object, Boolean, Boolean, int, int): Component" style="text;strokeColor=none;fillColor=none;align=left;verticalAlign=top;spacingLeft=4;spacingRight=4;overflow=hidden;rotatable=0;points=[[0,0.5],[1,0.5]];portConstraint=eastwest;whiteSpace=wrap;html=1;" parent="xYpT5LmuNh0zjIPxlV9m-57" vertex="1">
          <mxGeometry y="26" width="500" height="26" as="geometry" />
        </mxCell>
        <mxCell id="xYpT5LmuNh0zjIPxlV9m-61" value="1..1" style="endArrow=open;html=1;endSize=12;startArrow=diamondThin;startSize=14;startFill=1;edgeStyle=orthogonalEdgeStyle;align=left;verticalAlign=bottom;rounded=0;entryX=0.5;entryY=0;entryDx=0;entryDy=0;" parent="a-lBnfebaD4neExDsO_B-63" source="xYpT5LmuNh0zjIPxlV9m-24" target="xYpT5LmuNh0zjIPxlV9m-57" edge="1">
          <mxGeometry x="0.9388" y="5" relative="1" as="geometry">
            <mxPoint x="1575" y="247" as="sourcePoint" />
            <mxPoint x="1400" y="429" as="targetPoint" />
            <mxPoint as="offset" />
            <Array as="points">
              <mxPoint x="1605" y="950" />
              <mxPoint x="1605" y="950" />
            </Array>
          </mxGeometry>
        </mxCell>
        <mxCell id="xYpT5LmuNh0zjIPxlV9m-51" value="WrongPosHeaderRenderer" style="swimlane;fontStyle=1;align=center;verticalAlign=top;childLayout=stackLayout;horizontal=1;startSize=26;horizontalStack=0;resizeParent=1;resizeParentMax=0;resizeLast=0;collapsible=1;marginBottom=0;whiteSpace=wrap;html=1;" parent="a-lBnfebaD4neExDsO_B-63" vertex="1">
          <mxGeometry x="930" y="890" width="500" height="52" as="geometry" />
        </mxCell>
        <mxCell id="xYpT5LmuNh0zjIPxlV9m-52" value="+&amp;nbsp;getTableCellRendererComponent(JTable, Object, Boolean, Boolean, int, int): Component" style="text;strokeColor=none;fillColor=none;align=left;verticalAlign=top;spacingLeft=4;spacingRight=4;overflow=hidden;rotatable=0;points=[[0,0.5],[1,0.5]];portConstraint=eastwest;whiteSpace=wrap;html=1;" parent="xYpT5LmuNh0zjIPxlV9m-51" vertex="1">
          <mxGeometry y="26" width="500" height="26" as="geometry" />
        </mxCell>
        <mxCell id="xYpT5LmuNh0zjIPxlV9m-62" value="1..n" style="endArrow=open;html=1;endSize=12;startArrow=diamondThin;startSize=14;startFill=1;edgeStyle=orthogonalEdgeStyle;align=left;verticalAlign=bottom;rounded=0;entryX=0.5;entryY=0;entryDx=0;entryDy=0;" parent="a-lBnfebaD4neExDsO_B-63" source="xYpT5LmuNh0zjIPxlV9m-24" target="xYpT5LmuNh0zjIPxlV9m-51" edge="1">
          <mxGeometry x="0.9567" y="10" relative="1" as="geometry">
            <mxPoint x="1615" y="247" as="sourcePoint" />
            <mxPoint x="1615" y="900" as="targetPoint" />
            <mxPoint as="offset" />
            <Array as="points">
              <mxPoint x="1570" y="840" />
              <mxPoint x="1180" y="840" />
            </Array>
          </mxGeometry>
        </mxCell>
        <mxCell id="xYpT5LmuNh0zjIPxlV9m-49" value="RightPosHeaderRenderer" style="swimlane;fontStyle=1;align=center;verticalAlign=top;childLayout=stackLayout;horizontal=1;startSize=26;horizontalStack=0;resizeParent=1;resizeParentMax=0;resizeLast=0;collapsible=1;marginBottom=0;whiteSpace=wrap;html=1;" parent="a-lBnfebaD4neExDsO_B-63" vertex="1">
          <mxGeometry x="1710" y="890" width="500" height="52" as="geometry" />
        </mxCell>
        <mxCell id="xYpT5LmuNh0zjIPxlV9m-50" value="+&amp;nbsp;getTableCellRendererComponent(JTable, Object, Boolean, Boolean, int, int): Component" style="text;strokeColor=none;fillColor=none;align=left;verticalAlign=top;spacingLeft=4;spacingRight=4;overflow=hidden;rotatable=0;points=[[0,0.5],[1,0.5]];portConstraint=eastwest;whiteSpace=wrap;html=1;" parent="xYpT5LmuNh0zjIPxlV9m-49" vertex="1">
          <mxGeometry y="26" width="500" height="26" as="geometry" />
        </mxCell>
        <mxCell id="xYpT5LmuNh0zjIPxlV9m-63" value="1...n" style="endArrow=open;html=1;endSize=12;startArrow=diamondThin;startSize=14;startFill=1;edgeStyle=orthogonalEdgeStyle;align=left;verticalAlign=bottom;rounded=0;entryX=0.5;entryY=0;entryDx=0;entryDy=0;" parent="a-lBnfebaD4neExDsO_B-63" source="xYpT5LmuNh0zjIPxlV9m-24" target="xYpT5LmuNh0zjIPxlV9m-49" edge="1">
          <mxGeometry x="0.9567" y="10" relative="1" as="geometry">
            <mxPoint x="1615" y="247" as="sourcePoint" />
            <mxPoint x="1615" y="900" as="targetPoint" />
            <mxPoint as="offset" />
            <Array as="points">
              <mxPoint x="1640" y="840" />
              <mxPoint x="1960" y="840" />
            </Array>
          </mxGeometry>
        </mxCell>
        <mxCell id="xYpT5LmuNh0zjIPxlV9m-47" value="JLabel" style="swimlane;fontStyle=1;align=center;verticalAlign=top;childLayout=stackLayout;horizontal=1;startSize=26;horizontalStack=0;resizeParent=1;resizeParentMax=0;resizeLast=0;collapsible=1;marginBottom=0;whiteSpace=wrap;html=1;" parent="a-lBnfebaD4neExDsO_B-63" vertex="1">
          <mxGeometry x="1700" y="650" width="160" height="50" as="geometry" />
        </mxCell>
        <mxCell id="xYpT5LmuNh0zjIPxlV9m-64" value="Extends" style="endArrow=block;endSize=16;endFill=0;html=1;rounded=0;exitX=0.25;exitY=0;exitDx=0;exitDy=0;entryX=0.25;entryY=1;entryDx=0;entryDy=0;" parent="a-lBnfebaD4neExDsO_B-63" source="xYpT5LmuNh0zjIPxlV9m-51" target="xYpT5LmuNh0zjIPxlV9m-47" edge="1">
          <mxGeometry x="-0.9143" width="160" relative="1" as="geometry">
            <mxPoint x="1550" y="710" as="sourcePoint" />
            <mxPoint x="1710" y="710" as="targetPoint" />
            <Array as="points">
              <mxPoint x="1055" y="780" />
              <mxPoint x="1740" y="780" />
            </Array>
            <mxPoint as="offset" />
          </mxGeometry>
        </mxCell>
        <mxCell id="xYpT5LmuNh0zjIPxlV9m-65" value="Extends" style="endArrow=block;endSize=16;endFill=0;html=1;rounded=0;exitX=0.25;exitY=0;exitDx=0;exitDy=0;entryX=0.5;entryY=1;entryDx=0;entryDy=0;" parent="a-lBnfebaD4neExDsO_B-63" source="xYpT5LmuNh0zjIPxlV9m-57" target="xYpT5LmuNh0zjIPxlV9m-47" edge="1">
          <mxGeometry x="-0.8611" width="160" relative="1" as="geometry">
            <mxPoint x="1540" y="790" as="sourcePoint" />
            <mxPoint x="1700" y="790" as="targetPoint" />
            <Array as="points">
              <mxPoint x="1480" y="800" />
              <mxPoint x="1780" y="800" />
            </Array>
            <mxPoint as="offset" />
          </mxGeometry>
        </mxCell>
        <mxCell id="xYpT5LmuNh0zjIPxlV9m-66" value="Extends" style="endArrow=block;endSize=16;endFill=0;html=1;rounded=0;exitX=0.25;exitY=0;exitDx=0;exitDy=0;entryX=0.75;entryY=1;entryDx=0;entryDy=0;" parent="a-lBnfebaD4neExDsO_B-63" source="xYpT5LmuNh0zjIPxlV9m-49" target="xYpT5LmuNh0zjIPxlV9m-47" edge="1">
          <mxGeometry x="-0.7143" width="160" relative="1" as="geometry">
            <mxPoint x="1710" y="740" as="sourcePoint" />
            <mxPoint x="1870" y="740" as="targetPoint" />
            <Array as="points">
              <mxPoint x="1835" y="820" />
              <mxPoint x="1820" y="820" />
            </Array>
            <mxPoint as="offset" />
          </mxGeometry>
        </mxCell>
        <mxCell id="xYpT5LmuNh0zjIPxlV9m-48" value="TableCellRenderer" style="html=1;whiteSpace=wrap;" parent="a-lBnfebaD4neExDsO_B-63" vertex="1">
          <mxGeometry x="1930" y="650" width="110" height="50" as="geometry" />
        </mxCell>
        <mxCell id="xYpT5LmuNh0zjIPxlV9m-67" value="" style="endArrow=block;dashed=1;endFill=0;endSize=12;html=1;rounded=0;entryX=0.25;entryY=1;entryDx=0;entryDy=0;exitX=0.75;exitY=0;exitDx=0;exitDy=0;" parent="a-lBnfebaD4neExDsO_B-63" source="xYpT5LmuNh0zjIPxlV9m-51" target="xYpT5LmuNh0zjIPxlV9m-48" edge="1">
          <mxGeometry width="160" relative="1" as="geometry">
            <mxPoint x="1540" y="740" as="sourcePoint" />
            <mxPoint x="1700" y="740" as="targetPoint" />
            <Array as="points">
              <mxPoint x="1305" y="740" />
              <mxPoint x="1958" y="740" />
            </Array>
          </mxGeometry>
        </mxCell>
        <mxCell id="xYpT5LmuNh0zjIPxlV9m-69" value="" style="endArrow=block;dashed=1;endFill=0;endSize=12;html=1;rounded=0;entryX=0.5;entryY=1;entryDx=0;entryDy=0;exitX=0.641;exitY=0.016;exitDx=0;exitDy=0;exitPerimeter=0;" parent="a-lBnfebaD4neExDsO_B-63" source="xYpT5LmuNh0zjIPxlV9m-57" target="xYpT5LmuNh0zjIPxlV9m-48" edge="1">
          <mxGeometry width="160" relative="1" as="geometry">
            <mxPoint x="1700" y="740" as="sourcePoint" />
            <mxPoint x="1860" y="740" as="targetPoint" />
            <Array as="points">
              <mxPoint x="1676" y="760" />
              <mxPoint x="1985" y="760" />
            </Array>
          </mxGeometry>
        </mxCell>
        <mxCell id="xYpT5LmuNh0zjIPxlV9m-70" value="" style="endArrow=block;dashed=1;endFill=0;endSize=12;html=1;rounded=0;exitX=0.77;exitY=0.04;exitDx=0;exitDy=0;exitPerimeter=0;entryX=0.75;entryY=1;entryDx=0;entryDy=0;" parent="a-lBnfebaD4neExDsO_B-63" source="xYpT5LmuNh0zjIPxlV9m-49" target="xYpT5LmuNh0zjIPxlV9m-48" edge="1">
          <mxGeometry width="160" relative="1" as="geometry">
            <mxPoint x="1750" y="740" as="sourcePoint" />
            <mxPoint x="1910" y="740" as="targetPoint" />
            <Array as="points">
              <mxPoint x="2095" y="780" />
              <mxPoint x="2013" y="780" />
            </Array>
          </mxGeometry>
        </mxCell>
        <mxCell id="xYpT5LmuNh0zjIPxlV9m-71" value="AttempTableCellRenderer" style="swimlane;fontStyle=1;align=center;verticalAlign=top;childLayout=stackLayout;horizontal=1;startSize=26;horizontalStack=0;resizeParent=1;resizeParentMax=0;resizeLast=0;collapsible=1;marginBottom=0;whiteSpace=wrap;html=1;" parent="a-lBnfebaD4neExDsO_B-63" vertex="1">
          <mxGeometry x="1770" y="380" width="270" height="52" as="geometry" />
        </mxCell>
        <mxCell id="xYpT5LmuNh0zjIPxlV9m-72" value="+&amp;nbsp;getTableCellRendererComponent: Component" style="text;strokeColor=none;fillColor=none;align=left;verticalAlign=top;spacingLeft=4;spacingRight=4;overflow=hidden;rotatable=0;points=[[0,0.5],[1,0.5]];portConstraint=eastwest;whiteSpace=wrap;html=1;" parent="xYpT5LmuNh0zjIPxlV9m-71" vertex="1">
          <mxGeometry y="26" width="270" height="26" as="geometry" />
        </mxCell>
        <mxCell id="xYpT5LmuNh0zjIPxlV9m-73" value="1...1" style="endArrow=open;html=1;endSize=12;startArrow=diamondThin;startSize=14;startFill=1;edgeStyle=orthogonalEdgeStyle;align=left;verticalAlign=bottom;rounded=0;entryX=0;entryY=0.5;entryDx=0;entryDy=0;" parent="a-lBnfebaD4neExDsO_B-63" source="xYpT5LmuNh0zjIPxlV9m-24" target="xYpT5LmuNh0zjIPxlV9m-72" edge="1">
          <mxGeometry x="0.7875" y="9" relative="1" as="geometry">
            <mxPoint x="1580" y="350" as="sourcePoint" />
            <mxPoint x="1740" y="350" as="targetPoint" />
            <Array as="points">
              <mxPoint x="1670" y="419" />
            </Array>
            <mxPoint as="offset" />
          </mxGeometry>
        </mxCell>
        <mxCell id="xYpT5LmuNh0zjIPxlV9m-74" value="DefaultTableCellRenderer" style="swimlane;fontStyle=1;align=center;verticalAlign=top;childLayout=stackLayout;horizontal=1;startSize=26;horizontalStack=0;resizeParent=1;resizeParentMax=0;resizeLast=0;collapsible=1;marginBottom=0;whiteSpace=wrap;html=1;" parent="a-lBnfebaD4neExDsO_B-63" vertex="1">
          <mxGeometry x="1825" y="260" width="160" height="50" as="geometry" />
        </mxCell>
        <mxCell id="xYpT5LmuNh0zjIPxlV9m-75" value="Extends" style="endArrow=block;endSize=16;endFill=0;html=1;rounded=0;exitX=0.5;exitY=0;exitDx=0;exitDy=0;entryX=0.5;entryY=1;entryDx=0;entryDy=0;" parent="a-lBnfebaD4neExDsO_B-63" source="xYpT5LmuNh0zjIPxlV9m-71" target="xYpT5LmuNh0zjIPxlV9m-74" edge="1">
          <mxGeometry width="160" relative="1" as="geometry">
            <mxPoint x="1680" y="290" as="sourcePoint" />
            <mxPoint x="1840" y="290" as="targetPoint" />
          </mxGeometry>
        </mxCell>
        <mxCell id="xYpT5LmuNh0zjIPxlV9m-76" value="OptionBar" style="swimlane;fontStyle=1;align=center;verticalAlign=top;childLayout=stackLayout;horizontal=1;startSize=26;horizontalStack=0;resizeParent=1;resizeParentMax=0;resizeLast=0;collapsible=1;marginBottom=0;whiteSpace=wrap;html=1;" parent="a-lBnfebaD4neExDsO_B-63" vertex="1">
          <mxGeometry x="890" y="434" width="280" height="268" as="geometry">
            <mxRectangle x="300" y="680" width="150" height="30" as="alternateBounds" />
          </mxGeometry>
        </mxCell>
        <mxCell id="xYpT5LmuNh0zjIPxlV9m-77" value="+&amp;nbsp;firstMenu: JMenu" style="text;strokeColor=none;fillColor=none;align=left;verticalAlign=top;spacingLeft=4;spacingRight=4;overflow=hidden;rotatable=0;points=[[0,0.5],[1,0.5]];portConstraint=eastwest;whiteSpace=wrap;html=1;" parent="xYpT5LmuNh0zjIPxlV9m-76" vertex="1">
          <mxGeometry y="26" width="280" height="26" as="geometry" />
        </mxCell>
        <mxCell id="xYpT5LmuNh0zjIPxlV9m-78" value="+&amp;nbsp;difficultyEasy: JRadioButton" style="text;strokeColor=none;fillColor=none;align=left;verticalAlign=top;spacingLeft=4;spacingRight=4;overflow=hidden;rotatable=0;points=[[0,0.5],[1,0.5]];portConstraint=eastwest;whiteSpace=wrap;html=1;" parent="xYpT5LmuNh0zjIPxlV9m-76" vertex="1">
          <mxGeometry y="52" width="280" height="26" as="geometry" />
        </mxCell>
        <mxCell id="xYpT5LmuNh0zjIPxlV9m-79" value="+&amp;nbsp;difficultyNormal: JRadioButton" style="text;strokeColor=none;fillColor=none;align=left;verticalAlign=top;spacingLeft=4;spacingRight=4;overflow=hidden;rotatable=0;points=[[0,0.5],[1,0.5]];portConstraint=eastwest;whiteSpace=wrap;html=1;" parent="xYpT5LmuNh0zjIPxlV9m-76" vertex="1">
          <mxGeometry y="78" width="280" height="26" as="geometry" />
        </mxCell>
        <mxCell id="xYpT5LmuNh0zjIPxlV9m-80" value="+&amp;nbsp;difficultyHard: JRadioButton" style="text;strokeColor=none;fillColor=none;align=left;verticalAlign=top;spacingLeft=4;spacingRight=4;overflow=hidden;rotatable=0;points=[[0,0.5],[1,0.5]];portConstraint=eastwest;whiteSpace=wrap;html=1;" parent="xYpT5LmuNh0zjIPxlV9m-76" vertex="1">
          <mxGeometry y="104" width="280" height="26" as="geometry" />
        </mxCell>
        <mxCell id="xYpT5LmuNh0zjIPxlV9m-81" value="+&amp;nbsp;setButton: JMenuItem" style="text;strokeColor=none;fillColor=none;align=left;verticalAlign=top;spacingLeft=4;spacingRight=4;overflow=hidden;rotatable=0;points=[[0,0.5],[1,0.5]];portConstraint=eastwest;whiteSpace=wrap;html=1;" parent="xYpT5LmuNh0zjIPxlV9m-76" vertex="1">
          <mxGeometry y="130" width="280" height="26" as="geometry" />
        </mxCell>
        <mxCell id="xYpT5LmuNh0zjIPxlV9m-82" value="+&amp;nbsp;difficultyGroup: ButtonGroup" style="text;strokeColor=none;fillColor=none;align=left;verticalAlign=top;spacingLeft=4;spacingRight=4;overflow=hidden;rotatable=0;points=[[0,0.5],[1,0.5]];portConstraint=eastwest;whiteSpace=wrap;html=1;" parent="xYpT5LmuNh0zjIPxlV9m-76" vertex="1">
          <mxGeometry y="156" width="280" height="26" as="geometry" />
        </mxCell>
        <mxCell id="xYpT5LmuNh0zjIPxlV9m-83" value="+&amp;nbsp;difficultyLabel: JLabel" style="text;strokeColor=none;fillColor=none;align=left;verticalAlign=top;spacingLeft=4;spacingRight=4;overflow=hidden;rotatable=0;points=[[0,0.5],[1,0.5]];portConstraint=eastwest;whiteSpace=wrap;html=1;" parent="xYpT5LmuNh0zjIPxlV9m-76" vertex="1">
          <mxGeometry y="182" width="280" height="26" as="geometry" />
        </mxCell>
        <mxCell id="xYpT5LmuNh0zjIPxlV9m-85" value="" style="line;strokeWidth=1;fillColor=none;align=left;verticalAlign=middle;spacingTop=-1;spacingLeft=3;spacingRight=3;rotatable=0;labelPosition=right;points=[];portConstraint=eastwest;strokeColor=inherit;" parent="xYpT5LmuNh0zjIPxlV9m-76" vertex="1">
          <mxGeometry y="208" width="280" height="8" as="geometry" />
        </mxCell>
        <mxCell id="0AKXrBJ4bUIqsCuSMHQm-49" value="+ addDifficultyButtonListener(ActionListener): void" style="text;strokeColor=none;fillColor=none;align=left;verticalAlign=top;spacingLeft=4;spacingRight=4;overflow=hidden;rotatable=0;points=[[0,0.5],[1,0.5]];portConstraint=eastwest;whiteSpace=wrap;html=1;" parent="xYpT5LmuNh0zjIPxlV9m-76" vertex="1">
          <mxGeometry y="216" width="280" height="26" as="geometry" />
        </mxCell>
        <mxCell id="0AKXrBJ4bUIqsCuSMHQm-50" value="+ getDifficulty(): String" style="text;strokeColor=none;fillColor=none;align=left;verticalAlign=top;spacingLeft=4;spacingRight=4;overflow=hidden;rotatable=0;points=[[0,0.5],[1,0.5]];portConstraint=eastwest;whiteSpace=wrap;html=1;" parent="xYpT5LmuNh0zjIPxlV9m-76" vertex="1">
          <mxGeometry y="242" width="280" height="26" as="geometry" />
        </mxCell>
        <mxCell id="xYpT5LmuNh0zjIPxlV9m-88" value="JMenuBar" style="swimlane;fontStyle=1;align=center;verticalAlign=top;childLayout=stackLayout;horizontal=1;startSize=26;horizontalStack=0;resizeParent=1;resizeParentMax=0;resizeLast=0;collapsible=1;marginBottom=0;whiteSpace=wrap;html=1;" parent="a-lBnfebaD4neExDsO_B-63" vertex="1">
          <mxGeometry x="977.5" y="285.19" width="105" height="50" as="geometry" />
        </mxCell>
        <mxCell id="xYpT5LmuNh0zjIPxlV9m-89" value="Extends" style="endArrow=block;endSize=16;endFill=0;html=1;rounded=0;entryX=0.5;entryY=1;entryDx=0;entryDy=0;exitX=0.5;exitY=0;exitDx=0;exitDy=0;" parent="a-lBnfebaD4neExDsO_B-63" source="xYpT5LmuNh0zjIPxlV9m-76" target="xYpT5LmuNh0zjIPxlV9m-88" edge="1">
          <mxGeometry width="160" relative="1" as="geometry">
            <mxPoint x="870" y="330" as="sourcePoint" />
            <mxPoint x="1030" y="330" as="targetPoint" />
          </mxGeometry>
        </mxCell>
        <mxCell id="0AKXrBJ4bUIqsCuSMHQm-36" value="ComboBox" style="swimlane;fontStyle=1;align=center;verticalAlign=top;childLayout=stackLayout;horizontal=1;startSize=26;horizontalStack=0;resizeParent=1;resizeParentMax=0;resizeLast=0;collapsible=1;marginBottom=0;whiteSpace=wrap;html=1;" parent="a-lBnfebaD4neExDsO_B-63" vertex="1">
          <mxGeometry x="450" y="920" width="160" height="50" as="geometry" />
        </mxCell>
        <mxCell id="0AKXrBJ4bUIqsCuSMHQm-37" value="JComboBox" style="swimlane;fontStyle=1;align=center;verticalAlign=top;childLayout=stackLayout;horizontal=1;startSize=26;horizontalStack=0;resizeParent=1;resizeParentMax=0;resizeLast=0;collapsible=1;marginBottom=0;whiteSpace=wrap;html=1;" parent="a-lBnfebaD4neExDsO_B-63" vertex="1">
          <mxGeometry x="400" y="770" width="90" height="50" as="geometry" />
        </mxCell>
        <mxCell id="0AKXrBJ4bUIqsCuSMHQm-38" value="Extends" style="endArrow=block;endSize=16;endFill=0;html=1;rounded=0;" parent="a-lBnfebaD4neExDsO_B-63" source="0AKXrBJ4bUIqsCuSMHQm-36" target="0AKXrBJ4bUIqsCuSMHQm-37" edge="1">
          <mxGeometry width="160" relative="1" as="geometry">
            <mxPoint x="315" y="890" as="sourcePoint" />
            <mxPoint x="475" y="890" as="targetPoint" />
          </mxGeometry>
        </mxCell>
        <mxCell id="0AKXrBJ4bUIqsCuSMHQm-40" value="JButton" style="swimlane;fontStyle=1;align=center;verticalAlign=top;childLayout=stackLayout;horizontal=1;startSize=26;horizontalStack=0;resizeParent=1;resizeParentMax=0;resizeLast=0;collapsible=1;marginBottom=0;whiteSpace=wrap;html=1;" parent="a-lBnfebaD4neExDsO_B-63" vertex="1">
          <mxGeometry x="780" y="770" width="80" height="50" as="geometry" />
        </mxCell>
        <mxCell id="0AKXrBJ4bUIqsCuSMHQm-41" value="CheckButton" style="swimlane;fontStyle=1;align=center;verticalAlign=top;childLayout=stackLayout;horizontal=1;startSize=26;horizontalStack=0;resizeParent=1;resizeParentMax=0;resizeLast=0;collapsible=1;marginBottom=0;whiteSpace=wrap;html=1;" parent="a-lBnfebaD4neExDsO_B-63" vertex="1">
          <mxGeometry x="660" y="920" width="160" height="50" as="geometry" />
        </mxCell>
        <mxCell id="0AKXrBJ4bUIqsCuSMHQm-42" value="Extends" style="endArrow=block;endSize=16;endFill=0;html=1;rounded=0;" parent="a-lBnfebaD4neExDsO_B-63" source="0AKXrBJ4bUIqsCuSMHQm-41" target="0AKXrBJ4bUIqsCuSMHQm-40" edge="1">
          <mxGeometry width="160" relative="1" as="geometry">
            <mxPoint x="360" y="750" as="sourcePoint" />
            <mxPoint x="520" y="750" as="targetPoint" />
          </mxGeometry>
        </mxCell>
        <mxCell id="0AKXrBJ4bUIqsCuSMHQm-44" value="4" style="endArrow=open;html=1;endSize=12;startArrow=diamondThin;startSize=14;startFill=1;edgeStyle=orthogonalEdgeStyle;align=left;verticalAlign=bottom;rounded=0;" parent="a-lBnfebaD4neExDsO_B-63" source="a-lBnfebaD4neExDsO_B-68" target="0AKXrBJ4bUIqsCuSMHQm-36" edge="1">
          <mxGeometry x="0.8596" y="10" relative="1" as="geometry">
            <mxPoint x="720" y="700" as="sourcePoint" />
            <mxPoint x="880" y="700" as="targetPoint" />
            <mxPoint as="offset" />
          </mxGeometry>
        </mxCell>
        <mxCell id="0AKXrBJ4bUIqsCuSMHQm-57" value="1" style="text;align=center;fontStyle=1;verticalAlign=middle;spacingLeft=3;spacingRight=3;strokeColor=none;rotatable=0;points=[[0,0.5],[1,0.5]];portConstraint=eastwest;html=1;" parent="a-lBnfebaD4neExDsO_B-63" vertex="1">
          <mxGeometry x="333" y="154" width="20" height="26" as="geometry" />
        </mxCell>
        <mxCell id="leNs4Q04AgKeH0ur-R9n-108" value="1...1" style="endArrow=open;html=1;endSize=12;startArrow=diamondThin;startSize=14;startFill=1;edgeStyle=orthogonalEdgeStyle;align=left;verticalAlign=bottom;rounded=0;" parent="a-lBnfebaD4neExDsO_B-63" source="a-lBnfebaD4neExDsO_B-74" target="sZfFJr8AC-p8yPcgq8WA-31" edge="1">
          <mxGeometry x="0.8763" y="10" relative="1" as="geometry">
            <mxPoint x="360" y="1220" as="sourcePoint" />
            <mxPoint x="520" y="1220" as="targetPoint" />
            <mxPoint as="offset" />
          </mxGeometry>
        </mxCell>
        <mxCell id="leNs4Q04AgKeH0ur-R9n-109" value="1...n" style="endArrow=open;html=1;endSize=12;startArrow=diamondThin;startSize=14;startFill=1;edgeStyle=orthogonalEdgeStyle;align=left;verticalAlign=bottom;rounded=0;" parent="a-lBnfebaD4neExDsO_B-63" source="a-lBnfebaD4neExDsO_B-74" target="a-lBnfebaD4neExDsO_B-68" edge="1">
          <mxGeometry x="0.7057" y="8" relative="1" as="geometry">
            <mxPoint x="440" y="460" as="sourcePoint" />
            <mxPoint x="600" y="460" as="targetPoint" />
            <mxPoint as="offset" />
          </mxGeometry>
        </mxCell>
        <mxCell id="leNs4Q04AgKeH0ur-R9n-110" value="1...1" style="endArrow=open;html=1;endSize=12;startArrow=diamondThin;startSize=14;startFill=1;edgeStyle=orthogonalEdgeStyle;align=left;verticalAlign=bottom;rounded=0;" parent="a-lBnfebaD4neExDsO_B-63" source="a-lBnfebaD4neExDsO_B-68" target="0AKXrBJ4bUIqsCuSMHQm-41" edge="1">
          <mxGeometry x="0.8961" y="-30" relative="1" as="geometry">
            <mxPoint x="640" y="640" as="sourcePoint" />
            <mxPoint x="800" y="640" as="targetPoint" />
            <mxPoint as="offset" />
          </mxGeometry>
        </mxCell>
        <mxCell id="leNs4Q04AgKeH0ur-R9n-111" value="1...1" style="endArrow=open;html=1;endSize=12;startArrow=diamondThin;startSize=14;startFill=1;edgeStyle=orthogonalEdgeStyle;align=left;verticalAlign=bottom;rounded=0;" parent="a-lBnfebaD4neExDsO_B-63" source="a-lBnfebaD4neExDsO_B-68" target="xYpT5LmuNh0zjIPxlV9m-24" edge="1">
          <mxGeometry x="0.9108" y="10" relative="1" as="geometry">
            <mxPoint x="960" y="350" as="sourcePoint" />
            <mxPoint x="1120" y="350" as="targetPoint" />
            <Array as="points">
              <mxPoint x="950" y="220" />
              <mxPoint x="950" y="220" />
            </Array>
            <mxPoint as="offset" />
          </mxGeometry>
        </mxCell>
        <mxCell id="leNs4Q04AgKeH0ur-R9n-119" value="1...1" style="endArrow=open;html=1;endSize=12;startArrow=diamondThin;startSize=14;startFill=1;edgeStyle=orthogonalEdgeStyle;align=left;verticalAlign=bottom;rounded=0;" parent="a-lBnfebaD4neExDsO_B-63" source="a-lBnfebaD4neExDsO_B-68" target="xYpT5LmuNh0zjIPxlV9m-76" edge="1">
          <mxGeometry x="0.7419" y="8" relative="1" as="geometry">
            <mxPoint x="800" y="550" as="sourcePoint" />
            <mxPoint x="960" y="550" as="targetPoint" />
            <mxPoint as="offset" />
          </mxGeometry>
        </mxCell>
        <mxCell id="sZfFJr8AC-p8yPcgq8WA-3" value="" style="group" parent="1" vertex="1" connectable="0">
          <mxGeometry x="1050" y="-1816" width="2050" height="1040" as="geometry" />
        </mxCell>
        <mxCell id="sZfFJr8AC-p8yPcgq8WA-1" value="" style="shape=folder;fontStyle=1;spacingTop=10;tabWidth=59;tabHeight=29;tabPosition=left;html=1;whiteSpace=wrap;" parent="sZfFJr8AC-p8yPcgq8WA-3" vertex="1">
          <mxGeometry x="11.452513966480447" y="16.507936507936506" width="2038.5474860335194" height="1023.4920634920634" as="geometry" />
        </mxCell>
        <mxCell id="sZfFJr8AC-p8yPcgq8WA-2" value="Controller" style="text;html=1;align=center;verticalAlign=middle;resizable=0;points=[];autosize=1;strokeColor=none;fillColor=none;" parent="sZfFJr8AC-p8yPcgq8WA-3" vertex="1">
          <mxGeometry x="11.450000000000045" y="16.50999999999999" width="80" height="30" as="geometry" />
        </mxCell>
        <mxCell id="sZfFJr8AC-p8yPcgq8WA-20" value="&lt;p style=&quot;margin:0px;margin-top:4px;text-align:center;&quot;&gt;&lt;i&gt;&amp;lt;&amp;lt;Interface&amp;gt;&amp;gt;&lt;/i&gt;&lt;br&gt;&lt;b&gt;Observer&lt;/b&gt;&lt;/p&gt;&lt;hr size=&quot;1&quot;&gt;&lt;p style=&quot;margin:0px;margin-left:4px;&quot;&gt;+ update(int[], int): void&lt;br&gt;&lt;/p&gt;&lt;p style=&quot;margin:0px;margin-left:4px;&quot;&gt;+ update(int, String, int): void&lt;/p&gt;" style="verticalAlign=top;align=left;overflow=fill;fontSize=12;fontFamily=Helvetica;html=1;whiteSpace=wrap;" parent="1" vertex="1">
          <mxGeometry x="1960" y="-200" width="160" height="80" as="geometry" />
        </mxCell>
        <mxCell id="sZfFJr8AC-p8yPcgq8WA-30" value="" style="endArrow=block;dashed=1;endFill=0;endSize=12;html=1;rounded=0;" parent="1" source="a-lBnfebaD4neExDsO_B-74" target="sZfFJr8AC-p8yPcgq8WA-20" edge="1">
          <mxGeometry width="160" relative="1" as="geometry">
            <mxPoint x="2230" y="30" as="sourcePoint" />
            <mxPoint x="2390" y="30" as="targetPoint" />
            <Array as="points">
              <mxPoint x="2695" y="-160" />
            </Array>
          </mxGeometry>
        </mxCell>
        <mxCell id="sZfFJr8AC-p8yPcgq8WA-40" value="DecodingGameApp" style="swimlane;fontStyle=1;align=center;verticalAlign=top;childLayout=stackLayout;horizontal=1;startSize=26;horizontalStack=0;resizeParent=1;resizeParentMax=0;resizeLast=0;collapsible=1;marginBottom=0;whiteSpace=wrap;html=1;" parent="1" vertex="1">
          <mxGeometry x="1960" y="-1920" width="200.88" height="104" as="geometry" />
        </mxCell>
        <mxCell id="leNs4Q04AgKeH0ur-R9n-73" value="+ gameFacade: GameFacade" style="text;strokeColor=none;fillColor=none;align=left;verticalAlign=top;spacingLeft=4;spacingRight=4;overflow=hidden;rotatable=0;points=[[0,0.5],[1,0.5]];portConstraint=eastwest;whiteSpace=wrap;html=1;" parent="sZfFJr8AC-p8yPcgq8WA-40" vertex="1">
          <mxGeometry y="26" width="200.88" height="26" as="geometry" />
        </mxCell>
        <mxCell id="leNs4Q04AgKeH0ur-R9n-74" value="+ viewFacade: ViewFacade" style="text;strokeColor=none;fillColor=none;align=left;verticalAlign=top;spacingLeft=4;spacingRight=4;overflow=hidden;rotatable=0;points=[[0,0.5],[1,0.5]];portConstraint=eastwest;whiteSpace=wrap;html=1;" parent="sZfFJr8AC-p8yPcgq8WA-40" vertex="1">
          <mxGeometry y="52" width="200.88" height="26" as="geometry" />
        </mxCell>
        <mxCell id="leNs4Q04AgKeH0ur-R9n-75" value="+ decodingGame: DecodingGame" style="text;strokeColor=none;fillColor=none;align=left;verticalAlign=top;spacingLeft=4;spacingRight=4;overflow=hidden;rotatable=0;points=[[0,0.5],[1,0.5]];portConstraint=eastwest;whiteSpace=wrap;html=1;" parent="sZfFJr8AC-p8yPcgq8WA-40" vertex="1">
          <mxGeometry y="78" width="200.88" height="26" as="geometry" />
        </mxCell>
        <mxCell id="TmO1mP3xWZ-vTGTIXcNk-12" value="Use" style="endArrow=open;endSize=12;dashed=1;html=1;rounded=0;" parent="1" source="sZfFJr8AC-p8yPcgq8WA-21" target="sZfFJr8AC-p8yPcgq8WA-20" edge="1">
          <mxGeometry width="160" relative="1" as="geometry">
            <mxPoint x="1360" y="90" as="sourcePoint" />
            <mxPoint x="1520" y="90" as="targetPoint" />
            <Array as="points">
              <mxPoint x="1090" y="-160" />
            </Array>
          </mxGeometry>
        </mxCell>
        <mxCell id="sZfFJr8AC-p8yPcgq8WA-4" value="DecodingGame" style="swimlane;fontStyle=1;align=center;verticalAlign=top;childLayout=stackLayout;horizontal=1;startSize=26;horizontalStack=0;resizeParent=1;resizeParentMax=0;resizeLast=0;collapsible=1;marginBottom=0;whiteSpace=wrap;html=1;" parent="1" vertex="1">
          <mxGeometry x="1900.44" y="-1720" width="320" height="250" as="geometry" />
        </mxCell>
        <mxCell id="leNs4Q04AgKeH0ur-R9n-86" value="- gameFacade: GameFacade" style="text;strokeColor=none;fillColor=none;align=left;verticalAlign=top;spacingLeft=4;spacingRight=4;overflow=hidden;rotatable=0;points=[[0,0.5],[1,0.5]];portConstraint=eastwest;whiteSpace=wrap;html=1;" parent="sZfFJr8AC-p8yPcgq8WA-4" vertex="1">
          <mxGeometry y="26" width="320" height="26" as="geometry" />
        </mxCell>
        <mxCell id="leNs4Q04AgKeH0ur-R9n-84" value="- viewFacade: ViewFacade" style="text;strokeColor=none;fillColor=none;align=left;verticalAlign=top;spacingLeft=4;spacingRight=4;overflow=hidden;rotatable=0;points=[[0,0.5],[1,0.5]];portConstraint=eastwest;whiteSpace=wrap;html=1;" parent="sZfFJr8AC-p8yPcgq8WA-4" vertex="1">
          <mxGeometry y="52" width="320" height="26" as="geometry" />
        </mxCell>
        <mxCell id="leNs4Q04AgKeH0ur-R9n-78" value="- playersController: PlayersController" style="text;strokeColor=none;fillColor=none;align=left;verticalAlign=top;spacingLeft=4;spacingRight=4;overflow=hidden;rotatable=0;points=[[0,0.5],[1,0.5]];portConstraint=eastwest;whiteSpace=wrap;html=1;" parent="sZfFJr8AC-p8yPcgq8WA-4" vertex="1">
          <mxGeometry y="78" width="320" height="26" as="geometry" />
        </mxCell>
        <mxCell id="leNs4Q04AgKeH0ur-R9n-79" value="- gameController: GameController" style="text;strokeColor=none;fillColor=none;align=left;verticalAlign=top;spacingLeft=4;spacingRight=4;overflow=hidden;rotatable=0;points=[[0,0.5],[1,0.5]];portConstraint=eastwest;whiteSpace=wrap;html=1;" parent="sZfFJr8AC-p8yPcgq8WA-4" vertex="1">
          <mxGeometry y="104" width="320" height="26" as="geometry" />
        </mxCell>
        <mxCell id="rGgi-4XIHhyudrWxUpkh-1" value="- nameInsertController: NameInsertController" style="text;strokeColor=none;fillColor=none;align=left;verticalAlign=top;spacingLeft=4;spacingRight=4;overflow=hidden;rotatable=0;points=[[0,0.5],[1,0.5]];portConstraint=eastwest;whiteSpace=wrap;html=1;" parent="sZfFJr8AC-p8yPcgq8WA-4" vertex="1">
          <mxGeometry y="130" width="320" height="26" as="geometry" />
        </mxCell>
        <mxCell id="rGgi-4XIHhyudrWxUpkh-2" value="- difficultySelectionController: DifficultyselectionController" style="text;strokeColor=none;fillColor=none;align=left;verticalAlign=top;spacingLeft=4;spacingRight=4;overflow=hidden;rotatable=0;points=[[0,0.5],[1,0.5]];portConstraint=eastwest;whiteSpace=wrap;html=1;" parent="sZfFJr8AC-p8yPcgq8WA-4" vertex="1">
          <mxGeometry y="156" width="320" height="30" as="geometry" />
        </mxCell>
        <mxCell id="leNs4Q04AgKeH0ur-R9n-1" value="- turnController: TurnController" style="text;strokeColor=none;fillColor=none;align=left;verticalAlign=top;spacingLeft=4;spacingRight=4;overflow=hidden;rotatable=0;points=[[0,0.5],[1,0.5]];portConstraint=eastwest;whiteSpace=wrap;html=1;" parent="sZfFJr8AC-p8yPcgq8WA-4" vertex="1">
          <mxGeometry y="186" width="320" height="30" as="geometry" />
        </mxCell>
        <mxCell id="sZfFJr8AC-p8yPcgq8WA-6" value="" style="line;strokeWidth=1;fillColor=none;align=left;verticalAlign=middle;spacingTop=-1;spacingLeft=3;spacingRight=3;rotatable=0;labelPosition=right;points=[];portConstraint=eastwest;strokeColor=inherit;" parent="sZfFJr8AC-p8yPcgq8WA-4" vertex="1">
          <mxGeometry y="216" width="320" height="8" as="geometry" />
        </mxCell>
        <mxCell id="sZfFJr8AC-p8yPcgq8WA-7" value="+ setupGame(): void&amp;nbsp;" style="text;strokeColor=none;fillColor=none;align=left;verticalAlign=top;spacingLeft=4;spacingRight=4;overflow=hidden;rotatable=0;points=[[0,0.5],[1,0.5]];portConstraint=eastwest;whiteSpace=wrap;html=1;" parent="sZfFJr8AC-p8yPcgq8WA-4" vertex="1">
          <mxGeometry y="224" width="320" height="26" as="geometry" />
        </mxCell>
        <mxCell id="rGgi-4XIHhyudrWxUpkh-16" value="NameInsertController" style="swimlane;fontStyle=1;align=center;verticalAlign=top;childLayout=stackLayout;horizontal=1;startSize=26;horizontalStack=0;resizeParent=1;resizeParentMax=0;resizeLast=0;collapsible=1;marginBottom=0;whiteSpace=wrap;html=1;" parent="1" vertex="1">
          <mxGeometry x="2280" y="-1320" width="210.26" height="138" as="geometry" />
        </mxCell>
        <mxCell id="rGgi-4XIHhyudrWxUpkh-17" value="- viewFacade: ViewFacade" style="text;strokeColor=none;fillColor=none;align=left;verticalAlign=top;spacingLeft=4;spacingRight=4;overflow=hidden;rotatable=0;points=[[0,0.5],[1,0.5]];portConstraint=eastwest;whiteSpace=wrap;html=1;" parent="rGgi-4XIHhyudrWxUpkh-16" vertex="1">
          <mxGeometry y="26" width="210.26" height="26" as="geometry" />
        </mxCell>
        <mxCell id="rGgi-4XIHhyudrWxUpkh-20" value="- playersController: PlayersController" style="text;strokeColor=none;fillColor=none;align=left;verticalAlign=top;spacingLeft=4;spacingRight=4;overflow=hidden;rotatable=0;points=[[0,0.5],[1,0.5]];portConstraint=eastwest;whiteSpace=wrap;html=1;" parent="rGgi-4XIHhyudrWxUpkh-16" vertex="1">
          <mxGeometry y="52" width="210.26" height="26" as="geometry" />
        </mxCell>
        <mxCell id="rGgi-4XIHhyudrWxUpkh-18" value="" style="line;strokeWidth=1;fillColor=none;align=left;verticalAlign=middle;spacingTop=-1;spacingLeft=3;spacingRight=3;rotatable=0;labelPosition=right;points=[];portConstraint=eastwest;strokeColor=inherit;" parent="rGgi-4XIHhyudrWxUpkh-16" vertex="1">
          <mxGeometry y="78" width="210.26" height="8" as="geometry" />
        </mxCell>
        <mxCell id="rGgi-4XIHhyudrWxUpkh-19" value="+ nameInsertListener(): void" style="text;strokeColor=none;fillColor=none;align=left;verticalAlign=top;spacingLeft=4;spacingRight=4;overflow=hidden;rotatable=0;points=[[0,0.5],[1,0.5]];portConstraint=eastwest;whiteSpace=wrap;html=1;" parent="rGgi-4XIHhyudrWxUpkh-16" vertex="1">
          <mxGeometry y="86" width="210.26" height="26" as="geometry" />
        </mxCell>
        <mxCell id="rGgi-4XIHhyudrWxUpkh-22" value="- handleDecoderNameInput(): void" style="text;strokeColor=none;fillColor=none;align=left;verticalAlign=top;spacingLeft=4;spacingRight=4;overflow=hidden;rotatable=0;points=[[0,0.5],[1,0.5]];portConstraint=eastwest;whiteSpace=wrap;html=1;" parent="rGgi-4XIHhyudrWxUpkh-16" vertex="1">
          <mxGeometry y="112" width="210.26" height="26" as="geometry" />
        </mxCell>
        <mxCell id="rGgi-4XIHhyudrWxUpkh-10" value="GameController" style="swimlane;fontStyle=1;align=center;verticalAlign=top;childLayout=stackLayout;horizontal=1;startSize=26;horizontalStack=0;resizeParent=1;resizeParentMax=0;resizeLast=0;collapsible=1;marginBottom=0;whiteSpace=wrap;html=1;" parent="1" vertex="1">
          <mxGeometry x="1140" y="-1320" width="300" height="502" as="geometry" />
        </mxCell>
        <mxCell id="rGgi-4XIHhyudrWxUpkh-11" value="- gameFacade: GameFacade" style="text;strokeColor=none;fillColor=none;align=left;verticalAlign=top;spacingLeft=4;spacingRight=4;overflow=hidden;rotatable=0;points=[[0,0.5],[1,0.5]];portConstraint=eastwest;whiteSpace=wrap;html=1;" parent="rGgi-4XIHhyudrWxUpkh-10" vertex="1">
          <mxGeometry y="26" width="300" height="26" as="geometry" />
        </mxCell>
        <mxCell id="rGgi-4XIHhyudrWxUpkh-12" value="" style="line;strokeWidth=1;fillColor=none;align=left;verticalAlign=middle;spacingTop=-1;spacingLeft=3;spacingRight=3;rotatable=0;labelPosition=right;points=[];portConstraint=eastwest;strokeColor=inherit;" parent="rGgi-4XIHhyudrWxUpkh-10" vertex="1">
          <mxGeometry y="52" width="300" height="8" as="geometry" />
        </mxCell>
        <mxCell id="rGgi-4XIHhyudrWxUpkh-13" value="+ newGame(int): void" style="text;strokeColor=none;fillColor=none;align=left;verticalAlign=top;spacingLeft=4;spacingRight=4;overflow=hidden;rotatable=0;points=[[0,0.5],[1,0.5]];portConstraint=eastwest;whiteSpace=wrap;html=1;" parent="rGgi-4XIHhyudrWxUpkh-10" vertex="1">
          <mxGeometry y="60" width="300" height="26" as="geometry" />
        </mxCell>
        <mxCell id="rGgi-4XIHhyudrWxUpkh-14" value="+ getGame(): Game" style="text;strokeColor=none;fillColor=none;align=left;verticalAlign=top;spacingLeft=4;spacingRight=4;overflow=hidden;rotatable=0;points=[[0,0.5],[1,0.5]];portConstraint=eastwest;whiteSpace=wrap;html=1;" parent="rGgi-4XIHhyudrWxUpkh-10" vertex="1">
          <mxGeometry y="86" width="300" height="26" as="geometry" />
        </mxCell>
        <mxCell id="leNs4Q04AgKeH0ur-R9n-55" value="+ startThisGame(): void" style="text;strokeColor=none;fillColor=none;align=left;verticalAlign=top;spacingLeft=4;spacingRight=4;overflow=hidden;rotatable=0;points=[[0,0.5],[1,0.5]];portConstraint=eastwest;whiteSpace=wrap;html=1;" parent="rGgi-4XIHhyudrWxUpkh-10" vertex="1">
          <mxGeometry y="112" width="300" height="26" as="geometry" />
        </mxCell>
        <mxCell id="leNs4Q04AgKeH0ur-R9n-56" value="+ endThisGame(): void" style="text;strokeColor=none;fillColor=none;align=left;verticalAlign=top;spacingLeft=4;spacingRight=4;overflow=hidden;rotatable=0;points=[[0,0.5],[1,0.5]];portConstraint=eastwest;whiteSpace=wrap;html=1;" parent="rGgi-4XIHhyudrWxUpkh-10" vertex="1">
          <mxGeometry y="138" width="300" height="26" as="geometry" />
        </mxCell>
        <mxCell id="leNs4Q04AgKeH0ur-R9n-57" value="+ checkThisGameState(String): Boolean" style="text;strokeColor=none;fillColor=none;align=left;verticalAlign=top;spacingLeft=4;spacingRight=4;overflow=hidden;rotatable=0;points=[[0,0.5],[1,0.5]];portConstraint=eastwest;whiteSpace=wrap;html=1;" parent="rGgi-4XIHhyudrWxUpkh-10" vertex="1">
          <mxGeometry y="164" width="300" height="26" as="geometry" />
        </mxCell>
        <mxCell id="leNs4Q04AgKeH0ur-R9n-58" value="+ checkWin(): Boolean" style="text;strokeColor=none;fillColor=none;align=left;verticalAlign=top;spacingLeft=4;spacingRight=4;overflow=hidden;rotatable=0;points=[[0,0.5],[1,0.5]];portConstraint=eastwest;whiteSpace=wrap;html=1;" parent="rGgi-4XIHhyudrWxUpkh-10" vertex="1">
          <mxGeometry y="190" width="300" height="26" as="geometry" />
        </mxCell>
        <mxCell id="leNs4Q04AgKeH0ur-R9n-59" value="+ retrieveId(): int" style="text;strokeColor=none;fillColor=none;align=left;verticalAlign=top;spacingLeft=4;spacingRight=4;overflow=hidden;rotatable=0;points=[[0,0.5],[1,0.5]];portConstraint=eastwest;whiteSpace=wrap;html=1;" parent="rGgi-4XIHhyudrWxUpkh-10" vertex="1">
          <mxGeometry y="216" width="300" height="26" as="geometry" />
        </mxCell>
        <mxCell id="leNs4Q04AgKeH0ur-R9n-60" value="+ retrieveTotalAttempts(): int" style="text;strokeColor=none;fillColor=none;align=left;verticalAlign=top;spacingLeft=4;spacingRight=4;overflow=hidden;rotatable=0;points=[[0,0.5],[1,0.5]];portConstraint=eastwest;whiteSpace=wrap;html=1;" parent="rGgi-4XIHhyudrWxUpkh-10" vertex="1">
          <mxGeometry y="242" width="300" height="26" as="geometry" />
        </mxCell>
        <mxCell id="leNs4Q04AgKeH0ur-R9n-61" value="+ retrieveAttemptsPlayed(): int" style="text;strokeColor=none;fillColor=none;align=left;verticalAlign=top;spacingLeft=4;spacingRight=4;overflow=hidden;rotatable=0;points=[[0,0.5],[1,0.5]];portConstraint=eastwest;whiteSpace=wrap;html=1;" parent="rGgi-4XIHhyudrWxUpkh-10" vertex="1">
          <mxGeometry y="268" width="300" height="26" as="geometry" />
        </mxCell>
        <mxCell id="leNs4Q04AgKeH0ur-R9n-62" value="+ hasThisGameAttemptsLeft(): Boolean" style="text;strokeColor=none;fillColor=none;align=left;verticalAlign=top;spacingLeft=4;spacingRight=4;overflow=hidden;rotatable=0;points=[[0,0.5],[1,0.5]];portConstraint=eastwest;whiteSpace=wrap;html=1;" parent="rGgi-4XIHhyudrWxUpkh-10" vertex="1">
          <mxGeometry y="294" width="300" height="26" as="geometry" />
        </mxCell>
        <mxCell id="leNs4Q04AgKeH0ur-R9n-63" value="+ startGameTurn(ArrayList&amp;lt;Color&amp;gt;): void" style="text;strokeColor=none;fillColor=none;align=left;verticalAlign=top;spacingLeft=4;spacingRight=4;overflow=hidden;rotatable=0;points=[[0,0.5],[1,0.5]];portConstraint=eastwest;whiteSpace=wrap;html=1;" parent="rGgi-4XIHhyudrWxUpkh-10" vertex="1">
          <mxGeometry y="320" width="300" height="26" as="geometry" />
        </mxCell>
        <mxCell id="leNs4Q04AgKeH0ur-R9n-64" value="+ endGameTurn(): void" style="text;strokeColor=none;fillColor=none;align=left;verticalAlign=top;spacingLeft=4;spacingRight=4;overflow=hidden;rotatable=0;points=[[0,0.5],[1,0.5]];portConstraint=eastwest;whiteSpace=wrap;html=1;" parent="rGgi-4XIHhyudrWxUpkh-10" vertex="1">
          <mxGeometry y="346" width="300" height="26" as="geometry" />
        </mxCell>
        <mxCell id="leNs4Q04AgKeH0ur-R9n-65" value="+ winThisGame(): void" style="text;strokeColor=none;fillColor=none;align=left;verticalAlign=top;spacingLeft=4;spacingRight=4;overflow=hidden;rotatable=0;points=[[0,0.5],[1,0.5]];portConstraint=eastwest;whiteSpace=wrap;html=1;" parent="rGgi-4XIHhyudrWxUpkh-10" vertex="1">
          <mxGeometry y="372" width="300" height="26" as="geometry" />
        </mxCell>
        <mxCell id="leNs4Q04AgKeH0ur-R9n-66" value="+ looseThisGame(): void" style="text;strokeColor=none;fillColor=none;align=left;verticalAlign=top;spacingLeft=4;spacingRight=4;overflow=hidden;rotatable=0;points=[[0,0.5],[1,0.5]];portConstraint=eastwest;whiteSpace=wrap;html=1;" parent="rGgi-4XIHhyudrWxUpkh-10" vertex="1">
          <mxGeometry y="398" width="300" height="26" as="geometry" />
        </mxCell>
        <mxCell id="rGgi-4XIHhyudrWxUpkh-15" value="+ updateGameDifficultyInfo(String): void" style="text;strokeColor=none;fillColor=none;align=left;verticalAlign=top;spacingLeft=4;spacingRight=4;overflow=hidden;rotatable=0;points=[[0,0.5],[1,0.5]];portConstraint=eastwest;whiteSpace=wrap;html=1;" parent="rGgi-4XIHhyudrWxUpkh-10" vertex="1">
          <mxGeometry y="424" width="300" height="26" as="geometry" />
        </mxCell>
        <mxCell id="leNs4Q04AgKeH0ur-R9n-67" value="+ executeSecretCodeConversion(): ArrayList&amp;lt;String&amp;gt;" style="text;strokeColor=none;fillColor=none;align=left;verticalAlign=top;spacingLeft=4;spacingRight=4;overflow=hidden;rotatable=0;points=[[0,0.5],[1,0.5]];portConstraint=eastwest;whiteSpace=wrap;html=1;" parent="rGgi-4XIHhyudrWxUpkh-10" vertex="1">
          <mxGeometry y="450" width="300" height="26" as="geometry" />
        </mxCell>
        <mxCell id="leNs4Q04AgKeH0ur-R9n-68" value="+ hasGame(): Boolean" style="text;strokeColor=none;fillColor=none;align=left;verticalAlign=top;spacingLeft=4;spacingRight=4;overflow=hidden;rotatable=0;points=[[0,0.5],[1,0.5]];portConstraint=eastwest;whiteSpace=wrap;html=1;" parent="rGgi-4XIHhyudrWxUpkh-10" vertex="1">
          <mxGeometry y="476" width="300" height="26" as="geometry" />
        </mxCell>
        <mxCell id="rGgi-4XIHhyudrWxUpkh-23" value="PlayersController" style="swimlane;fontStyle=1;align=center;verticalAlign=top;childLayout=stackLayout;horizontal=1;startSize=26;horizontalStack=0;resizeParent=1;resizeParentMax=0;resizeLast=0;collapsible=1;marginBottom=0;whiteSpace=wrap;html=1;" parent="1" vertex="1">
          <mxGeometry x="1480" y="-1320" width="300" height="242" as="geometry" />
        </mxCell>
        <mxCell id="rGgi-4XIHhyudrWxUpkh-24" value="- gameFacade: GameFacade" style="text;strokeColor=none;fillColor=none;align=left;verticalAlign=top;spacingLeft=4;spacingRight=4;overflow=hidden;rotatable=0;points=[[0,0.5],[1,0.5]];portConstraint=eastwest;whiteSpace=wrap;html=1;" parent="rGgi-4XIHhyudrWxUpkh-23" vertex="1">
          <mxGeometry y="26" width="300" height="26" as="geometry" />
        </mxCell>
        <mxCell id="rGgi-4XIHhyudrWxUpkh-27" value="- observer: Observer" style="text;strokeColor=none;fillColor=none;align=left;verticalAlign=top;spacingLeft=4;spacingRight=4;overflow=hidden;rotatable=0;points=[[0,0.5],[1,0.5]];portConstraint=eastwest;whiteSpace=wrap;html=1;" parent="rGgi-4XIHhyudrWxUpkh-23" vertex="1">
          <mxGeometry y="52" width="300" height="26" as="geometry" />
        </mxCell>
        <mxCell id="rGgi-4XIHhyudrWxUpkh-25" value="" style="line;strokeWidth=1;fillColor=none;align=left;verticalAlign=middle;spacingTop=-1;spacingLeft=3;spacingRight=3;rotatable=0;labelPosition=right;points=[];portConstraint=eastwest;strokeColor=inherit;" parent="rGgi-4XIHhyudrWxUpkh-23" vertex="1">
          <mxGeometry y="78" width="300" height="8" as="geometry" />
        </mxCell>
        <mxCell id="rGgi-4XIHhyudrWxUpkh-26" value="+ createPlayers(String, String, EncoderStrategy): void" style="text;strokeColor=none;fillColor=none;align=left;verticalAlign=top;spacingLeft=4;spacingRight=4;overflow=hidden;rotatable=0;points=[[0,0.5],[1,0.5]];portConstraint=eastwest;whiteSpace=wrap;html=1;" parent="rGgi-4XIHhyudrWxUpkh-23" vertex="1">
          <mxGeometry y="86" width="300" height="26" as="geometry" />
        </mxCell>
        <mxCell id="rGgi-4XIHhyudrWxUpkh-28" value="+ createPlayers(String, EncoderStrategy): void" style="text;strokeColor=none;fillColor=none;align=left;verticalAlign=top;spacingLeft=4;spacingRight=4;overflow=hidden;rotatable=0;points=[[0,0.5],[1,0.5]];portConstraint=eastwest;whiteSpace=wrap;html=1;" parent="rGgi-4XIHhyudrWxUpkh-23" vertex="1">
          <mxGeometry y="112" width="300" height="26" as="geometry" />
        </mxCell>
        <mxCell id="rGgi-4XIHhyudrWxUpkh-29" value="+ secretCodeGeneration(): void" style="text;strokeColor=none;fillColor=none;align=left;verticalAlign=top;spacingLeft=4;spacingRight=4;overflow=hidden;rotatable=0;points=[[0,0.5],[1,0.5]];portConstraint=eastwest;whiteSpace=wrap;html=1;" parent="rGgi-4XIHhyudrWxUpkh-23" vertex="1">
          <mxGeometry y="138" width="300" height="26" as="geometry" />
        </mxCell>
        <mxCell id="rGgi-4XIHhyudrWxUpkh-30" value="+ retrieveDecoderName(): String" style="text;strokeColor=none;fillColor=none;align=left;verticalAlign=top;spacingLeft=4;spacingRight=4;overflow=hidden;rotatable=0;points=[[0,0.5],[1,0.5]];portConstraint=eastwest;whiteSpace=wrap;html=1;" parent="rGgi-4XIHhyudrWxUpkh-23" vertex="1">
          <mxGeometry y="164" width="300" height="26" as="geometry" />
        </mxCell>
        <mxCell id="leNs4Q04AgKeH0ur-R9n-69" value="+ retrieveDecoderPoints(): int" style="text;strokeColor=none;fillColor=none;align=left;verticalAlign=top;spacingLeft=4;spacingRight=4;overflow=hidden;rotatable=0;points=[[0,0.5],[1,0.5]];portConstraint=eastwest;whiteSpace=wrap;html=1;" parent="rGgi-4XIHhyudrWxUpkh-23" vertex="1">
          <mxGeometry y="190" width="300" height="26" as="geometry" />
        </mxCell>
        <mxCell id="rGgi-4XIHhyudrWxUpkh-31" value="+ getSecretCodeNames(): ArrayList&amp;lt;String&amp;gt;" style="text;strokeColor=none;fillColor=none;align=left;verticalAlign=top;spacingLeft=4;spacingRight=4;overflow=hidden;rotatable=0;points=[[0,0.5],[1,0.5]];portConstraint=eastwest;whiteSpace=wrap;html=1;" parent="rGgi-4XIHhyudrWxUpkh-23" vertex="1">
          <mxGeometry y="216" width="300" height="26" as="geometry" />
        </mxCell>
        <mxCell id="leNs4Q04AgKeH0ur-R9n-76" value="crea" style="endArrow=block;endFill=1;html=1;edgeStyle=orthogonalEdgeStyle;align=left;verticalAlign=top;rounded=0;" parent="1" source="sZfFJr8AC-p8yPcgq8WA-40" target="sZfFJr8AC-p8yPcgq8WA-4" edge="1">
          <mxGeometry x="0.3756" y="-30" relative="1" as="geometry">
            <mxPoint x="1900" y="-1680" as="sourcePoint" />
            <mxPoint x="2020" y="-1780" as="targetPoint" />
            <mxPoint as="offset" />
          </mxGeometry>
        </mxCell>
        <mxCell id="leNs4Q04AgKeH0ur-R9n-77" value="1...n" style="edgeLabel;resizable=0;html=1;align=left;verticalAlign=bottom;" parent="leNs4Q04AgKeH0ur-R9n-76" connectable="0" vertex="1">
          <mxGeometry x="-1" relative="1" as="geometry">
            <mxPoint x="10" y="86" as="offset" />
          </mxGeometry>
        </mxCell>
        <mxCell id="leNs4Q04AgKeH0ur-R9n-80" value="viene&lt;br&gt;supportato" style="endArrow=block;endFill=1;html=1;edgeStyle=orthogonalEdgeStyle;align=left;verticalAlign=top;rounded=0;" parent="1" source="sZfFJr8AC-p8yPcgq8WA-4" target="rGgi-4XIHhyudrWxUpkh-23" edge="1">
          <mxGeometry x="0.79" y="-70" relative="1" as="geometry">
            <mxPoint x="1930" y="-1390" as="sourcePoint" />
            <mxPoint x="2090" y="-1390" as="targetPoint" />
            <mxPoint as="offset" />
          </mxGeometry>
        </mxCell>
        <mxCell id="leNs4Q04AgKeH0ur-R9n-81" value="1...1" style="edgeLabel;resizable=0;html=1;align=left;verticalAlign=bottom;" parent="leNs4Q04AgKeH0ur-R9n-80" connectable="0" vertex="1">
          <mxGeometry x="-1" relative="1" as="geometry">
            <mxPoint x="-260" y="273" as="offset" />
          </mxGeometry>
        </mxCell>
        <mxCell id="leNs4Q04AgKeH0ur-R9n-82" value="viene&lt;br&gt;supportato" style="endArrow=block;endFill=1;html=1;edgeStyle=orthogonalEdgeStyle;align=left;verticalAlign=top;rounded=0;" parent="1" source="sZfFJr8AC-p8yPcgq8WA-4" target="rGgi-4XIHhyudrWxUpkh-10" edge="1">
          <mxGeometry x="0.8683" y="-70" relative="1" as="geometry">
            <mxPoint x="2070" y="-1512" as="sourcePoint" />
            <mxPoint x="2300" y="-1390" as="targetPoint" />
            <mxPoint as="offset" />
          </mxGeometry>
        </mxCell>
        <mxCell id="leNs4Q04AgKeH0ur-R9n-83" value="1...1" style="edgeLabel;resizable=0;html=1;align=left;verticalAlign=bottom;" parent="leNs4Q04AgKeH0ur-R9n-82" connectable="0" vertex="1">
          <mxGeometry x="-1" relative="1" as="geometry">
            <mxPoint x="-600" y="273" as="offset" />
          </mxGeometry>
        </mxCell>
        <mxCell id="leNs4Q04AgKeH0ur-R9n-87" value="viene&lt;br&gt;supportato" style="endArrow=block;endFill=1;html=1;edgeStyle=orthogonalEdgeStyle;align=left;verticalAlign=top;rounded=0;" parent="1" source="sZfFJr8AC-p8yPcgq8WA-4" target="rGgi-4XIHhyudrWxUpkh-16" edge="1">
          <mxGeometry x="0.7726" y="-65" relative="1" as="geometry">
            <mxPoint x="1910" y="-1585" as="sourcePoint" />
            <mxPoint x="1640" y="-1310" as="targetPoint" />
            <mxPoint as="offset" />
          </mxGeometry>
        </mxCell>
        <mxCell id="leNs4Q04AgKeH0ur-R9n-88" value="1...1" style="edgeLabel;resizable=0;html=1;align=left;verticalAlign=bottom;" parent="leNs4Q04AgKeH0ur-R9n-87" connectable="0" vertex="1">
          <mxGeometry x="-1" relative="1" as="geometry">
            <mxPoint x="170" y="251" as="offset" />
          </mxGeometry>
        </mxCell>
        <mxCell id="rGgi-4XIHhyudrWxUpkh-4" value="DifficultySelectionController" style="swimlane;fontStyle=1;align=center;verticalAlign=top;childLayout=stackLayout;horizontal=1;startSize=26;horizontalStack=0;resizeParent=1;resizeParentMax=0;resizeLast=0;collapsible=1;marginBottom=0;whiteSpace=wrap;html=1;" parent="1" vertex="1">
          <mxGeometry x="2560" y="-1320" width="212.21" height="164" as="geometry" />
        </mxCell>
        <mxCell id="rGgi-4XIHhyudrWxUpkh-5" value="- viewFacade: ViewFacade" style="text;strokeColor=none;fillColor=none;align=left;verticalAlign=top;spacingLeft=4;spacingRight=4;overflow=hidden;rotatable=0;points=[[0,0.5],[1,0.5]];portConstraint=eastwest;whiteSpace=wrap;html=1;" parent="rGgi-4XIHhyudrWxUpkh-4" vertex="1">
          <mxGeometry y="26" width="212.21" height="26" as="geometry" />
        </mxCell>
        <mxCell id="leNs4Q04AgKeH0ur-R9n-54" value="- playersController: PlayersController" style="text;strokeColor=none;fillColor=none;align=left;verticalAlign=top;spacingLeft=4;spacingRight=4;overflow=hidden;rotatable=0;points=[[0,0.5],[1,0.5]];portConstraint=eastwest;whiteSpace=wrap;html=1;" parent="rGgi-4XIHhyudrWxUpkh-4" vertex="1">
          <mxGeometry y="52" width="212.21" height="26" as="geometry" />
        </mxCell>
        <mxCell id="rGgi-4XIHhyudrWxUpkh-8" value="- gameController: GameController" style="text;strokeColor=none;fillColor=none;align=left;verticalAlign=top;spacingLeft=4;spacingRight=4;overflow=hidden;rotatable=0;points=[[0,0.5],[1,0.5]];portConstraint=eastwest;whiteSpace=wrap;html=1;" parent="rGgi-4XIHhyudrWxUpkh-4" vertex="1">
          <mxGeometry y="78" width="212.21" height="26" as="geometry" />
        </mxCell>
        <mxCell id="rGgi-4XIHhyudrWxUpkh-6" value="" style="line;strokeWidth=1;fillColor=none;align=left;verticalAlign=middle;spacingTop=-1;spacingLeft=3;spacingRight=3;rotatable=0;labelPosition=right;points=[];portConstraint=eastwest;strokeColor=inherit;" parent="rGgi-4XIHhyudrWxUpkh-4" vertex="1">
          <mxGeometry y="104" width="212.21" height="8" as="geometry" />
        </mxCell>
        <mxCell id="rGgi-4XIHhyudrWxUpkh-7" value="+ difficultySelectionListener(): void" style="text;strokeColor=none;fillColor=none;align=left;verticalAlign=top;spacingLeft=4;spacingRight=4;overflow=hidden;rotatable=0;points=[[0,0.5],[1,0.5]];portConstraint=eastwest;whiteSpace=wrap;html=1;" parent="rGgi-4XIHhyudrWxUpkh-4" vertex="1">
          <mxGeometry y="112" width="212.21" height="26" as="geometry" />
        </mxCell>
        <mxCell id="rGgi-4XIHhyudrWxUpkh-9" value="- handleDifficultyChooseinput(): void" style="text;strokeColor=none;fillColor=none;align=left;verticalAlign=top;spacingLeft=4;spacingRight=4;overflow=hidden;rotatable=0;points=[[0,0.5],[1,0.5]];portConstraint=eastwest;whiteSpace=wrap;html=1;" parent="rGgi-4XIHhyudrWxUpkh-4" vertex="1">
          <mxGeometry y="138" width="212.21" height="26" as="geometry" />
        </mxCell>
        <mxCell id="leNs4Q04AgKeH0ur-R9n-89" value="viene&lt;br&gt;supportato" style="endArrow=block;endFill=1;html=1;edgeStyle=orthogonalEdgeStyle;align=left;verticalAlign=top;rounded=0;" parent="1" source="sZfFJr8AC-p8yPcgq8WA-4" target="rGgi-4XIHhyudrWxUpkh-4" edge="1">
          <mxGeometry x="0.8612" y="-66" relative="1" as="geometry">
            <mxPoint x="2330" y="-1630" as="sourcePoint" />
            <mxPoint x="3035.210909090909" y="-1470" as="targetPoint" />
            <mxPoint as="offset" />
          </mxGeometry>
        </mxCell>
        <mxCell id="leNs4Q04AgKeH0ur-R9n-90" value="1...1" style="edgeLabel;resizable=0;html=1;align=left;verticalAlign=bottom;" parent="leNs4Q04AgKeH0ur-R9n-89" connectable="0" vertex="1">
          <mxGeometry x="-1" relative="1" as="geometry">
            <mxPoint x="450" y="251" as="offset" />
          </mxGeometry>
        </mxCell>
        <mxCell id="leNs4Q04AgKeH0ur-R9n-45" value="TurnController" style="swimlane;fontStyle=1;align=center;verticalAlign=top;childLayout=stackLayout;horizontal=1;startSize=26;horizontalStack=0;resizeParent=1;resizeParentMax=0;resizeLast=0;collapsible=1;marginBottom=0;whiteSpace=wrap;html=1;" parent="1" vertex="1">
          <mxGeometry x="2840" y="-1320" width="212.21" height="190" as="geometry" />
        </mxCell>
        <mxCell id="leNs4Q04AgKeH0ur-R9n-46" value="- viewFacade: ViewFacade" style="text;strokeColor=none;fillColor=none;align=left;verticalAlign=top;spacingLeft=4;spacingRight=4;overflow=hidden;rotatable=0;points=[[0,0.5],[1,0.5]];portConstraint=eastwest;whiteSpace=wrap;html=1;" parent="leNs4Q04AgKeH0ur-R9n-45" vertex="1">
          <mxGeometry y="26" width="212.21" height="26" as="geometry" />
        </mxCell>
        <mxCell id="leNs4Q04AgKeH0ur-R9n-51" value="- playerController: PlayerController" style="text;strokeColor=none;fillColor=none;align=left;verticalAlign=top;spacingLeft=4;spacingRight=4;overflow=hidden;rotatable=0;points=[[0,0.5],[1,0.5]];portConstraint=eastwest;whiteSpace=wrap;html=1;" parent="leNs4Q04AgKeH0ur-R9n-45" vertex="1">
          <mxGeometry y="52" width="212.21" height="26" as="geometry" />
        </mxCell>
        <mxCell id="leNs4Q04AgKeH0ur-R9n-47" value="- gameController: GameController" style="text;strokeColor=none;fillColor=none;align=left;verticalAlign=top;spacingLeft=4;spacingRight=4;overflow=hidden;rotatable=0;points=[[0,0.5],[1,0.5]];portConstraint=eastwest;whiteSpace=wrap;html=1;" parent="leNs4Q04AgKeH0ur-R9n-45" vertex="1">
          <mxGeometry y="78" width="212.21" height="26" as="geometry" />
        </mxCell>
        <mxCell id="leNs4Q04AgKeH0ur-R9n-48" value="" style="line;strokeWidth=1;fillColor=none;align=left;verticalAlign=middle;spacingTop=-1;spacingLeft=3;spacingRight=3;rotatable=0;labelPosition=right;points=[];portConstraint=eastwest;strokeColor=inherit;" parent="leNs4Q04AgKeH0ur-R9n-45" vertex="1">
          <mxGeometry y="104" width="212.21" height="8" as="geometry" />
        </mxCell>
        <mxCell id="leNs4Q04AgKeH0ur-R9n-49" value="+ playTurnListener(): void" style="text;strokeColor=none;fillColor=none;align=left;verticalAlign=top;spacingLeft=4;spacingRight=4;overflow=hidden;rotatable=0;points=[[0,0.5],[1,0.5]];portConstraint=eastwest;whiteSpace=wrap;html=1;" parent="leNs4Q04AgKeH0ur-R9n-45" vertex="1">
          <mxGeometry y="112" width="212.21" height="26" as="geometry" />
        </mxCell>
        <mxCell id="leNs4Q04AgKeH0ur-R9n-50" value="- handleTurn(): void" style="text;strokeColor=none;fillColor=none;align=left;verticalAlign=top;spacingLeft=4;spacingRight=4;overflow=hidden;rotatable=0;points=[[0,0.5],[1,0.5]];portConstraint=eastwest;whiteSpace=wrap;html=1;" parent="leNs4Q04AgKeH0ur-R9n-45" vertex="1">
          <mxGeometry y="138" width="212.21" height="26" as="geometry" />
        </mxCell>
        <mxCell id="leNs4Q04AgKeH0ur-R9n-52" value="- endGame(): void" style="text;strokeColor=none;fillColor=none;align=left;verticalAlign=top;spacingLeft=4;spacingRight=4;overflow=hidden;rotatable=0;points=[[0,0.5],[1,0.5]];portConstraint=eastwest;whiteSpace=wrap;html=1;" parent="leNs4Q04AgKeH0ur-R9n-45" vertex="1">
          <mxGeometry y="164" width="212.21" height="26" as="geometry" />
        </mxCell>
        <mxCell id="leNs4Q04AgKeH0ur-R9n-91" value="viene&lt;br&gt;supportato" style="endArrow=block;endFill=1;html=1;edgeStyle=orthogonalEdgeStyle;align=left;verticalAlign=top;rounded=0;" parent="1" source="sZfFJr8AC-p8yPcgq8WA-4" target="leNs4Q04AgKeH0ur-R9n-45" edge="1">
          <mxGeometry x="0.9001" y="-66" relative="1" as="geometry">
            <mxPoint x="2240.0000000000014" y="-1619.9973684210527" as="sourcePoint" />
            <mxPoint x="3045.56" y="-1360.05" as="targetPoint" />
            <mxPoint as="offset" />
          </mxGeometry>
        </mxCell>
        <mxCell id="leNs4Q04AgKeH0ur-R9n-92" value="1...1" style="edgeLabel;resizable=0;html=1;align=left;verticalAlign=bottom;" parent="leNs4Q04AgKeH0ur-R9n-91" connectable="0" vertex="1">
          <mxGeometry x="-1" relative="1" as="geometry">
            <mxPoint x="730" y="255" as="offset" />
          </mxGeometry>
        </mxCell>
        <mxCell id="leNs4Q04AgKeH0ur-R9n-93" value="si interfaccia" style="endArrow=block;endFill=1;html=1;edgeStyle=orthogonalEdgeStyle;align=left;verticalAlign=top;rounded=0;" parent="1" source="sZfFJr8AC-p8yPcgq8WA-40" target="a-lBnfebaD4neExDsO_B-44" edge="1">
          <mxGeometry x="0.9702" y="11" relative="1" as="geometry">
            <mxPoint x="1170" y="-1350" as="sourcePoint" />
            <mxPoint x="1330" y="-1350" as="targetPoint" />
            <Array as="points">
              <mxPoint x="1000" y="-1870" />
              <mxPoint x="1000" y="-720" />
              <mxPoint x="1640" y="-720" />
              <mxPoint x="1640" y="379" />
            </Array>
            <mxPoint as="offset" />
          </mxGeometry>
        </mxCell>
        <mxCell id="leNs4Q04AgKeH0ur-R9n-94" value="1...1" style="edgeLabel;resizable=0;html=1;align=left;verticalAlign=bottom;" parent="leNs4Q04AgKeH0ur-R9n-93" connectable="0" vertex="1">
          <mxGeometry x="-1" relative="1" as="geometry">
            <mxPoint x="-380" y="2230" as="offset" />
          </mxGeometry>
        </mxCell>
        <mxCell id="leNs4Q04AgKeH0ur-R9n-95" value="si interfaccia" style="endArrow=block;endFill=1;html=1;edgeStyle=orthogonalEdgeStyle;align=left;verticalAlign=top;rounded=0;" parent="1" source="sZfFJr8AC-p8yPcgq8WA-40" target="a-lBnfebaD4neExDsO_B-74" edge="1">
          <mxGeometry x="0.9497" y="-15" relative="1" as="geometry">
            <mxPoint x="2160.88" y="-1866.16" as="sourcePoint" />
            <mxPoint x="2530" y="224.85449275362302" as="targetPoint" />
            <Array as="points">
              <mxPoint x="3160" y="-1866" />
              <mxPoint x="3160" y="-718" />
              <mxPoint x="2400" y="-718" />
              <mxPoint x="2400" y="225" />
            </Array>
            <mxPoint as="offset" />
          </mxGeometry>
        </mxCell>
        <mxCell id="leNs4Q04AgKeH0ur-R9n-96" value="1...1" style="edgeLabel;resizable=0;html=1;align=left;verticalAlign=bottom;" parent="leNs4Q04AgKeH0ur-R9n-95" connectable="0" vertex="1">
          <mxGeometry x="-1" relative="1" as="geometry">
            <mxPoint x="309" y="2081" as="offset" />
          </mxGeometry>
        </mxCell>
        <mxCell id="leNs4Q04AgKeH0ur-R9n-122" value="notifies" style="html=1;verticalAlign=bottom;endArrow=block;curved=0;rounded=0;" parent="1" source="a-lBnfebaD4neExDsO_B-27" target="sZfFJr8AC-p8yPcgq8WA-20" edge="1">
          <mxGeometry x="0.7405" y="-1" width="80" relative="1" as="geometry">
            <mxPoint x="970" y="60" as="sourcePoint" />
            <mxPoint x="1050" y="60" as="targetPoint" />
            <Array as="points">
              <mxPoint x="490" y="-320" />
              <mxPoint x="2040" y="-320" />
            </Array>
            <mxPoint as="offset" />
          </mxGeometry>
        </mxCell>
        <mxCell id="leNs4Q04AgKeH0ur-R9n-137" value="Use" style="endArrow=open;endSize=12;dashed=1;html=1;rounded=0;" parent="1" source="a-lBnfebaD4neExDsO_B-74" target="TmO1mP3xWZ-vTGTIXcNk-13" edge="1">
          <mxGeometry width="160" relative="1" as="geometry">
            <mxPoint x="950" y="1060" as="sourcePoint" />
            <mxPoint x="1110" y="1060" as="targetPoint" />
            <Array as="points">
              <mxPoint x="2440" y="1740" />
              <mxPoint x="160" y="1740" />
            </Array>
          </mxGeometry>
        </mxCell>
      </root>
    </mxGraphModel>
  </diagram>
</mxfile>
